<?xml version="1.0" encoding="UTF-8"?>
<svg id="_图层_2" xmlns="http://www.w3.org/2000/svg" version="1.1" viewBox="0 0 143.1 178.4">
  <!-- Generator: Adobe Illustrator 29.3.0, SVG Export Plug-In . SVG Version: 2.1.0 Build 146)  -->
  <defs>
    <style>
      .st0 {
        fill: #838286;
      }

      .st1 {
        fill: #dfe0de;
      }

      .st2 {
        fill: #2c2a31;
      }

      .st3 {
        fill: #434146;
      }

      .st4 {
        fill: #2d2c2d;
      }

      .st5 {
        fill: #6e6e75;
      }

      .st6 {
        fill: #191818;
      }

      .st7 {
        fill: #babab8;
      }

      .st8 {
        fill: #1e1c1d;
      }

      .st9 {
        fill: #c3c4c4;
      }

      .st10 {
        fill: #ab221d;
      }

      .st11 {
        fill: #252324;
      }

      .st12 {
        fill: #d1d1cf;
      }

      .st13 {
        fill: #f8f8f8;
      }

      .st14 {
        fill: #5b5a5f;
      }

      .st15 {
        fill: #acaba8;
      }

      .st16 {
        fill: #363337;
      }

      .st17 {
        fill: #9d9d9c;
      }

      .st18 {
        fill: #4f4e52;
      }

      .st19 {
        fill: #d55652;
      }
    </style>
  </defs>
  <g id="_图层_1-2">
    <path class="st13" d="M7.4,170.1c-.2-.2-1.6,0-2.5-1-1.8-1.9-2.6-7,.5-8,.2,2.1,1.8,6.4,2,9Z"/>
    <path class="st13" d="M5.4,154.1c-1.7-2.6-1.7-7.4,0-10,.5,5,.1,5.9,0,10Z"/>
    <path class="st1" d="M69.4,28c1.4.2,3.1,1.6,5,1,.4-.3-.9-1.5-1-2,6.1-.5,12,.4,18,1-.6,3.1,1.6,1.9,3.5,2,6.9.5,8.5,1.1,14.5,3l2,18H32.4l-1-4c-.5,2.2-.5,6.1-1,8-1.1,4.7-3.1,9.2-4,14-.1.6.1,1.4,0,2-2.3,2.6-6.2,17.9-4,19.5.9.7,2.2.2,3,.5,15.2,4.3,67.7,3.1,85.5,2,1.8-.1,11.1-1.1,11.6-1.4,1.9-1.3.4-6.4,0-8.6l2,1c1.1,3.8,1.1,6.2,5,6v1c-.9.1-2.2-.2-3,0-.7.1-2.1-.5-2,.5,1.8,9,.8,18.3,1,27.5-1.7-.3-2.2.7-3,2-3.5-2-3.3.4-5,1-2.1.8-4.8,2-7,2s-2.8-1-3-1c-4.1-2.7-9.4-1.9-14-2-13.1-.3-26.9-.3-40,0-4.7.1-8,.6-12.5,1-1.2.1-3-1.1-3.3-.9-.5.3-.8,4-4.1,2.9-.1-.2-4.7-2.2-5-2l2,1.6c0,.7.1,1.7,0,2.3-1.3-.2-2.7-.9-4-1-.3,0-.7,0-1,0h-1l-3-3.5,3-2.5c-1.5-.5-3.1.9-4,1-.4,0-1.5-1.3-3-.6-2.6,1.4-3.7,10-3.1,12.9.2,1.2,1.5.4,2,.6,2.5,1,3.8.9,6.1,1.4,1,.2,1.7,1.5,1.9,1.6h-2l1,2c-2.6-.5-6-.2-9-1-.7-.2-1.7-1.5-3-1-.6-5.6-1.1-10.2-1-16,0-4.4.4-6.8,1-11,.1-.9.9-1.6,1-4l2-.6v-4.4h-2c-.1-4.5-.3-7.7,1-12l4.9,1.9,9.1-33.9c.8-3.2,4.3-15.3,3.8-17.4-.9-4.2-3.1.6-4.8.4.3-.6.5-1.3,1-2l5-4,.5,6c2.5-1.4.9-6,1.6-6.9,1.2-1.5,13.9-1.7,16.4-2.1,1.6-.2,1.4-1,1.5-1,3.4-.5,7-2.1,7.5-2.1,2.5-.2,6.8.7,9.6,1.1h0ZM19.4,118.1v-27h-1c1,2.2-1,5.4-1,6.5v19c0,.2,1.4,1.6,2,1.5ZM23.9,95.1c.3,3.8,2.6,7.2,5,10-1-3.6-2-7.5-5-10ZM119.9,97.1v1c.7-.3.7-.7,0-1ZM115.4,109.1l3.5-10c-.8,1.8-8.6,10.5-3.5,10ZM29.9,106.1v1c.6-.3.6-.7,0-1ZM30.9,108.1c.5,4.5,3.2,8.5,6,12-1.3-4.2-2.6-8.9-6-12ZM113.4,110.1c-1.7-2.1-4.5,5.9-4,7,1.7-.3,4.5-6.3,4-7ZM108.9,118.1v1c.7-.3.7-.7,0-1ZM107.9,120.1v1c.7-.3.7-.7,0-1ZM27.4,121.1h-2v1h2v-1Z"/>
    <path class="st6" d="M11.4,136.1c0,.6,0,1.4,0,2,.3,2.8.3,4,1,7,2.6,10.5,5.1,10.6,15,12v2c0,11.3,1,13.2-12,12-1.7-.2-2.9.3-4.6-.9-3.9-2.8-2.4-22.4-2.4-28.1v-4c0-6.2.9-12.2,1-18h1c0,5.8.4,10.4,1,16Z"/>
    <path class="st6" d="M135.4,138.1c-.1,6.5,1.2,26.2-.7,30.8s-10.6,2.9-14.3,3.2c-5.6-3-3.9-7.5-4-13v-1c4.2-.5,6.5-1.1,10-3,7.4-4,4.8-7.2,6-14,.4-2.5.7-4.4,1-7,.2-1.6.5-3.1,2-4,0,2.7,0,5.3,0,8Z"/>
    <path class="st9" d="M121.4,47c0,0,1.3-.3,1.8.2,1.4,1.7,8.8,19.5,9.2,22.3.3,2.3-2.4,6.9,1.1,8.5-.3,0-1.4.7-2,1l-.5-1-2.5,1,1,1v1c-.9-.2-2.1.1-3,0-.8-5.6-1.1-11.5-2-17-.2-1.2.2-2.8,0-4-.8-4.2-2.8-8-4-12,.2-.3.8-.6,1-1h0Z"/>
    <path class="st12" d="M23.4,45c.9,4.1-2.1,7.3-3,11-.8,2.9-1.7,6.5-2,9.5-.5,5.9.9,11.7-1,17.5h-1l-1-12-1.5,2-1.5-4c.5-3.4.7-1.6,1-2.7.6-2.3-.4-5.7,1-8.3l3,1c.9-.9,3-11.9,3.9-13.4.6-1.1,2-.5,2.1-.6Z"/>
    <path class="st12" d="M113.4,33c.3.2,1.7-.1,2.5,1,.7,1,.3,2.6.5,3h-3c-.5,9.9,4.5,18.8,7,28,1.6,5.9,2.2,13.1,4,19l-2-1c-.5-2.6-1.8-6.6-3-9,.1-.5,0-1.4,0-2-.3-3.3-3-10.1-4-14-.4-1.5-1.8-3.2-2-4-.2-.8.1-2.1,0-3l-3-18c.9.2,2.1-.1,3,0Z"/>
    <path class="st4" d="M115.4,37l4,5c.6,1.8.9,3.3,2,5-.2.4-.8.7-1,1-1.8,3-.3,6.6.7,9.8.8,2.4,0,2.5,3.3,2.2.2,1.2-.2,2.8,0,4l-4,1c-2.5-9.2-7.5-18.1-7-28h2Z"/>
    <path class="st16" d="M27.4,56c-2.9-.5-3.3.9-4.5,3l-.6-2.9h-1.9c.9-3.7,3.9-7,3-11.1,1.1-1.7,1.9-4.2,3-6,1.7.2,3.9-4.6,4.8-.4.4,2-3,14.2-3.8,17.4Z"/>
    <path class="st12" d="M135.4,130.1c-1.5.9-1.8,2.4-2,4-1.1.5-2.8-1-3-1-.1-4.3,1.3-12.2-4-13,0-.3,0-.7,0-1,0-.5,1-1.5,1-2h8v-4c2.6,6.1.1,11.5,0,17h0Z"/>
    <path class="st3" d="M69.4,28c3.1-8.6-1.5-19.8,2.5-28,2.4-.5,1.4,1.9,1.5,3.5.3,7.5-.8,16.4,0,23.5,0,.5,1.4,1.7,1,2-1.9.6-3.6-.8-5-1Z"/>
    <path class="st1" d="M130.4,105.1c1.6,4.5,2.3,3.6,4,6,.4.5.7,1.4,1,2v4h-8c.2-6,.5-14.2,0-20,2.2,1.9,1.9,4.9,3,8Z"/>
    <path class="st15" d="M3.4,78.1l-1,3h12c.6.8.8,1.7,2,2h1c-.1.4.3,1.2-.2,1.8-.4.5-2.9,1.1-3.8,1.2-3.8.4-7.4-.3-11-1-.2-.2-1.7.6-2-.6-1-4-.3-5.2,3-6.4Z"/>
    <path class="st5" d="M12.4,69.1l1.5,4,1.5-2,1,12c-1.2-.3-1.4-1.2-2-2-.4-.5.2-2.3-1.6-2.8l-9.4-.2c2.9-1,4.6-1.4,8-1-.8-2.9.7-5.6,1-8h0Z"/>
    <path class="st12" d="M133.4,78.1c2.5-.8,4.5-1.5,7.3-1,.9.2,1.4,2.2,1.7,3,0,.7,0,1.3,0,2-4.1-2.2-7.9-.2-11.5-.1-.8,0-1.2-.8-1.5-.9v-1c.7-.3,1.3-.7,2-1,.6-.3,1.7-.9,2-1Z"/>
    <path class="st0" d="M52.4,29c0,0,.2.7-1.5,1-2.5.4-15.2.6-16.4,2.1-.7.9.9,5.5-1.6,6.9l-.5-6-5,4c.5-.7.1-1.7,1.5-3,2.7-2.8,8.4-4.2,12.2-4.9,2.7-.5,8.8-1.2,11.4-.1Z"/>
    <path class="st0" d="M133.4,92.1c-.1,6.1-.7,13.2,1,19-1.7-2.4-2.4-1.5-4-6h2c-1.6-3.4-1-7.3-1-11v-2h2Z"/>
    <path class="st0" d="M113.4,33c-.9-.1-2.1.2-3,0-.3,0-.7,0-1,0-6-1.9-7.7-2.5-14.5-3-1.9-.1-4,1.1-3.5-2,7.8.7,15.8.4,22,5Z"/>
    <path class="st14" d="M142.4,80.1c2.6,7.1-2.6,8.2-9,8,0,1.3,0,2.7,0,4h-4c0-.3,0-.7,0-1v-1c.4,0,.8,0,1,0,.3-.1.8.1,1-.5l-1-.5v-3c3.4.2,6.9,0,10.4-.1,1.9-.6,1.5-2.3,1.6-3.9,0-.7,0-1.3,0-2h0Z"/>
    <path class="st18" d="M13.4,86.1c-.1.6.2,1.5,0,2-1.3,4.3-1.1,7.5-1,12l-1,1c.1-4.3,0-8.7,0-13-4.3.4-5.9-.5-9-3,3.6.7,7.2,1.4,11,1Z"/>
    <path class="st0" d="M10.4,120.1h-1c0-1.3-1.6-4-1-7.5.5-2.7,2.9-3.2,3-3.5-.6,4.2-1,6.6-1,11Z"/>
    <path class="st13" d="M8.4,138.1v4h-3c0-1.3,0-2.7,0-4h3Z"/>
    <path class="st0" d="M12.4,100.1h2v4.4s-2,.6-2,.6c0-1.1.2-2.5-1-3,0-.3,0-.7,0-1,0,0,1-1,1-1Z"/>
    <path class="st9" d="M116.4,37c.7,1.2,1.2-.2,3,5l-4-5h1Z"/>
    <path class="st18" d="M12.4,105.1c0,2.4-.9,3.1-1,4,.4-1,0-5.2,0-7,1.2.5,1,1.9,1,3Z"/>
    <path class="st4" d="M119.4,72.1c-7,2-7.8-2.9-11.6-4.9-10-5.2-49.8,6.7-59.7,13.1-3.6,2.3-9.5,6.1-8.7,10.8h70.5c2.5,0,4.6-9.3,5.2-10.7.8-1.8,3.8-4.3,4.2-6.3,1.2,2.4,2.5,6.4,3,9,.4,2.2,2,7.2,0,8.6-.5.3-9.8,1.3-11.6,1.4-17.8,1.2-70.3,2.3-85.5-2,7.8,1.1,7.2-4.6,11.6-7.9,15.2-11.3,46.5-18.7,64.9-21.1,5.5-.7,11.4,2.3,13.4-4.1,1,3.9,3.7,10.7,4,14h0Z"/>
    <path class="st16" d="M115.4,58c-2.1,6.4-7.9,3.4-13.4,4.1-18.5,2.4-49.8,9.8-64.9,21.1-4.5,3.3-3.9,9-11.6,7.9-.8-.2-2.1.2-3-.5-2.2-1.7,1.7-16.9,4-19.5-.1.6.1,1.4,0,2-.2,1.3-.8,2.7-1,4,0,.6-2.6,8.3.5,7,1.5-.6,5.2-4.5,8.1-5.9,12.9-6.2,35.3-14.9,49.1-17.9,9.6-2.1,21.4,0,29.2-6.2h1c.2.8,1.6,2.5,2,4h0Z"/>
    <path class="st8" d="M23.4,138.1c12.7,2.5,18.9,2.8,32,3v9c-3.7-.1-7.2-1.5-11-1v5c-1.7,0-3.3.1-5,0-1.3,0-2.8.2-4,0-.6-.1-1.4-.9-2-1-8.3-1.7-20.7-4-19-15v-1c3,.8,6.4.5,9,1Z"/>
    <path class="st12" d="M53.4,122.1c12.6-.7,27.3-.4,40,0,4.6.1,9.3.7,14,1,.2,0,1.3,1,3,1-.2,3.8-3.5,8.2-4,11.5-.3,2.2.5,1.3,2,1.5,3.9.4,7.2-1.2,11-1,0,.3,1.6,1.8,1,3-1.8.2-3.4.8-5,1-3,.3-6,.7-9,1-.1,0-1,0-2,0s-2,0-3,0c.3-3.5-3.1-2.3-5-4,4.6-2.4,7.6-6.5,7-12h-60.5l-1.4,2.3c1.5,2.6,3,7.4,5.9,8.7-.9,3-5.7,2.3-7.4,1.1-1.2-.8-1-7.6-4.6-10.1,0-2.7,2-3.1,3.9-3.6,3.2-.7,10.5-1.2,14.1-1.4Z"/>
    <path class="st9" d="M33.4,124.1c1.1,1.8-1.5.7,2,3,3.7,2.5,3.4,9.3,4.6,10.1,1.7,1.2,6.5,1.9,7.4-1.1,1.1.5,5,.9,6.5,1,13.7,1,28.7-.8,42.5,0,1.9,1.7,5.3.5,5,4-.3,0-.7,0-1,0-2.9.1-5.6,1-9,1h-1c-11.1,0-23.6-.8-35-1-13.1-.2-19.3-.5-32-3l-1-2h2c1.9.4,8.5,1,10.5,1s1.6-.1,1.5-2c-2.4,0-4.9.2-7.4-.1-3-.5-8.2-2.8-9.6-2.9.4-1.5-.9-3-1-4,4-.6.9,5.8,6.3,3.8,1.3-.5,1.4-1.6,1.7-1.8,1.4-1,3.5-2.3,4-4,.2-.7,0-1.6,0-2.3l-2-1.6c.3-.2,4.9,1.8,5,2h0Z"/>
    <path class="st9" d="M26.4,130.1h-2l1-5c.3,0,.7,0,1,0v5Z"/>
    <path class="st5" d="M69.4,52c.6,3-1.5,1.7-3.2,2.3-8.1,2.6-16.2,5.9-24,9-5.3,2.1-9.1,5.8-15.8,5.7.9-4.8,2.9-9.3,4-14,1.1-1.3,1.6-2.6,3.5-3,7.8-1.5,26.4,0,35.5,0h0Z"/>
    <path class="st14" d="M87.4,52c.6,3.1-1.5,1.7-3.3,2.1-11.3,2.6-22.6,6.5-33.5,10.6-7.9,2.9-15.4,8.4-24.2,8.3.1-.6-.1-1.4,0-2s-.1-1.4,0-2c6.7,0,10.5-3.6,15.8-5.7,7.8-3.2,15.9-6.5,24-9,1.7-.5,3.8.7,3.2-2.3,6,0,12,0,18,0Z"/>
    <path class="st11" d="M20.4,56h1.9c0,0,.6,3,.6,3,1.2-2.1,1.6-3.5,4.5-3l-9.1,33.9-4.9-1.9c.2-.5-.1-1.4,0-2,.9,0,3.4-.7,3.8-1.2.5-.6,0-1.4.2-1.8,1.9-5.8.5-11.6,1-17.5.3-3,1.2-6.6,2-9.5Z"/>
    <path class="st8" d="M124.4,64.1c.9,5.5,1.2,11.4,2,17,.2,1.7.2,3.4,1.2,4.9.6.5,2,0,2.8.1v4c-.2,0-.6,0-1,0-3.9.2-3.9-2.2-5-6-1.8-5.9-2.4-13.1-4-19l4-1Z"/>
    <path class="st2" d="M30.4,55c.5-1.9.5-5.8,1-8l1,4c26.3,0,52.7,0,79,0h2c.1.9-.2,2.2,0,3h-1v-2c-2.7,0-5.3,0-8,0-5.6-.1-11.3,0-17,0-6,0-12,0-18,0-9.1,0-27.8-1.6-35.5,0-1.9.4-2.4,1.7-3.5,3h0Z"/>
    <path class="st17" d="M122.4,121.1c1.3.8,2.9,2.3,3,4l1-1c0,2.9,1.2,1.5-1,6l-.5-1-2.5,3c-.3-.1-.8.1-1,0-2-1.1-4-3.2-6-4.5-1.4-2.7,5.5-.9,6-1.5v-4c-1.2.2-3-.3-4,0,1.7-.6,1.5-3,5-1h0Z"/>
    <path class="st19" d="M20.4,120.1c-1.9,1.9-2,3.5-2,6,0,.6,0,1.4,0,2,.1,1,1.4,2.5,1,4-.2,0-1.9,1.5-3,1-.5-.2-1.8.6-2-.6-.6-2.9.4-11.6,3.1-12.9,1.5-.8,2.6.6,3,.6h0Z"/>
    <path class="st15" d="M126.4,91.1c-1,2.2.9,4.9,1,6,.5,5.8.2,14,0,20,0,.5-1,1.5-1,2h-1c-.3-9.2.8-18.4-1-27.5,0-1,1.4-.4,2-.5Z"/>
    <path class="st15" d="M19.4,118.1c-.6,0-2-1.3-2-1.5v-19c0-1.1,2-4.3,1-6.5h1v27Z"/>
    <path class="st12" d="M129.4,91.1c0,.3,0,.7,0,1,.1.6-.1,1.4,0,2h2c0,3.7-.6,7.6,1,11h-2c-1.1-3.1-.8-6.1-3-8,0-1.1-2-3.8-1-6,.8-.2,2.1.1,3,0Z"/>
    <path class="st17" d="M93.4,121.1v1c-12.7-.4-27.4-.7-40,0v-1c13.1-.3,26.9-.3,40,0Z"/>
    <path class="st17" d="M30.4,126.1c-.5,1.7-2.6,3-4,4v-5c1.3.1,2.7.8,4,1Z"/>
    <path class="st17" d="M24.4,125.1h1l-1,5h2c-.3.2-.4,1.4-1.7,1.8-5.4,2-2.3-4.4-6.3-3.8,0-.6,0-1.4,0-2,2-.7,3.9-.9,6-1h0Z"/>
    <path class="st18" d="M113.4,51h-2l-2-18c.3,0,.7,0,1,0l3,18Z"/>
    <path class="st15" d="M53.4,121.1v1c-3.6.2-10.9.7-14.1,1.4-2,.4-4,.9-3.9,3.6-3.5-2.3-.9-1.2-2-3,3.4,1.1,3.6-2.5,4.1-2.9.3-.2,2.2,1,3.3.9,4.5-.5,7.8-.9,12.5-1Z"/>
    <path class="st9" d="M20.4,120.1c.9,0,2.5-1.5,4-1l-3,2.5,3,3.5c-2.1,0-4,.3-6,1,0-2.5.1-4.1,2-6Z"/>
    <path class="st5" d="M19.4,132.1c1.5,0,6.6,2.4,9.6,2.9,2.4.4,4.9,0,7.4.1,0,1.9.5,2.1-1.5,2s-8.6-.7-10.5-1c-.2,0-.9-1.3-1.9-1.6-2.3-.6-3.6-.5-6.1-1.4,1.1.5,2.8-1,3-1h0Z"/>
    <path class="st7" d="M107.4,123.1c-4.7-.3-9.4-.9-14-1v-1c4.6.1,9.9-.7,14,2Z"/>
    <path class="st15" d="M30.9,108.1c3.4,3,4.7,7.7,6,12-2.8-3.4-5.5-7.4-6-12Z"/>
    <path class="st9" d="M125.4,119.1h1c0,.3,0,.7,0,1,0,1.3,0,2.7,0,4l-1,1c-.1-1.7-1.7-3.2-3-4,.8-1.3,1.3-2.3,3-2Z"/>
    <path class="st7" d="M113.4,110.1c.5.7-2.3,6.7-4,7-.6-1.1,2.3-9.1,4-7Z"/>
    <path class="st15" d="M23.9,95.1c3,2.4,4,6.4,5,10-2.4-2.8-4.7-6.2-5-10Z"/>
    <path class="st7" d="M115.4,109.1c-5.1.5,2.7-8.2,3.5-10l-3.5,10Z"/>
    <path class="st9" d="M14.4,137.1v1h-3c0-.6,0-1.4,0-2,1.3-.5,2.3.8,3,1Z"/>
    <path class="st14" d="M117.4,122.1c-.4.1-6.5,4-6.7,4.3-.8,1.1-2.2,7-2.3,8.7,0,.7,0,1.3,0,2-1.4-.1-2.3.7-2-1.5.5-3.3,3.8-7.7,4-11.5,2.2,0,4.9-1.2,7-2Z"/>
    <rect class="st9" x="25.5" y="121.1" width="2" height="1"/>
    <path class="st7" d="M107.9,120.1c.7.3.7.7,0,1v-1Z"/>
    <path class="st7" d="M108.9,118.1c.7.3.7.7,0,1v-1Z"/>
    <path class="st15" d="M29.9,106.1c.6.3.6.7,0,1v-1Z"/>
    <path class="st7" d="M119.9,97.1c.7.3.7.7,0,1v-1Z"/>
    <path class="st17" d="M12.4,145.1c3-.5,1.9,2.9,3.5,5,5.1,6.4,14.4,2.8,16.5,4,.2.1-.7,3,3,2v-2c1.2.2,2.7,0,4,0-.6,3,1.5,1.9,3.5,2,26.6,1.1,53.5.4,79.8-2.4,1.8-.2,3-1.2,3.8,1.4-3.5,1.9-5.8,2.5-10,3-2.4.3-9.5,1-11.5,1h-60c-4.4,0-12.6-1.3-17.5-2-9.9-1.4-12.4-1.5-15-12h0Z"/>
    <path class="st14" d="M116.4,158.1v1H27.4v-2c4.9.7,13.1,2,17.5,2h60c2,0,9.1-.7,11.5-1Z"/>
    <path class="st7" d="M14.4,138.1c-1.7,11,10.7,13.3,19,15l-1,1c-2.1-1.3-11.3,2.4-16.5-4-1.6-2-.5-5.4-3.5-5-.7-3-.7-4.2-1-7h3Z"/>
    <path class="st15" d="M132.4,141.1c-1.2,6.8,1.4,10-6,14-.8-2.6-2-1.6-3.8-1.4-26.2,2.8-53.2,3.4-79.8,2.4-1.9,0-4,1-3.5-2,1.7.1,3.3,0,5,0,18.4.6,37.6.1,56,0,2,0,4,0,6,0,1.1,0,2.5.3,3-1,.6,0,1.4,0,2,0,1.5,0,10.7-2.6,12.3-3.2,2-.8,1.8-1.9,2.7-2.8.1-.1,1.3.3,1.7-.2.2-.2,2.2-5.5,2.3-5.8h2,0Z"/>
    <path class="st9" d="M133.4,134.1c-.3,2.6-.6,4.5-1,7h-2c.2-.8-.1-2.1,0-3-3.4-.2-6.7.6-10,1,.6-1.2-1-2.7-1-3s0-.8,0-1c3.6-.2,7.3-1.8,10-2,.3,0,.7,0,1,0s1.9,1.5,3,1Z"/>
    <path class="st9" d="M117.4,122.1c1-.3,2.8.2,4,0v4c-.5.5-7.4-1.2-6,1.5,2,1.3,4,3.4,6,4.5.5,1.6-1.8,2.4-2,3-3.6.2-7.4-.2-11,0,0-1.7,1.5-7.6,2.3-8.7.2-.3,6.3-4.2,6.7-4.3h0Z"/>
    <path class="st15" d="M129.4,81.1c.2,0,.6.9,1.5.9,3.6,0,7.5-2.1,11.5.1-.1,1.6.3,3.2-1.6,3.9-3.4.2-7,.4-10.4.1-.9,0-2.2.3-2.8-.1-.9-1.5-.9-3.2-1.2-4.9.9.1,2.1-.2,3,0Z"/>
    <path class="st8" d="M124.4,60c-3.3.4-2.5.2-3.3-2.2-1.1-3.2-2.5-6.8-.7-9.8,1.2,4,3.2,7.8,4,12Z"/>
    <path class="st15" d="M131.4,79.1c-.7.3-1.3.7-2,1l-1-1,2.5-1,.5,1h0Z"/>
    <path class="st2" d="M119.4,72.1c0,.6.1,1.5,0,2-.4,1.9-3.4,4.5-4.2,6.3-.7,1.4-2.8,10.7-5.2,10.7H39.4c-.8-4.8,5-8.5,8.7-10.8,9.9-6.4,49.7-18.2,59.7-13.1,3.8,2,4.7,6.9,11.6,4.9h0Z"/>
    <path class="st10" d="M126.4,120.1c5.3.8,3.9,8.7,4,13-.3,0-.7,0-1,0h-3.3l-.7-2c.2-.2-.1-.7,0-1,2.2-4.5.9-3.1,1-6,0-1.3,0-2.7,0-4Z"/>
    <path class="st1" d="M14.4,81.1H2.5l1-3,9.4.2c1.9.6,1.3,2.3,1.6,2.8Z"/>
    <path class="st15" d="M131.4,92.1v2h-2c-.1-.6.1-1.4,0-2h2Z"/>
    <path class="st15" d="M130.4,90.1v-1l1,.5c-.2.6-.6.4-1,.5Z"/>
    <path class="st3" d="M104.4,52c2.7,0,5.3,0,8,0v2c-7.8,6.2-19.7,4.2-29.3,6.2-13.8,3-36.2,11.7-49.1,17.9-2.9,1.4-6.6,5.2-8.1,5.9-3.1,1.3-.6-6.4-.5-7,19.3-4.9,37.2-15.3,56.8-19.7,6.3-1.4,13-1.5,19.3-2.8,1.7-.3,3.5,0,2.9-2.5h0Z"/>
    <path class="st18" d="M104.4,52c.6,2.4-1.3,2.2-2.9,2.5-6.3,1.3-13,1.3-19.3,2.8-19.6,4.4-37.5,14.8-56.8,19.7.2-1.3.8-2.7,1-4,8.8.1,16.3-5.3,24.2-8.3,10.9-4.1,22.1-8,33.5-10.6,1.8-.4,3.9,1,3.3-2.1,5.7,0,11.4-.1,17,0Z"/>
    <path class="st12" d="M90.4,143.1v6c-11.4,0-23.3,1.4-35,1v-7c11.3-.8,23.9,1.1,35,0Z"/>
    <path class="st6" d="M55.4,150.1c11.7.4,23.6-1,35-1,2.2,0,6.8,2.1,10,1v4c-18.4.1-37.7.6-56,0v-5c3.8-.5,7.3.9,11,1Z"/>
    <path class="st18" d="M90.4,142.1v1c-11.1,1.1-23.7-.8-35,0v-2c11.4.2,23.9,1.1,35,1Z"/>
    <path class="st15" d="M35.4,154.1v2c-3.7,1-2.8-1.9-3-2l1-1c.6.1,1.4.9,2,1Z"/>
    <path class="st6" d="M47.4,136.1c-2.9-1.2-4.4-6-5.9-8.7l1.4-2.3h60.5c.6,5.5-2.4,9.6-7,12-13.8-.8-28.8,1.1-42.5,0-1.5-.1-5.3-.6-6.5-1ZM48.4,128.1v1h52v-1h-52ZM47.9,133.1h51.5c.1-2.3.3-1.8-1.5-2-7.1-.9-14.3.9-21,1.1-10.2.2-20.4-.4-30.5-1,0,.6,1.2,1.9,1.5,2h0Z"/>
    <path class="st11" d="M120.4,139.1c3.3-.4,6.6-1.2,10-1-.1.9.2,2.2,0,3,0,.3-2.1,5.5-2.3,5.8-.4.5-1.6,0-1.7.2l-8-.4-3-6.6c1.6-.2,3.2-.8,5-1Z"/>
    <path class="st6" d="M115.4,140.1l3,6.6,8,.4c-.9.8-.8,1.9-2.7,2.8-1.6.6-10.8,3.2-12.3,3.2l.9-8.9c-2.2.5-4.8-1.9-5.9-2.1v-1c3-.3,6-.7,9-1Z"/>
    <path class="st0" d="M125.4,131.1l.7,2h3.3c-2.7.2-6.4,1.8-10,2,.2-.6,2.5-1.4,2-3,.2.1.7-.1,1,0,.3.1.8,1.1,1.4,1.1.4-.7,1.3-1.6,1.6-2.1Z"/>
    <path class="st0" d="M119.4,135.1c0,.2,0,.7,0,1-3.8-.2-7.1,1.4-11,1,0-.7,0-1.3,0-2,3.6-.2,7.4.2,11,0Z"/>
    <path class="st6" d="M104.4,141.1v1c-.7,0-2.6,1.6-4,1v-2c.3,0,.7,0,1,0,1,0,2,0,3,0Z"/>
    <path class="st9" d="M106.4,141.1v1c-.6-.1-1.4,0-2,0v-1c1,0,1.9,0,2,0Z"/>
    <path class="st8" d="M100.4,141.1v2c1.4.6,3.3-1,4-1s1.4-.1,2,0c1.1.2,3.8,2.6,5.9,2.1l-.9,8.9c-.6,0-1.4,0-2,0-.3,0-1.5-1.6-3-1v2c-2,0-4,0-6,0v-4c-3.2,1.1-7.8-1-10-1v-6c.4,0,.9-.5,1-1,3.4,0,6.1-.9,9-1Z"/>
    <path class="st6" d="M90.4,143.1v-1h1c0,.5-.6,1-1,1Z"/>
    <path class="st9" d="M125.4,130.1c-.1.3.2.8,0,1-.3.4-1.2,1.4-1.6,2.1-.6,0-1-1-1.4-1.1l2.5-3,.5,1Z"/>
    <path class="st6" d="M109.4,153.1c-.5,1.3-1.9.9-3,1v-2c1.5-.6,2.7,1,3,1Z"/>
    <path class="st11" d="M47.9,133.1c-.3,0-1.5-1.4-1.5-2,10.2.6,20.3,1.2,30.5,1,6.7-.1,13.9-1.9,21-1.1,1.8.2,1.6-.3,1.5,2h-51.5Z"/>
    <rect class="st16" x="48.4" y="128.1" width="52" height="1"/>
  </g>
</svg>