<?xml version="1.0" encoding="UTF-8"?>
<svg id="_图层_2" data-name="图层 2" xmlns="http://www.w3.org/2000/svg" viewBox="0 0 147.35 176.35">
  <defs>
    <style>
      .cls-1 {
        fill: #838286;
      }

      .cls-2 {
        fill: #dfe0de;
      }

      .cls-3 {
        fill: #2c2a31;
      }

      .cls-4 {
        fill: #434146;
      }

      .cls-5 {
        fill: #2d2c2d;
      }

      .cls-6 {
        fill: #6e6e75;
      }

      .cls-7 {
        fill: #191818;
      }

      .cls-8 {
        fill: #babab8;
      }

      .cls-9 {
        fill: #1e1c1d;
      }

      .cls-10 {
        fill: #c3c4c4;
      }

      .cls-11 {
        fill: #252324;
      }

      .cls-12 {
        fill: #d1d1cf;
      }

      .cls-13 {
        fill: #d49b2c;
      }

      .cls-14 {
        fill: #5b5a5f;
      }

      .cls-15 {
        fill: #acaba8;
      }

      .cls-16 {
        fill: #363337;
      }

      .cls-17 {
        fill: #9d9d9c;
      }

      .cls-18 {
        fill: #4f4e52;
      }
    </style>
  </defs>
  <g id="_图层_1-2" data-name="图层 1">
    <g>
      <path class="cls-7" d="M11.15,124.2c.12.96-.12,2.03,0,3,.37,3.03.56,5.94,1,9,1.17,8.13,1.23,12.19,8,18,4.59,3.94,4.53,3.15,10,4,.06.66-.02,1.34,0,2,.32,9.21,2.54,15.25-8,16-3.07.22-6.24-.13-9.33.04-4.05-.97-2.53-24.88-2.63-29.58-.07-3.06-1-5.95-1.04-9.46-.07-5.61.92-10.5,1-16,.03.16.77,1.18,1,3Z"/>
      <path class="cls-7" d="M138.15,134.2c0,.67,0,1.33,0,2-.09,12.06-.6,24.01-1.45,36.05-2.2,7.24-12.13,2.34-14.55,3.95-7.66-1.64-4.38-10.32-5-16v-1c6.7-.73,6.36-.99,11-5,5.16-4.45,7.76-11.06,8-18,.02-.66.01-1.34,0-2h2Z"/>
      <path class="cls-2" d="M12.15,111.2c.15,3.32,1.5,6.87,2,10,.1.63-.09,1.36,0,2l-3,1c-.23-1.82-.97-2.84-1-3-.4-2.42-1.69-3.98-.98-7.54.4-2.03,1.85-2.19,1.98-2.46h1Z"/>
      <path class="cls-1" d="M138.15,134.2h-2c-.04-1.68-.99-2.82-1-3-.06-.99.11-2.03,0-3,3.02.56,1.93-1.53,2-3.46.31-8.87-1.24-13.04-3-21.04l-2,1.5c.06-2.33-.06-4.67,0-7l2.99,4c-1.34-5.43.43-10.47.01-16,.3-.1.7.1,1,0,.6,6.84-.8,14.86-.03,21.53,1.14,9.81,2.01,16.03,2.03,26.47Z"/>
      <path class="cls-2" d="M14.15,128.2c1.91,1.54.79,3.27,5,5,.89.37,1.69,1.67,3.34,1.03l3.65-3.03c.98,5.54-2.39-.11-1.98,3.99l5.47-2.03,2.03,3.03c.82-3.04,2.85-1.96,5.49-1.99-.04.64.11,1.37,0,1.99-.02.15-1.26.2-1,.99,1.53.26,3.63-.31,5,.01,5.18,1.23,8.12,2.34,14,3,18.84,2.12,33.72,1.42,52-3,1.23-.3,3.15.31,4.54.03l1.46-1.03,4-5c1.31.94,3.67.77,4,1,.42.3-1.25,1.65,2,2,4.18.45,5.55-.47,9-2,.69-.3,1.46-.39,2-1h1c.01.18.96,1.32,1,3,.01.66.02,1.34,0,2-9.92,3.28-20.09,5.72-30.52,6.98-17.61,2.13-39.8,2.76-57.48,1.02-5.79-.57-15.26-2.19-21.04-3.46-5.15-1.14-9.81-3.52-14.96-4.54-.44-3.06-.63-5.97-1-9,.69.67,2.59.67,3,1Z"/>
      <path class="cls-15" d="M48.15,144.2v2c-4.48.13-8.1,1.97-10,2-2.05.03-7.67-1.05-10,0-.11-5.48-8.05-4.92-8.03-.5,0,2.36,2.65,2.85,3.03,3.5.2.34-.13,1.41,0,2-.96-.06-2.14.55-3,1-6.77-5.81-6.83-9.87-8-18,5.15,1.02,9.81,3.4,14.96,4.54,5.78,1.27,15.25,2.89,21.04,3.46Z"/>
      <path class="cls-1" d="M23.15,153.2c2.21.15,4.47,2.03,6.88,2.14.47.48.05,2.02.12,2.86-5.47-.85-5.41-.06-10-4,.86-.45,2.04-1.06,3-1Z"/>
      <path class="cls-12" d="M14.15,128.2c-.41-.33-2.31-.33-3-1-.12-.97.12-2.04,0-3l3-1c.21,1.52.94,2.81,0,5Z"/>
      <path class="cls-17" d="M136.15,136.2c-.24,6.94-2.84,13.55-8,18-4.4-2.99-4.43.63-7.09,1.36-3.27.9-5.87.34-8.91.64.75-3.61-2.98-9.3-6.52-9.98-14.72-.19-29.28,1.29-44.03,1.02-4.5-.08-8.49-1.19-13.45-1.05v-2c17.68,1.74,39.87,1.12,57.48-1.02,10.43-1.26,20.6-3.71,30.52-6.98ZM128.46,147.69c0-2.11-1.71-3.81-3.81-3.81s-3.81,1.71-3.81,3.81,1.71,3.81,3.81,3.81,3.81-1.71,3.81-3.81Z"/>
      <path class="cls-1" d="M128.15,154.2c-4.64,4.01-4.3,4.27-11,5-12.1,1.31-25.3,1.15-37.51,1.02-1.69-.02-4.45.64-5.49-1.02,5.64-.02,9.67-.3,15-1,.21-.03.62-.91,1-1,4.56-1.02,15.74-.39,22-1,3.03-.29,5.64.26,8.91-.64,2.67-.73,2.7-4.35,7.09-1.36Z"/>
      <path class="cls-13" d="M20.15,119.2l1,14h-2c-4.21-1.73-3.09-3.46-5-5,.94-2.19.21-3.48,0-5-.09-.64.1-1.37,0-2h1c1.2-2.6,2.65-1.94,5-2Z"/>
      <path class="cls-6" d="M20.15,117.2c.32-.02.68-.03,1,0,3.41.33,8.62,2.77,12,4-.33-.03-.67.04-1,0-4.41-.5-6.99-2.12-12-2-2.35.06-3.8-.6-5,2,.34-3.3,2.06-3.82,5-4Z"/>
      <path class="cls-14" d="M132.15,118.2c.65.16,1.81-.57,2.03.65,1.22,3.08.62,6.37.97,9.35.11.97-.06,2.01,0,3h-1l-1-1,.07-7.46-3.06-.55,1.99-2.99c-.23-.23-1.99,1.04-2.99,1l1-2c.61.13,1.42-.14,2,0Z"/>
      <path class="cls-10" d="M32.15,121.2c3.4,3.14,5.15,8.92,7.15,13.35,1.5,3.33-.37,1.29-2.15,1.65.1-.63-.05-1.35,0-1.99-2.64.03-4.67-1.05-5.49,1.99l-2.03-3.03-5.47,2.03c-.41-4.11,2.97,1.55,1.98-3.99l-3.65,3.03c-1.65.63-2.45-.67-3.34-1.03h2s-1-14-1-14c5.01-.12,7.59,1.5,12,2Z"/>
      <path class="cls-17" d="M112.15,123.2l-5,14c-18.28,4.42-33.16,5.12-52,3,2.92-2.05,7.85-.71,11.58-.96,1.29-.09,2.29-1.03,2.42-1.04,8.55-.42,25.29.95,32.74-2.69,2.83-1.38,4.17-9.28,4.26-12.31,2.05.04,1.6-.95,6,0Z"/>
      <path class="cls-15" d="M100.15,120.2v3c-1.52-.05-3.4-.99-5.45-1.04-17.16-.39-34.4.37-51.56.03-.31,4.73.3,10.07,4,13.51l22.01,2.49c-.13,0-1.14.95-2.42,1.04-3.73.25-8.66-1.09-11.58.96-5.88-.66-8.82-1.77-14-3,1.43-3.78-6.66-13.27-5-15,2.82.86,5.21-.67,7-1,15.54-2.93,40.17-.99,57-1Z"/>
      <path class="cls-10" d="M128.15,120.2c1.17,4.75-2.02,7.74-2,12-.75.18-2.17,1.53-3,2-3.25-.35-1.58-1.7-2-2l4-2.99c-6.29,2.01-7.74-4.47-11-6.01,3.68-2.89,7.84-4.03,12.4-3.95.75.01,1.4.93,1.6.95Z"/>
      <path class="cls-1" d="M114.15,123.2c3.26,1.54,4.71,8.02,11,6.01l-4,2.99c-.33-.23-2.69-.06-4-1-1.19-.85-3.61-3.83-5-5,.22-.9,1.01-1.91,1-3,.31.11.74-.12,1,0Z"/>
      <path class="cls-10" d="M112.15,126.2c1.39,1.17,3.81,4.15,5,5l-4,5h-4c1.29-3.37,2.14-6.49,3-10Z"/>
      <path class="cls-14" d="M112.15,126.2c-.85,3.51-1.7,6.63-3,9.99h4s-1.46,1.04-1.46,1.04c-1.39.28-3.31-.33-4.54-.03l5-14c.34.07.73-.1,1,0,0,1.09-.78,2.1-1,3Z"/>
      <path class="cls-14" d="M43.15,121.2c-1.8.34-4.18,1.87-7,1-1.66,1.73,6.44,11.21,5,15-1.37-.33-3.47.24-5-.01-.26-.79.98-.84,1-.99,1.79-.36,3.66,1.68,2.15-1.65-2-4.43-3.75-10.21-7.15-13.35.33.04.67-.03,1,0,3.24.3,6.73-.21,10,0Z"/>
      <path class="cls-14" d="M132.15,132.2c-3.45,1.53-4.82,2.45-9,2,.83-.47,2.25-1.82,3-2,1.67-.39,4.23.52,6-1v1Z"/>
      <path class="cls-1" d="M134.15,131.2c-.54.61-1.31.7-2,1v-1l1-1,1,1Z"/>
      <path class="cls-7" d="M48.15,146.2c4.96-.15,8.95.97,13.45,1.05,14.74.26,29.3-1.22,44.03-1.02,3.54.67,7.27,6.37,6.52,9.98-6.26.61-17.44-.02-22,1l-1.64-5.86-29.37-.14v7.01c-4.98-.34-9.87-.83-14.99-1-8.9-.3-9.6.27-6-9,1.9-.03,5.52-1.87,10-2Z"/>
      <path class="cls-17" d="M38.15,148.2c-3.6,9.27-2.9,8.7,6,9l-1,2c-4.32-.32-8.7-.33-13-1-.08-.83.35-2.38-.12-2.86-2.4-.11-4.67-2-6.88-2.14-.13-.59.2-1.66,0-2,4.41,1.68,4.54-2.79,5-3,2.33-1.05,7.95.03,10,0Z"/>
      <path class="cls-7" d="M28.15,148.2c-.46.21-.59,4.68-5,3-.38-.65-3.02-1.13-3.03-3.5-.02-4.42,7.92-4.98,8.03.5Z"/>
      <path class="cls-1" d="M59.15,158.2c3.37.23,7.19.85,11,1-6.37,1.54-14.9,1.38-21.55,1.04-2.28-.12-4.14-.95-5.45-1.04l1-2c5.12.17,10.02.66,15,1Z"/>
      <circle class="cls-7" cx="124.65" cy="147.69" r="3.81"/>
      <path class="cls-12" d="M90.15,157.2c-.38.09-.79.97-1,1h-30v-7.01s29.36.14,29.36.14l1.64,5.86Z"/>
      <path class="cls-6" d="M127.15,117.2c.33-.02.67,0,1,0,.94,0,1.65.93,2,1l-1,2c-.33-.01-.67.02-1,0-.2-.01-.84-.93-1.6-.95-4.56-.09-8.72,1.06-12.4,3.95-.26-.12-.69.11-1,0-.27-.1-.66.07-1,0-4.4-.95-3.95.04-6,0s-4.01.07-6,0v-3c4.12,0,9.09,1.27,12.38.96,4.14-.38,10.12-3.68,14.62-3.96Z"/>
      <g>
        <path class="cls-9" d="M24.15,44.2c.12,2.21.34,6.01,0,8-.92,5.37-2.97,12.05-4,18-1.17,6.75-1.91,13.59-3.02,20.36l-1.98-1.36c.06-.08.12-1.66,0-2-.48-1.4-1.11-.74-2-1-.56-.16-1.47.17-2,0-6.26-2.02-14.13-3.62-10-12,3.75,1.57,8.03.9,12,2,.66.18,1.33.74,2,1l.5.98.5-.98c-.76-4.48.76-8.83,1-13,.19-3.27-.29-6.78,0-10,.06-.66-.06-1.34,0-2s-.07-1.35,0-2c.79-7.7,3.73-15.59,5-23,2.04,4.17.76,9.93.96,14.58.06,1.3,1.03,2.27,1.04,2.42Z"/>
        <path class="cls-11" d="M125.15,28.2c1.76,1,1.65,2.8,2.04,4.46,3.59,15.35,4.76,29.73,3.96,45.54,2.01.79,2.6-1.88,2.99-1.99,3.14-.95,8.71-.11,12-2,.99,2.68,1.67,4.76.82,7.83-2.73,1.84-6.04,1.74-8.89,2.64-1.03.32-1.66,1.44-1.93,1.53-.3.1-.7-.1-1,0-.7.24-2.1-.18-3,0,.05,1.99-.1,4.02,0,6.01-1.8-.46-1.59-1.68-2-3-1.86-5.95-2.09-18.35-3.06-25.48-.29-2.11-1.9-2.37-1.94-2.52-.57-2.18.29-6.35,0-9-.18-1.64-.99-3.79-1-4-.03-1,.01-2,0-3,0-.67.01-1.33,0-2-.08-4.76,1.04-9.72,1-15Z"/>
        <path class="cls-12" d="M22.15,70.2c-1.03,6.83-3.47,14.22-1,21h-1c-2.15,8.14-.98,17.72,0,26-2.94.18-4.66.7-5,4h-1c-.5-3.13-1.85-6.68-2-10l2.96-1.08.05-5.4c0-1.17-2.33-.19-3.01-.52-.14-.07-.12-2.25-1.93-2.46.05-.27.93-.4.93-.54,7.96,1.32,2.08-2.32,2-2.66-.29-1.23-.2-8.64.25-9.15.4-.45,1.67-.08,1.75-.19l1.98,1.36c1.11-6.77,1.85-13.61,3.02-20.36h2Z"/>
        <path class="cls-8" d="M128.15,20.2c.69,5.98,1.17,13.62,2.17,20.33.56,3.77.91,8.38,2.83,11.67.03.33-.03.67,0,1,.54,6.65,1,12.13,1,19v4c-.39.12-.98,2.79-2.99,1.99.8-15.81-.37-30.19-3.96-45.54-.39-1.66-.29-3.46-2.04-4.46,0-.13-1.01-1.13-1.04-2.42-.12-4.39-1.08-11.35,2.04-14.58,1.11,4,1.52,4.86,2,9Z"/>
        <path class="cls-15" d="M123.15,6.2h-1c-1.13-1.46-2.76-.74-4-1C97.33.88,50.8-.15,30.15,4.2c-.95.2-2.93,1.44-4,2-.68.36-2.47.31-3,1,2.57-3.11,4.69-3.88,8.74-4.76C49.5-1.41,74.64.21,92.66,1.19c7.92.43,19.28-.39,26.73,2.28,2.7.96,2.46,1.82,3.76,2.73Z"/>
        <path class="cls-2" d="M123.15,6.2c.86.61,2.26.46,3.08,1.7,1.33,2.02-.12,3.14-.08,3.3-3.12,3.23-2.16,10.19-2.04,14.58.03,1.29,1.04,2.29,1.04,2.42.04,5.28-1.08,10.24-1,15-2.69.02-2.82-1.18-3.06-3.45-1.17-11.18-1.3-22.54,1.06-33.55h1Z"/>
        <path class="cls-17" d="M22.15,13.2c-2.72,10.58-4.13,21.17-5.51,32-.19,1.51-1.46,3.98.51,5-.07.65.06,1.34,0,2h-3c1.78-12.27,2.65-27.7,6.11-39.39.79-2.68,1.12-3.46,2.89-5.61-.88,1.14-.64,4.62-1,6Z"/>
        <path class="cls-10" d="M17.15,52.2c-.06.66.06,1.34,0,2h-2s-.04,9.4-.04,9.4l2.04.6c-.24,4.17-1.76,8.52-1,13h-1c-.67-.26-1.34-.82-2-1,0-1.67,0-3.33,0-5,.01-4.59.96-8.51,1-13.01h-2c.31-3.52,1.92-5.42,2-5.99h3ZM15.14,70.19v-3.99h-.98v3.99h.98Z"/>
        <path class="cls-16" d="M136.15,71.2c2.11-.34,8.4-.19,9.78,1.25.46.48.08,1.37.22,1.75-3.29,1.89-8.86,1.05-12,2v-4c.76.08,1.66-.95,2-1Z"/>
        <path class="cls-16" d="M12.15,71.2h1c0,1.67,0,3.33,0,5-3.97-1.1-8.25-.43-12-2,2.27-4.61,6.71-2.7,11-3Z"/>
        <path class="cls-17" d="M133.15,52.2c-1.93-3.29-2.27-7.9-2.83-11.67-1-6.71-1.47-14.35-2.17-20.33,3.26,10.34,4.05,21.27,5,32Z"/>
        <path class="cls-15" d="M13.15,86.2l2,1c.12.34.06,1.92,0,2-.09.11-1.35-.26-1.75.19-.45.51-.53,7.92-.25,9.15.08.34,5.96,3.97-2,2.66-.03-4.99.02-10.01,0-15,.53.17,1.44-.16,2,0Z"/>
        <path class="cls-17" d="M136.15,71.2c-.34.05-1.24,1.08-2,1,0-6.87-.46-12.35-1-19,4.85,3.95-.25,13.03,3,18Z"/>
        <path class="cls-15" d="M12.15,104.2c.68.33,3.02-.65,3.01.52l-.05,5.4-2.96,1.08h-1c.4-.83-1.05-3.45,1.99-3.02l-2.04-1.5,1.05-2.48Z"/>
        <path class="cls-17" d="M12.15,58.2h2c-.04,4.49-.98,8.41-1,13h-1c.26-4.24-.37-8.82,0-13Z"/>
        <path class="cls-12" d="M28.15,50.2c-.2.07-2.91,2.81-3,3l-1-1c.34-1.99.12-5.79,0-8,.74-1.64,2.83-1.52,3.07-3.46,1.32-10.94-1.38-23.52-1.07-34.54,1.07-.56,3.05-1.8,4-2,.12,15.51,1.71,30.68-2,46Z"/>
        <path class="cls-2" d="M26.15,6.2c-.32,11.03,2.38,23.61,1.07,34.54-.23,1.94-2.33,1.82-3.07,3.46,0-.15-.98-1.12-1.04-2.42-.2-4.64,1.08-10.41-.96-14.58.71-4.17,2.15-10.25,0-14,.36-1.38.12-4.86,1-6,.53-.69,2.32-.64,3-1Z"/>
        <path class="cls-10" d="M22.15,27.2c-1.27,7.41-4.21,15.3-5,23-1.97-1.01-.71-3.48-.51-5,1.39-10.83,2.79-21.43,5.51-32,2.15,3.75.71,9.83,0,14Z"/>
        <path class="cls-2" d="M25.15,53.2c-1.52,3.11-2.4,12.99-3,17h-2c1.03-5.95,3.08-12.63,4-18l1,1Z"/>
        <path class="cls-17" d="M17.15,54.2c-.29,3.22.19,6.73,0,10l-2.04-.6.04-9.41h2Z"/>
        <path class="cls-12" d="M15.15,87.2l-2-1c.89.26,1.52-.4,2,1Z"/>
        <polygon class="cls-17" points="15.15 77.2 16.15 77.2 15.65 78.18 15.15 77.2"/>
        <path class="cls-12" d="M122.15,6.2c-2.35,11.01-2.23,22.37-1.06,33.55.24,2.26.37,3.46,3.06,3.45.01.67,0,1.33,0,2-1.32.48-.94,1.91-1,3-.07,1.33.05,2.67,0,4-.37.13-.79,1-1,1-.33,0-.67.02-1,0-.31-.57-1.83-2.93-2-3,1.97-.98.52-3.36.32-4.81-.75-5.59-2.09-12.19-2.37-17.65-.39-7.65,1.06-14.96,1.04-22.54,1.24.26,2.87-.46,4,1Z"/>
        <path class="cls-2" d="M132.15,92.2c.13,2.62.07,3.42,0,6-.06,2.33.06,4.67,0,7,0,.13-.85.64-.86,1.46-.03,3.23,1.73,7.78.86,11.54-.58-.14-1.39.13-2,0-.35-.07-1.06-1-2-1,2.16-8.23.52-17.48,1-26,.05-.85.04-1.73,1-2,.41,1.32.2,2.54,2,3Z"/>
        <path class="cls-10" d="M130.15,89.2c-.96.27-.95,1.15-1,2h-1c-.05-9.72-2.21-19.45-4-29l1-1c.04.15,1.65.41,1.94,2.52.98,7.13,1.21,19.53,3.06,25.48Z"/>
        <path class="cls-10" d="M135.15,86.2c.42,5.53-1.35,10.57-.01,16l-2.99-4c.07-2.58.13-3.38,0-6-.1-1.99.05-4.02,0-6.01.9-.17,2.3.25,3,0Z"/>
        <path class="cls-2" d="M125.15,52.2c.29,2.65-.57,6.82,0,9l-1,1c-.27-1.46-1.23-4.66-2-6,0-.33,0-.67,0-1v-2c.21,0,.63-.87,1-1,.48-.17,1.38.12,2,0Z"/>
        <path class="cls-8" d="M125.15,52.2c-.62.12-1.52-.17-2,0,.05-1.33-.07-2.67,0-4h1c0,.21.82,2.36,1,4Z"/>
        <path class="cls-2" d="M124.15,48.2h-1c.06-1.09-.32-2.52,1-3,.01,1-.03,2,0,3Z"/>
        <path class="cls-2" d="M127.15,91.2c.86,8.71-.23,17.23,0,26-4.5.28-10.48,3.58-14.62,3.96-3.29.31-8.26-.97-12.38-.96-16.83,0-41.46-1.93-57,1-3.27-.21-6.76.3-10,0-3.38-1.23-8.59-3.67-12-4l-1-26h1c6.16.17,12.37-.21,18.54-.04,1.31.04,2.59,1.04,2.96,1.04h67c4.98,0,11.65-1,17.5-1ZM26.14,97.19v-1.48s-1.5-1.5-1.5-1.5l.52,2.97h.98ZM41.65,99.2c4.78.36,9.72-.26,14.5,0l-.59-3.09-27.41-1.91c.54,5.31,6.85,3.52,10.53,3.96,1.3.15,2.5,1,2.96,1.04ZM121.15,94.21c-1.12-.82-26.27,1-27.56,1.93-1.01.73-1.71,1.72-1.44,3.05.95.84,22.29-.65,25.31-1.23,2.42-.47,2.92-1.53,3.69-3.75ZM123.65,94.2v1c.65-.33.65-.67,0-1ZM122.65,96.2v1c.65-.33.65-.67,0-1ZM26.64,98.22c1.01,3.56,2.02,7.53,5.02,9.96-.28-3.77-2.64-7.15-5.02-9.96ZM119.13,106.19l2.53-7.98c-1.41,1.14-7.29,8.63-2.53,7.98ZM113.13,117.19l3.53-9.98c-1.45,1.25-8.36,10.59-3.53,9.98ZM34.13,109.2l-1.89,1.39,3.9,5.61-2.01-7ZM36.65,117.2v1c.65-.33.65-.67,0-1ZM110.65,118.2v1c.65-.33.65-.67,0-1Z"/>
        <path class="cls-11" d="M47.15,50.2v1c-3.47.11-16.64.43-18.59,1.91-3.41,4.18-2.48,10.42-3.41,15.09-.42,2.12-.66,3.91-1,6-.32,1.95-3.56,13.52-3,13.99,1.59.2,3.49-.25,5,0,1.62.27,2.47.84,5,1,1.98.13,4.01-.07,6,0,1.66.06,3.34-.07,5,0,17.6.74,38.11,2.41,55.45-.05,1.7-.24,2.91-2.06,5.05-2.06,2.03,0,3.53,1.82,5.95,2.16,2.71.39,12.16.29,14.6-.5,6.16-2,.73-7.16.22-10.33-.67-4.12.07-10.75-.26-15.22-.06-.77-.84-2.39-1-4-.1-.97,0-2.01,0-3,.77,1.34,1.73,4.54,2,6,1.79,9.55,3.95,19.28,4,29h-1c-5.85,0-12.52,1-17.5,1H42.65c-.38,0-1.65-1-2.96-1.04-6.17-.18-12.38.2-18.54.04-2.47-6.78-.03-14.17,1-21,.6-4.01,1.48-13.89,3-17,.09-.19,2.8-2.93,3-3,3.11-1.12,14.78.17,19,0Z"/>
        <path class="cls-17" d="M21.15,117.2c-.32-.03-.68-.02-1,0-.98-8.28-2.15-17.86,0-26l1,26Z"/>
        <path class="cls-2" d="M118.15,5.2c.02,7.58-1.43,14.89-1.04,22.54.28,5.46,1.62,12.07,2.37,17.65.19,1.44,1.65,3.83-.32,4.81-.99-.38-7.77-.95-9.45-1.05-20.58-1.25-42.07.22-62.55,1.05-4.22.17-15.89-1.12-19,0,3.71-15.32,2.12-30.49,2-46C50.8-.15,97.33.88,118.15,5.2Z"/>
        <rect class="cls-17" x="14.16" y="66.2" width=".98" height="3.99"/>
        <path class="cls-10" d="M132.15,105.2l2-1.5c1.76,8.01,3.31,12.17,3,21.04-.07,1.92,1.02,4.01-2,3.46-.35-2.99.25-6.27-.97-9.35-.23-1.22-1.39-.49-2.03-.65.87-3.76-.89-8.31-.86-11.54,0-.82.86-1.33.86-1.46Z"/>
        <path class="cls-5" d="M119.15,50.2c.17.07,1.69,2.43,2,3-7.11-.4-12.84-2.17-21-2-9.3.28-18.71-.38-28,0-2.57.1-5.57-.32-8,0-5.65.13-11.36-.18-17,0v-1c20.48-.83,41.97-2.29,62.55-1.05,1.68.1,8.47.67,9.45,1.05Z"/>
        <path class="cls-11" d="M122.15,55.2c-.38-.24-.82-.58-1-1-.12-.3.13-.76,0-1,.33.02.67,0,1,0v2Z"/>
        <path class="cls-8" d="M129.15,91.2c-.48,8.52,1.16,17.77-1,26-.33,0-.67-.02-1,0-.23-8.77.86-17.29,0-26h2Z"/>
        <path class="cls-16" d="M121.15,54.2c.18.42.62.76,1,1,0,.33,0,.67,0,1,0,.99-.1,2.03,0,3-2.19-.2-4.24-.91-6.46-1.04-16.64-1-66.21,10.12-76.08,24-1.6,2.24-2.45,4.26-2.46,7.04-1.99-.07-4.02.13-6,0-.67-3.89,1.42-6.9,3.96-9.54,10.76-11.16,51.09-23.92,66.77-26.22,6.45-.95,12.77,1.64,19.26.76Z"/>
        <path class="cls-5" d="M121.15,94.21c-.77,2.23-1.26,3.28-3.69,3.75-3.02.58-24.36,2.07-25.31,1.23-.27-1.33.43-2.32,1.44-3.05,1.29-.93,26.44-2.76,27.56-1.93Z"/>
        <path class="cls-5" d="M41.65,99.2c-.46-.03-1.66-.89-2.96-1.04-3.69-.44-10,1.35-10.53-3.96l27.41,1.91.59,3.09c-4.78-.26-9.72.36-14.5,0Z"/>
        <path class="cls-10" d="M113.13,117.19c-4.83.62,2.07-8.73,3.53-9.98l-3.53,9.98Z"/>
        <path class="cls-10" d="M119.13,106.19c-4.76.65,1.12-6.84,2.53-7.98l-2.53,7.98Z"/>
        <polygon class="cls-8" points="34.13 109.2 36.14 116.2 32.24 110.59 34.13 109.2"/>
        <path class="cls-8" d="M26.64,98.22c2.38,2.81,4.74,6.19,5.02,9.96-3-2.43-4.01-6.4-5.02-9.96Z"/>
        <polygon class="cls-8" points="26.14 97.19 25.16 97.19 24.64 94.22 26.14 95.71 26.14 97.19"/>
        <path class="cls-10" d="M123.65,94.2c.65.33.65.67,0,1v-1Z"/>
        <path class="cls-10" d="M122.65,96.2c.65.33.65.67,0,1v-1Z"/>
        <path class="cls-8" d="M36.65,117.2c.65.33.65.67,0,1v-1Z"/>
        <path class="cls-10" d="M110.65,118.2c.65.33.65.67,0,1v-1Z"/>
        <path class="cls-3" d="M123.15,63.2c.33,4.47-.41,11.09.26,15.22.52,3.18,5.94,8.33-.22,10.33-2.44.79-11.89.89-14.6.5-2.41-.34-3.92-2.16-5.95-2.16-2.14,0-3.35,1.82-5.05,2.06-17.34,2.45-37.85.78-55.45.05-.1-3.2,3.27-7.93,5.51-9.99,9.71-8.96,49.8-18.2,62.99-18,3.69.06,8.63,1.8,12.5,2Z"/>
        <path class="cls-4" d="M121.15,53.2c.13.24-.12.7,0,1-6.49.88-12.81-1.7-19.26-.76-15.69,2.3-56.01,15.06-66.77,26.22-2.54,2.64-4.63,5.65-3.96,9.54-2.53-.16-3.38-.73-5-1-.88-9.29,12.63-16.82,19.97-20.53,11.22-5.67,23.74-7.86,35.15-12.89,1.69-.74,1.95-2.43,2.58-2.57,2.22-.48,13.51-.96,16.3-1.02,8.16-.17,13.89,1.6,21,2Z"/>
        <path class="cls-18" d="M100.15,51.2c-2.79.06-14.08.54-16.3,1.02-.63.14-.89,1.82-2.58,2.57-11.41,5.02-23.93,7.22-35.15,12.89-7.34,3.71-20.85,11.24-19.97,20.53-1.51-.25-3.41.19-5,0-.57-.47,2.67-12.04,3-13.99,7.94-1.02,14.4-8.21,21.8-11.7s16.47-4.6,23.22-7.78c1.72-.81,3.04-1.24,2.98-3.52,9.29-.38,18.7.28,28,0Z"/>
        <path class="cls-5" d="M122.15,59.2c.16,1.61.94,3.23,1,4-3.87-.2-8.81-1.94-12.5-2-13.19-.2-53.28,9.04-62.99,18-2.23,2.06-5.61,6.8-5.51,9.99-1.66-.07-3.34.06-5,0,.01-2.79.86-4.8,2.46-7.04,9.87-13.88,59.44-25,76.08-24,2.22.13,4.27.84,6.46,1.04Z"/>
        <path class="cls-6" d="M47.15,51.2c5.64-.18,11.35.13,17,0-3.53.46-19.96,6.13-23.73,7.77-5.54,2.42-9.38,7.78-15.27,9.23.92-4.67,0-10.91,3.41-15.09,1.96-1.48,15.12-1.8,18.59-1.91Z"/>
        <path class="cls-14" d="M72.15,51.2c.06,2.28-1.26,2.71-2.98,3.52-6.74,3.18-16.11,4.43-23.22,7.78s-13.86,10.68-21.8,11.7c.34-2.09.58-3.88,1-6,5.9-1.45,9.73-6.81,15.27-9.23,3.77-1.64,20.19-7.31,23.73-7.77,2.43-.32,5.43.1,8,0Z"/>
      </g>
      <path class="cls-13" d="M129.15,120.2c1,.04,2.76-1.23,2.99-1l-1.99,2.99,3.06.55-.07,7.46-1,1c-1.77,1.52-4.33.61-6,1-.02-4.26,3.17-7.25,2-12,.33.02.67-.01,1,0Z"/>
      <path class="cls-9" d="M100.15,123.2c1.99.07,4-.03,6,0-.08,3.04-1.43,10.93-4.26,12.31-7.46,3.64-24.19,2.26-32.74,2.69l-22.01-2.49c-3.7-3.45-4.3-8.78-4-13.51,17.16.34,34.39-.43,51.56-.03,2.05.05,3.93.99,5.45,1.04Z"/>
    </g>
  </g>
</svg>