<?xml version="1.0" encoding="UTF-8"?>
<svg id="_图层_2" xmlns="http://www.w3.org/2000/svg" version="1.1" viewBox="0 0 148.8 212.1">
  <!-- Generator: Adobe Illustrator 29.3.0, SVG Export Plug-In . SVG Version: 2.1.0 Build 146)  -->
  <defs>
    <style>
      .st0 {
        fill: #838286;
      }

      .st1 {
        fill: #2c2a31;
      }

      .st2 {
        fill: #434146;
      }

      .st3 {
        fill: #030303;
      }

      .st4 {
        fill: #2d2c2d;
      }

      .st5 {
        fill: #6e6e75;
      }

      .st6 {
        fill: #191818;
      }

      .st7 {
        fill: #babab8;
      }

      .st8 {
        fill: #1e1c1d;
      }

      .st9 {
        fill: #c3c4c4;
      }

      .st10 {
        fill: #252324;
      }

      .st11 {
        fill: #d1d1cf;
      }

      .st12 {
        fill: #d49b2c;
      }

      .st13 {
        fill: #edb948;
      }

      .st14 {
        fill: #5b5a5f;
      }

      .st15 {
        fill: #363337;
      }

      .st16 {
        fill: #9d9d9c;
      }

      .st17 {
        fill: #4f4e52;
      }
    </style>
  </defs>
  <path class="st5" d="M33.7,3.1c-.6-3.1,1.5-1.9,3.5-2,25.3-1.6,50.8-1.4,76.1,0C115.2,1.2,117.3,0,116.8,3.1c-5.2-.7-13.8-2-18.5-2h-45c-4.9,0-14.1,1.3-19.5,2h-.1Z"/>
  <path class="st6" d="M13.7,171.1c.2,1.2-.3,2.7.2,4.2,1,3.1,8.4,6.3,11.5,7.5,28.4,11.3,68.3,10.9,97.1.5,5.2-1.9,15.2-5.2,11.2-12.3,1.2-1.9,1.5-5.2,3-7v7c-.2,8,1.3,21.5,0,28.5-.7,3.7-3.2,3.3-5,4.5h-11.3c-.6-.1-1.4-1.4-1.7-2-.2-.4.6-2.1-.5-2l-3.5,2c-4,0-7.4,1.7-11.5,2-14.9,1.1-38.1,1-53.1,0-5.2-.3-15.2-3.4-19-3.1-2.2.1-1.6,2.4-3.1,3-2.8,1-8.1-.4-11.4.1-1.1-.7-3.2-.6-3.8-1.2-1.9-1.9-1.5-32.8-1.2-37.8,0-.9,0-1.7,1-2,.3,2.9.4,5,1,8h.1ZM58.7,197.1l-10,.5c0,2.9,7.5,3.1,10,3.5,1.3.2,2.5.9,4.4,1,5.1.4,20.6.8,25.1,0,3.6-.7,4.4-7.4-.9-8.1-4.5-.6-21.9-.7-26,0-2.4.4-2.1,1.1-2.5,3h-.1Z"/>
  <path class="st12" d="M25.7,87.1c-3.4,12.4-4.1,26-6.9,38.6-.5,2.1.6,1.2,1.9,1.4v1c0,.2-1,1.1-1,2.4-.3,8.9,1.9,19.6,3,28.6-2.2-.4-2.4.2-4,1-.3.2-.7.7-1,1s-.9.7-1,1c-1.7,3.7-1.1,6.2,0,10-.6-.4-2.2-.3-3-1-.6-3-.7-5.1-1-8-.6-5.6-1.6-11.2-1-17,1.7-5.8.2-3.2,0-8.5s.2-11,0-16.5c5.4,2.2.9,4.8,5,5,.7-7.7,2.5-15.1,3.9-22.7.3-1.7-1-3.1-.9-3.3,0-.7,3.5-9,4-13,0,0,2,0,2,0Z"/>
  <path class="st12" d="M136.7,146.1v1c.6,3.7-1.3,9,1,12,0,1.8-.9,3.6-1,5-1.5,1.8-1.8,5.1-3,7-3.7,5.9-19.4,9.4-26.2,11.3-3,.9-1.6,1.7-5.8,1.7l5-17c-21.3,1.7-42.8,1.2-64,0-.3,6.1,3,11.5,5,17-3.2-.3-5.3.2-6-4l-1.4,1.9c-7.3-2.4-14.8-4.1-21.6-7.9l-2-12c.4-.3.7-.6,1-1,.2-.2.9-1,1-1,.5-.1,1.4,0,2,0,.6,4.8-1.8,9.5,2,13s11.7,4.6,16.5,7c1.7-.9-.4-2.5-.5-3-.9-4.2-2.9-12.1-7-14v-1c.8.1,3,.3,3-.5l-10-30c2.7-1.8.8,1.1,4,1.5v1l9.5,28c.7.9,13.3,1.9,16,2,18.4.9,38.7.4,56.8-2l11.7-28-8.1,26.4,4.1,1.6c0,0-1.2,1.4-2,2-2,1.5-1.4,2.3-2,3,0,0-1.5-.3-2.1.6-1.3,2.1-2.1,6.8-2.9,9.4-.2.6-2.3,2.1-.5,3l18.2-6.3,1.3-12.7,1-1h-2l2-31,1,10.5-2,17.1,2.9,2.4c0-10.9,2-22.1,1-33,1.8-1.2,1.5-3.4,3-5l-1.1,21.5c.2,3,2,3.3,2.1,3.5h.1Z"/>
  <path class="st10" d="M131.7,123.1c-2.6-22.1-9.4-43.2-7-66l2.5,12,2.5,5.5-4-31.5c1.9,1,2.6,5.3,3.1,7.4,1.2,5,1.5,10.2,2.7,15.3l1.1,47.4c1.5.5,1.9-1,2-1,3.5-1,7.3-2,11-2v-2c1.4,1.2,2.4,1.6,2.8,3.7,1.7,8.5-5.5,7.2-10.8,8.3-1.2.2-1.1,0-2,1-1.5,1.6-1.2,3.8-3,5,0-.2-.8-1.5-1-3h0Z"/>
  <path class="st5" d="M135.7,98.1l-6-64c4.3,22.1,6.5,41.3,6,64Z"/>
  <path class="st5" d="M13.7,108.1h-2v-1c.2-4.7,2-12.9,2-17.5v-19c0-1.7,1.9-6.2,1.2-8.8l.8-.7c-.8,15.7-.6,31.5-2,47Z"/>
  <path class="st2" d="M145.7,108.1v2c-3.7,0-7.5,1.1-11,2-.9-1.9.9-4.2,1-5,4.9-.6,6-2.5,10,1Z"/>
  <path class="st14" d="M15.7,60.1l5-35c-.6,4.8-.5,10.3-1.1,15.4-.8,6.5-2.2,13.3-3.9,19.6Z"/>
  <path class="st2" d="M11.7,107.1v1c0,.3,1.4,1.8,1,3l-11-2c2.3-3.9,6.3-3.3,10-2Z"/>
  <path class="st5" d="M137.7,120.1c-1.3,8.2-1.9,18-1,26,0-.2-1.9-.5-2.1-3.5l1.1-21.5c.9-.9.8-.8,2-1Z"/>
  <path class="st0" d="M12.7,163.1c-1,.3-.9,1.1-1,2-1-.3-.9-1.1-1-2-.4-5.3-.4-12.1,1-17-.6,5.8.4,11.4,1,17Z"/>
  <path class="st5" d="M137.7,159.1c-2.3-3-.4-8.3-1-12,1.7,2.9,1.2,8.4,1,12Z"/>
  <path class="st13" d="M116.7,3.1h2l3,76c-3,.5-1.6-.8-2.1-2.3-3.7-10.7,1.3-15.2-13.4-14.7s-28,2.1-42,3c-8.3.6-19-.2-26.9,1.1-6.5,1-5.1,9.7-4.5,14.9-3.5.5-6.1,2.6-7,6h-2c.1-.9-.1-2,0-3l2.8-3.7c1-23,5.4-50.5,4.2-73.3,0-.9-1.6-2.4,0-4,.8-.2,2,0,3,0,5.4-.7,14.6-2,19.5-2h45c4.7,0,13.3,1.3,18.5,2h0ZM117.7,5.1c-20-1.9-40.4-2.7-60.5-2-6.4.2-16,.3-22,1-1.5.2-3.1.2-3.5,2l86-1ZM48.7,7.1h-1v33h1V7.1ZM44.7,8.1h-1v36h1V8.1Z"/>
  <path class="st12" d="M129.7,34.1l6,64c0,2.9.3,6.2,0,9,0,.8-1.9,3.1-1,5-.1,0-.5,1.5-2,1l-1.1-47.4c-1.2-5-1.5-10.2-2.7-15.3-.5-2-1.2-6.3-3.1-7.4l4,31.5-2.5-5.5-2.5-12c-2.4,22.8,4.4,43.9,7,66h-2c0-7.2-4.1-29.2-6.5-36-.4-1.2-.6-2.4-1.5-3.5-4.1-5.2-24.9-1.5-31.5-1.4-13,.2-26.1.2-39.1,0-5.8,0-12.4-2-18.5-1.1-.6-5.3-2-13.9,4.5-14.9,7.9-1.2,18.6-.5,26.9-1.1,13.9-.9,28-2.5,42-3,14.8-.6,9.7,3.9,13.4,14.7.5,1.5-.9,2.9,2.1,2.3l-3-76s.3-.9,1-.6c6.9,9.4,7.8,20.5,10,31.6h.1Z"/>
  <path class="st12" d="M23.7,84.1c.8-8.3,1.5-16.6,1-25l-5,16-.9-1.4c1.2-9.4,5.3-19.8,5.9-29.1.1-2-.2-1.6-2-1.5-1.1,1.1-5.7,27-6,30.5-.9,11.2,1.7,26.8,0,37-.2,1.2-.5,1.8-1.5,2.5-1.8-1.3-1.7-3.1-1.5-5,1.4-15.4,1.2-31.3,2-47v-1c1.7-6.3,3-13.2,3.9-19.6.6-5,.6-10.6,1.1-15.4v-2c3.2.6,1.6-1.6,2.1-3.4,1.6-6,1.4-10.7,7.9-12.6,1.2,22.8-3.2,50.3-4.2,73.3l-2.8,3.7h0Z"/>
  <path class="st8" d="M13.7,108.1c-.2,1.9-.3,3.7,1.5,5,1-.7,1.3-1.3,1.5-2.5,1.7-10.2-.9-25.8,0-37,.3-3.5,4.9-29.4,6-30.5,1.8,0,2.1-.5,2,1.5-.6,9.4-4.7,19.7-5.9,29.1l.9,1.4c2.6,3.1-.6,6.4-.9,9.6-.4,3.9-.4,8.1-.8,12.2-.2,1.8-1.4,3.6,1.7,3.2,0,.3,1.2,1.7.9,3.3-1.4,7.5-3.3,15-3.9,22.7-4.1-.2.4-2.8-5-5s-15.9-2-10-12l11,2c.4-1.2-1-2.6-1-3,0,0,2,0,2,0Z"/>
  <path class="st14" d="M30.7,3.1c-1.6,1.6,0,3.1,0,4-6.5,2-6.3,6.6-7.9,12.7-.5,1.8,1.1,4-2.1,3.4.9-6.9,3.5-13.4,7.5-19.1.7-.8,1.6-.7,2.5-.9h0Z"/>
  <path class="st15" d="M23.7,84.1c-.1,1,.1,2.1,0,3-.5,4-3.9,12.3-4,13-3.1.4-1.9-1.3-1.7-3.2.4-4.2.4-8.4.8-12.2.4-3.1,3.5-6.5.9-9.6l5-16c.5,8.4-.1,16.7-1,25Z"/>
  <path class="st12" d="M117.7,5.1l-86,1c.4-1.8,2-1.9,3.5-2,6-.7,15.6-.8,22-1,20.2-.7,40.5.2,60.5,2.1h0Z"/>
  <rect class="st12" x="43.7" y="8.1" width="1" height="36"/>
  <rect class="st12" x="47.7" y="7.1" width="1" height="33"/>
  <path class="st13" d="M131.7,123.1c.2,1.5,1,2.8,1,3,1,10.9-.9,22.1-1,33l-2.9-2.4,2-17.1-1-10.5-2,31c-2.3,0-7,.9-9,2l-4.1-1.6,8.1-26.4-11.7,28c-18.1,2.5-38.4,2.9-56.8,2-2.7-.1-15.2-1.2-16-2l-9.5-28c5.2,7.1,16.9,3.2,24.5,6l-1.5-5s-.4-1.8.7-2c1.9-.5,5.2,1,6.3-1,12,.3,25,.4,37,0l.5,1,.5-1c10.9-.4,21.8-1,32.4-3.9,1.2-.7.6-3.8.6-5.1h2-.1ZM123.2,132.1v1c.7-.3.7-.7,0-1ZM119.7,133.1c-4.2,1-21.3,1.2-23.1,3.4-.9,1.1-1.1,2.2-.9,3.6,6.7-2.4,22.9,1.6,24-7Z"/>
  <path class="st15" d="M16.7,172.1c.4.2.8,1.4,2,2,6.8,3.8,14.3,5.5,21.6,7.9l1.4-1.9c.7,4.2,2.8,3.7,6,4,4.1.4,11.9,1,15.5,1h27c2.8,0,7.7-.9,11.5-1,4.2,0,2.8-.9,5.8-1.7,6.8-1.9,22.5-5.4,26.2-11.3,4,7.1-6,10.4-11.2,12.3-28.7,10.4-68.6,10.8-97.1-.5-3.1-1.2-10.5-4.4-11.5-7.5-.5-1.5,0-3-.2-4.2.8.7,2.4.6,3,1h0Z"/>
  <path class="st9" d="M58.7,201.1c.2-1.3-.2-2.8,0-4,.4-1.9,0-2.6,2.5-3,4.1-.7,21.6-.6,26.1,0,5.3.7,4.6,7.4.9,8.1-4.4.8-20,.4-25.1,0-2-.2-3.2-.9-4.4-1h0Z"/>
  <path class="st3" d="M58.7,197.1c-.2,1.2.2,2.7,0,4-2.5-.4-10-.6-10-3.5l10-.5Z"/>
  <path class="st6" d="M47.7,184.1c-2-5.5-5.3-10.9-5-17,21.2,1.2,42.7,1.7,64,0l-5,17c-3.8,0-8.8,1-11.5,1h-27c-3.6,0-11.4-.6-15.5-1h0ZM70.7,180.1c2.4,8.1,12.3-2.4,6.6-7.1-3.8-3.1-11.4,2.9-6.6,6.1v1Z"/>
  <path class="st13" d="M34.7,131.1v2c-1.8-.3-4.1.2-6,0-3.2-.4-1.3-3.3-4-1.5l10,30c0,.9-2.2.6-3,.5-3-.4-6.7-2.6-9-3-1.1-9-3.3-19.6-3-28.6,0-1.3,1-2.2,1-2.4,3.9,3.2,9.3,2.6,14,3h0Z"/>
  <path class="st9" d="M31.7,163.1c4.1,1.9,6.1,9.8,7,14-4.4,1.2-8.9-2-13-3l5-2-8,1c-3.8-3.5-1.4-8.2-2-13,1.1.1,10.1,2.6,11,3h0Z"/>
  <path class="st10" d="M34.7,133.1c3.2.5,14.7,3.5,17,2l1.5,5c-7.6-2.8-19.3,1.1-24.5-6v-1c1.9.2,4.2-.3,6,0Z"/>
  <path class="st11" d="M127.7,160.1h2l-1,1c-1.8,1.7-.7,4.8-1.3,7.3-1.5,6.4-8.6,5.6-8.7-1.3.2,0,.7-.9,1.6-1,2.2-.2,5.1,2.7,4.4-1l-8-1c.8-.6,1.9-1.9,2-2,2-1.1,6.7-2.1,9-2Z"/>
  <path class="st16" d="M128.7,161.1l-1.3,12.7-18.2,6.3c-1.8-1,.3-2.4.5-3l10-2c-.6-1.8-2.6-1.5-3.9-3.6-.8-1.4-1.3-2.8-1.1-4.4,1.3-.1,2.7.2,4,0,0,6.9,7.2,7.7,8.7,1.3.6-2.4-.6-5.5,1.3-7.3h0Z"/>
  <path class="st7" d="M116.7,164.1l8,1c.7,3.8-2.2.8-4.4,1-.8,0-1.4.9-1.6,1-1.3.2-2.7-.1-4,0-.2,1.6.3,3,1.1,4.4,1.3,2.1,3.3,1.8,3.9,3.6l-10,2c.8-2.6,1.7-7.2,2.9-9.4.6-.9,2-.6,2.1-.6.6-.7,0-1.5,2-3Z"/>
  <path class="st17" d="M22.7,159.1c2.3.4,6,2.6,9,3v1c-.9-.4-9.9-2.9-11-3-.6,0-1.5-.1-2,0,1.6-.8,1.8-1.4,4-1Z"/>
  <path class="st17" d="M16.7,162.1c.1-.3.7-.7,1-1-.3.4-.6.7-1,1Z"/>
  <path class="st17" d="M18.7,174.1c-1.2-.6-1.6-1.8-2-2-1.1-3.8-1.7-6.3,0-10l2,12Z"/>
  <path class="st17" d="M17.7,161.1c.3-.3.7-.8,1-1,0,0-.8.8-1,1Z"/>
  <path class="st0" d="M22.7,173.1l8-1-5,2c4.1,1,8.6,4.2,13,3,0,.5,2.2,2.1.5,3-4.8-2.4-12.6-3.3-16.5-7h0Z"/>
  <path class="st6" d="M129.7,123.1c0,1.2.6,4.4-.6,5-10.6,2.9-21.4,3.6-32.4,3.9h-1c-12,.4-25,.3-37,0-7.8-.2-16.3-.4-24-1-4.7-.4-10.1.2-14-3v-1c4.3.6,8.6.8,13,1,5.5.2,11.7-.3,17.5,0,8.1.4,19.2,4.3,26.6,2.6,9.7-2.3,20.1-3.6,30.4-3.6s8.5,3.8,17.1,0c5.6-2.4,2.3-3.9,1.7-7.8-1.3-8.2-2.5-16.2-4.2-24.2-.7-3.3,0-4.2-2-8-1-1.8-.2-3.3-3.5-4-4.3-.8-21.2-.6-26,0-1.1,0-2.7.3-3.4,1-6.3.9-12.9-1-19-1s-8.5.9-13,1c-4.9,0-23.2-.9-26,.5-3.3,1.6-3.4,10.4-4,13.5-.5,2.5-.6,4.9-1,7s-.6,4-1,6c-.4,2.5-1.4,5.4-2,9-.4,2.6-.8,4.2-1,7-1.3-.2-2.4.7-1.9-1.4,2.8-12.6,3.5-26.2,6.9-38.6.9-3.4,3.5-5.5,7-6,6.1-1,12.6.9,18.5,1.1,13,.2,26.1.2,39.1,0,6.6,0,27.4-3.7,31.5,1.4.9,1.1,1,2.3,1.5,3.5,2.4,6.8,6.5,28.8,6.5,36h-.3Z"/>
  <path class="st1" d="M122.7,95.1c1.8,8.1,2.9,16.1,4.2,24.2.6,3.9,3.9,5.4-1.7,7.8-8.5,3.7-10.5,0-17,0-10.3,0-20.7,1.3-30.4,3.6-7.4,1.7-18.5-2.1-26.6-2.6-5.8-.3-12,.2-17.5,0,4.7-17,26.5-23.5,41.8-27.7,15.8-4.3,30.7-7.1,47.2-5.3h0Z"/>
  <path class="st15" d="M120.7,87.1c2,3.8,1.3,4.7,2,8-16.5-1.8-31.4.9-47.2,5.3-15.2,4.2-37.1,10.7-41.8,27.7-4.4-.2-8.7-.4-13-1,.2-2.8.6-4.4,1-7,9.1-4.8,17-11.8,26.3-16.2,12.9-6,28.3-10.1,42-12.9,10.1-2.1,20.2-4.7,30.6-3.9h0Z"/>
  <path class="st2" d="M120.7,87.1c-10.4-.8-20.5,1.8-30.6,3.9-13.7,2.8-29.1,6.9-42,12.9-9.4,4.3-17.3,11.4-26.3,16.2.6-3.6,1.6-6.5,2-9,8-2.5,14.6-7.9,22.1-11.3,9.9-4.5,25.2-10.2,35.7-13.4,2.2-.7,5.8,0,6.1-.3.4-.4,0-1.7,0-1.9.7-.8,2.4-.9,3.4-1,4.8-.5,21.8-.8,26,0,3.3.6,2.6,2.1,3.5,4h0Z"/>
  <path class="st17" d="M87.7,84.1c-.2.2.3,1.5,0,1.9s-3.8-.3-6.1.3c-10.4,3.2-25.7,8.9-35.7,13.4-7.6,3.4-14.2,8.8-22.1,11.3.4-2,.6-3.9,1-6,6.2-1.7,11.2-5.9,17-8.5,7.1-3.2,16.7-5.4,23.2-8.8,2.2-1.2,4.6-1.4,3.8-4.7,6.1,0,12.7,1.9,19,1h0Z"/>
  <path class="st14" d="M68.7,83.1c.8,3.3-1.6,3.5-3.8,4.7-6.5,3.5-16.1,5.6-23.2,8.8-5.8,2.6-10.8,6.8-17,8.5.4-2.1.5-4.5,1-7,8.2-4.4,18-6.4,26.2-10.3,1.5-.7,4.2-1.4,3.8-3.7,4.5,0,9-1,13-1Z"/>
  <path class="st5" d="M55.7,84.1c.4,2.3-2.2,2.9-3.8,3.7-8.2,3.9-18,5.9-26.2,10.3.6-3.1.7-11.9,4-13.5,2.8-1.4,21.2-.4,26-.5Z"/>
  <path class="st12" d="M58.7,132.1c-1.2,2-4.5.5-6.3,1-1,.3-.6,2-.7,2-2.3,1.5-13.8-1.5-17-2v-2c7.7.6,16.2.8,24,1Z"/>
  <path class="st12" d="M95.7,132.1h1l-.5,1-.5-1Z"/>
  <path class="st4" d="M119.7,133.1c-1.1,8.5-17.3,4.6-24,7-.2-1.4,0-2.4.9-3.6,1.8-2.2,18.9-2.4,23.1-3.4Z"/>
  <path class="st12" d="M123.2,132.1c.7.3.7.7,0,1v-1Z"/>
  <path class="st8" d="M70.7,180.1v-1c-.2-2.9.2-5.4,3.5-6,6.1-.6,4.6,12.2-3.5,7Z"/>
  <path class="st5" d="M70.7,180.1c8.1,5.2,9.7-7.6,3.5-7-3.3.7-3.7,3.1-3.5,6-4.8-3.2,2.8-9.2,6.6-6.1,5.7,4.7-4.2,15.2-6.6,7.1Z"/>
</svg>