<?xml version="1.0" encoding="UTF-8"?>
<svg id="_图层_2" data-name="图层 2" xmlns="http://www.w3.org/2000/svg" viewBox="0 0 115.43 177.67">
  <defs>
    <style>
      .cls-1 {
        fill: #9e281e;
      }

      .cls-2 {
        fill: #5298cb;
      }

      .cls-3 {
        fill: #751e18;
      }

      .cls-4 {
        fill: #2a2a2c;
      }

      .cls-5 {
        fill: #1c1c1d;
      }

      .cls-6 {
        fill: #414045;
      }

      .cls-7 {
        fill: #39719d;
      }

      .cls-8 {
        fill: #d4ceb9;
      }

      .cls-9 {
        fill: #252424;
      }

      .cls-10 {
        fill: #38373a;
      }

      .cls-11 {
        fill: #959698;
      }

      .cls-12 {
        fill: #616062;
      }

      .cls-13 {
        fill: #545256;
      }

      .cls-14 {
        fill: #434e5f;
      }

      .cls-15 {
        fill: #47474f;
      }
    </style>
  </defs>
  <g id="_图层_1-2" data-name="图层 1">
    <path class="cls-2" d="M77.16,3.34c2.18.3,3.88.61,6,1,9.58,3.94,15.59,12.84,15.04,23.48-.08,1.5.36,1.8-1.41,1.41-3.54-.78-8.44-3.58-12.63-4.89-18.46-5.77-40.53-6.53-58,2-1.15.35-1.89.59-3,1-2.13.78-2.14.78-4,2-.67,0-1.33.02-2,0-.2-2.73.58-5.35,1-8,.44-2.8.33-5.39,2-8,2.64-2.95,7.24-5.65,11-7,2.36-.85,4.92-.17,6.03-.6,4.8-1.85,6.1-3.8,12.97-4.4,9.58-.84,17.76.72,27,2Z"/>
    <path class="cls-2" d="M16.16,20.34c.07.18.91.48,1,1-1.89,2.34-.9,6.82-1,10-1.8,1.46-1.69,2.96-2.99,3v-8c.68-3.66.86-3.24,1.99-6h1Z"/>
    <path class="cls-2" d="M41.16,24.34c-7.5,1.49-16.07,3.48-21.92,8.6,4.54,8.71,4.23,17.14,4.92,26.4,1.04,13.98,1.47,28.04,2.51,42.01,2.32.67,1.43-2.15,1.49-3.5.57-12.77-2.33-26.11-3-38.51-.16-2.93-.03-5.97.1-8.9,5.01-.72,9.88-2.44,14.9-3.1,8.03-1.05,18.49-1.59,26.54-1.04,6.84.46,13.62,2.96,20.46,3.04.33,0,.67.03,1,0,3.07,1.27,2.16,5.9,2,9-.57,11.05-2.44,23.12-3.04,34.46-.08,1.46-.3,8.3.55,8.55,2.32.67,1.44-2.15,1.49-3.5.52-13.19,1.07-26.36,2-39.51.14-1.97-.19-4.05,0-6h3c-1.66,13.13-3.14,34.51-1.98,47.48.7,7.81,4.42,15.63,4.99,23.51l1.99-9.99,2,1c-.23.33.74,6.82,1,8,.17.75.99.93,1,1,.06.32-.05.67,0,1s-.05.67,0,1c-2.75,1.38-2.64,5.27-3.5,8.04-.31,1-1.44,1.73-1.5,1.96l-4-13c-1.51-6.41-2.77-12.78-5.01-18.99-.8-.38-1.98,2.81-1.99,2.99-3.42,0-6.56.85-10,1-10.73.47-22.63-1.23-33,1-1.74.07-3.35-.76-5-1-.33-.05-.67.05-1,0-2.24-.34-4.81-.85-7-1-1.32-.09-2.68.04-4,0,.07.98-.1,2.02,0,3h-1c.05-.72,1.96-7.96-.99-5-.5.51-3.39,11.91-3.77,13.77s.05,3.84-.24,5.23c-3.24,4.02-3.57,10.09-5,15-1.17-3.12-2.08-8.19-2.09-11.49-.01-3.94,1.8-6.21,2.09-8.51l1.99,4.99c.91-8.28,4.4-16.11,5.05-24.46,1.06-13.75-.49-42.64-4.04-55.54-.31-1.14-.23-5.29-1.01-6-.24-.22-1.51.2-1.99,0-.9-.38-.91-.54-.91-1.43.25-1.54.86-2.99.91-4.57.14-.11,2.45-1.64,3-2,3.61-.04,2.98-1.48,4-2,.42-.21,1.64-.34,3-1,4.01-1.22,11.29-3.82,15-2Z"/>
    <path class="cls-10" d="M9.16,38.34v1c-3.63.38-8.15,2.75-6.99,7l9.99-2c.02.33,0,.67,0,1,.4,14.3-.3,28.7,0,43.01l2.01-.5c-.77,3.5-1.87,7.38-2.05,10.95-.3,5.81,1.05,11.86.94,16.93-.23,10.63-3.66,16.55-1.9,29.61h-1c-.17-8.14-.03-16.15.04-24.46.22-24.87.47-49.73.95-74.54-4.32-.09-11.84,5.44-11.11-2.51.31-3.4,6.43-4.98,9.11-5.49Z"/>
    <path class="cls-15" d="M83.16,4.34c1.82.34,4.09-.31,6.26.23,13.09,3.21,15.87,22.4,14.74,33.77,6.3-.67,12.65,3.14,10.99,10.01l-10.99-2c.01,7.65-.03,15.35,0,23h-2c-.02-7.99.01-16.01,0-24,.97-.58,1.63-.71,2-2l8.99,3c1.08-6.85-5.76-5.83-9.99-7-.35-.09-.72-.93-1-1-.54-6.22,1.74-13.76-2.51-18.99-2.49-.33-1.19.69-1.05,2.05.5,5.08.74,9.15,2.56,13.94-2.23-.74-1.25-2.84-3.21-4.37-2.61-2.04-10.33-4.68-13.78-5.63v-1c4.18,1.31,9.09,4.12,12.63,4.89,1.77.39,1.33.09,1.41-1.41.55-10.65-5.45-19.55-15.04-23.48Z"/>
    <path class="cls-5" d="M106.16,136.34c-.41,11.44-.34,24.21-3,35l-8,1c.7-2.51,2.04-2.18,2.05-2.62.02-.6-1.08-1.23-1.05-1.38.4-2.56,5.63-7.28,4-11,.16-.29-.15-.94,0-1.48.22-.71.98-.46.99-.52,1.35,2.43,1.78-3.26,1.85-3.65.83-5.35,1.08-9.94,1.15-15.35h2Z"/>
    <path class="cls-5" d="M12.16,147.34c.69,4.54,2,8.07,3,12,.05.19-.46,2.45,0,4,.98,3.33,2.18,6.63,5,9h-3c-1.28,0-2.8.16-4,0-.32-.04-1.25-1.08-2-1-.48-8.62-.82-17.18-1-26h1c.13.99.96,1.75,1,2Z"/>
    <path class="cls-6" d="M104.16,69.34c.02,5.83.01,11.69-.05,17.54l.05,7.96v17c0,2.8-.46,9.32,0,11.5l-1,1c-.05-.33.06-.68,0-1l-1-1c-.26-1.18-1.23-7.67-1-8,.09-.12,2.42.49,2.08-1.42l-2.08-23.58c.96-.07.86-.84,1-1,.58-.67,1.1-.36,1-2-.04-.68-.26-1.11-1-1-.47-4.9.01-10.92,0-16h2Z"/>
    <path class="cls-6" d="M26.16,5.34h1c-3.36,2.62-9.4,2.55-8,8-.22-.22-1.02.15-1,.5.07,1.09,1.47-.03,1-.5h1c-1.67,2.61-1.56,5.2-2,8h-1c-.09-.52-.93-.82-1-1-.3-.74.64-2.72-.5-3.01-1.1,0-.18,2.23-.5,3.01-1.13,2.76-1.31,2.34-2,6-.72,3.84-2.25,8.01,0,12-.53-.09-1.42-1.01-2-1-.53-14.49.67-25.77,15-32Z"/>
    <path class="cls-13" d="M50.16.34v1c-6.87.6-8.17,2.55-12.97,4.4-1.11.43-3.67-.24-6.03.6v-1l1.99-.99c-.78-.46-1.82.97-1.99.99-1.31.14-2.68-.1-4,0h-1C33.94,1.96,41.56.79,50.16.34Z"/>
    <path class="cls-5" d="M13.16,38.34c.06.01.27,1.22,1.06.64l1.94-1.64c.48.2,1.74-.22,1.99,0,.78.71.7,4.86,1.01,6l-1.5-2c-.73.51-1.06,1.28-1.5,2-.34.56-1.1.54-1,2h-3c0-.33.02-.67,0-1-.08-1.66.07-3.35,0-5.01-.98.05-2.02-.1-3,0v-1c.59-.11,1.5-.99,2-1,.58,0,1.47.91,2,1Z"/>
    <path class="cls-6" d="M77.16,3.34c-9.24-1.28-17.42-2.84-27-2V.34c8.27-.43,19.72-1.16,27,3Z"/>
    <path class="cls-12" d="M106.16,136.34h-2c.06-4.52-.38-6.93-1-11-.05-.33.05-.68,0-1l1-1c1.08,5.1,2.24,6.22,2,13Z"/>
    <path class="cls-14" d="M84.16,24.34v1c-1.21-.33-2.38-1.43-3.99-.99v1.99c-2.14-.32-4.77.24-7-.01l1.99-1.98c-12.23-2.44-21.86-2.43-33.99-.01-3.71-1.82-10.99.78-15,2,17.47-8.53,39.54-7.77,58-2Z"/>
    <path class="cls-14" d="M26.16,26.34c-1.36.66-2.58.79-3,1,1.11-.41,1.85-.65,3-1Z"/>
    <path class="cls-14" d="M13.16,26.34v8c1.31-.04,1.2-1.53,3-3-.05,1.58-.66,3.03-.91,4.57,0,.89,0,1.05.91,1.43l-1.94,1.64c-.79.58-1-.63-1.06-.64-2.25-3.99-.72-8.16,0-12Z"/>
    <path class="cls-14" d="M18.16,21.34c-.42,2.65-1.2,5.28-1,8,.66.02,1.33,0,2,0-.55.36-2.86,1.89-3,2,.1-3.18-.89-7.66,1-10h1Z"/>
    <path class="cls-14" d="M23.16,27.34c-1.02.52-.39,1.96-4,2,1.86-1.22,1.87-1.22,4-2Z"/>
    <path class="cls-8" d="M31.16,5.34c.17-.02,1.21-1.45,1.99-.99l-1.99.99Z"/>
    <path class="cls-8" d="M31.16,5.34v1c-3.76,1.35-8.36,4.05-11,7h-1c-1.4-5.45,4.64-5.38,8-8,1.32-.1,2.69.14,4,0Z"/>
    <path class="cls-8" d="M19.16,13.34c.47.47-.93,1.59-1,.5-.02-.35.78-.72,1-.5Z"/>
    <path class="cls-6" d="M15.16,163.34c3.59,1.14,3.77,4.12,7.99,5.51,2.53.83,8.72,1.49,11.51,1.49h48.5l-18.46,2.04-31.87-1.08-1.67,3.03c18.08,2.1,36.31.72,54.45.08l.62-2.93,9.92-3.13c-.02.15,1.07.78,1.05,1.38-.01.44-1.35.11-2.05,2.62-.08.3.07.67,0,1-16.04,3.64-34.03,4.98-50.54,4.04-5.75-.33-20.43-1.65-24.46-5.04-2.82-2.37-4.02-5.67-5-9Z"/>
    <path class="cls-7" d="M14.16,45.34c1.47,5.89.93,11.97,1,18,.08,7.65-.04,15.35,0,23,.05,8.93,1.97,24.4,1,32-.29,2.29-2.1,4.56-2.09,8.51.01,3.31.92,8.37,2.09,11.49-.38,1.3-.54,2.74-1,4-.63,1.72-1.61,3.76-3,5-.04-.25-.87-1.01-1-2-1.76-13.06,1.67-18.98,1.9-29.61.11-5.07-1.24-11.11-.94-16.93.18-3.56,1.28-7.45,2.05-10.95l-2.01.5c-.31-14.31.39-28.71,0-43.01h2Z"/>
    <path class="cls-7" d="M9.16,39.34c.98-.1,2.02.05,3,0,.07,1.66-.08,3.34,0,5.01l-9.99,2c-1.15-4.25,3.36-6.61,6.99-7Z"/>
    <path class="cls-4" d="M102.16,38.34c.28.07.65.91,1,1,.09.64-.13,1.43,0,2,.11.48.52.86,1,1,.05.23.06.78,0,1-.37,1.29-1.03,1.42-2,2-.37.22-1.91-.62-2.05.59.77,11.74-.83,24.34,0,35.96.18,2.57.63,4.32,2.05,6.45-.14.16-.04.93-1,1-.07,0-.32-1.11-.98-1.01l-1.02,25.01-1.99,9.99c-.57-7.88-4.3-15.71-4.99-23.51-1.16-12.97.32-34.35,1.98-47.48.3-2.35.52-4.68,1-7l2.99,4.99-.99-9.99c.25-.65-.2-2.12,0-3,1.75-.12,3.35.57,5,1ZM98.16,70.34v-17c-4.29,1.96-3.54,10.12-2.72,14.27.37,1.85.45,3.29,2.72,2.73ZM98.16,110.34v-28.5c0-.22-2.4-1.64-2.05-3.99.05-.32,5.64-1.43-1.94-2.5l1,35h3Z"/>
    <path class="cls-7" d="M102.16,38.34c-1.64-.43-3.24-1.12-5-1-.2.88.25,2.35,0,3-.67,1.76-1.5,2.59-2,5s-.7,4.65-1,7h-3c.71-7.37,2.58-13.25,4.06-20.34-4.55-2.83-9.73-4.86-15.06-5.66v-1.99c1.62-.44,2.79.66,4,.99,3.45.95,11.17,3.59,13.78,5.63,1.96,1.53.98,3.63,3.21,4.37-1.82-4.79-2.06-8.86-2.56-13.94-.13-1.35-1.44-2.38,1.05-2.05,4.25,5.23,1.97,12.77,2.51,18.99Z"/>
    <path class="cls-7" d="M103.16,39.34c4.23,1.16,11.08.14,9.99,7l-8.99-3c.06-.22.05-.77,0-1-.12-.55-.45-.88-1-1-.13-.57.09-1.36,0-2Z"/>
    <path class="cls-7" d="M22.16,145.34c.06-3.62-1.47-2.57,1.77-2.29,4.84.43,9.97,1.87,14.73,2.28,17.88,1.52,35.98,1,53.48-2.99-.16,1.93.27,4.15,0,6-.38,2.76-5.49,14.38-4.99,15,3.25-3.5,10.95-2.22,12.99-6,1.63,3.72-3.6,8.44-4,11l-9.92,3.13-.62,2.93c-18.14.64-36.38,2.02-54.45-.08l1.67-3.03,31.87,1.08,18.46-2.04h-48.5c-2.79,0-8.98-.66-11.51-1.49-4.22-1.39-4.39-4.37-7.99-5.51-.46-1.55.05-3.81,0-4,.64.1,1.44-.14,2,0,3.33.85,6.31,3.54,10,2.99.35-1.83-1.26-2.59-2-3.99l-3-13ZM71.16,157.34c.06-.87.62-1.76,0-3,1.69.2,3.81-.39,5.36-.03,1.18.28,0,2.45,1.63,2.02l-1.6-3.92c-.83-.14-1.59.93-1.89.93h-38.5c-.29,2.32,1.58,7.23,4,5.5l-1.99-4.5,4.95.05,1.71,5.99,26.35-.04c.14-.62-.17-1.51,0-2,.08-.25-.03-.65,0-1ZM72.66,161.34c-4.66,1.33-15.1-.98-20.5,0l1.48,2c6.8-1.76,21.24,2.19,23.03-5.98-1.13.66-3.21,3.75-4.01,3.98ZM69.16,164.34h-22.5c-1.33,0-5.12-2.1-7.5-.99v.98c1.87-.85,4.61,1.01,5.5,1.01h24.5v-1ZM74.16,163.35h-2.99v.98h2.99v-.98ZM89.16,165.35c-19.82,3.14-40.03,1.9-60.01,1.49,18.18,4.1,37.01,2.55,55.35.34l4.65-1.83Z"/>
    <path class="cls-3" d="M101.16,155.34c0,.06-.78-.19-.99.52-.16.54.15,1.19,0,1.48-2.04,3.78-9.74,2.5-12.99,6-.5-.61,4.61-12.24,4.99-15,1.37-.91,2.16-5.6,3-6,.91-.43,3.57,1.12,3-2h1c1.65,5.02,2.94,9.47,2,15Z"/>
    <path class="cls-7" d="M94.16,122.34c1.39,5.9,2.1,9.1,4,15-.04,1,.03,2,0,3,.57,3.12-2.09,1.57-3,2h-2c.64-3.58-.57-6.72-1-10-.25-1.93.11-3.99-.28-6.21-.91-5.29-4.94-15.66-4.72-19.79,0-.18,1.19-3.37,1.99-2.99,2.24,6.21,3.5,12.58,5.01,18.99Z"/>
    <path class="cls-7" d="M104.16,136.34c-.08,5.4-.33,10-1.15,15.35-.06.39-.5,6.08-1.85,3.65.94-5.53-.35-9.98-2-15-.33-1-.69-2.03-1-3,.03-.64-.14-1.51,0-2,.06-.23,1.2-.96,1.5-1.96.86-2.77.74-6.66,3.5-8.04.62,4.07,1.06,6.48,1,11Z"/>
    <path class="cls-3" d="M17.16,142.34c.53.16,2.86.92,3,1,.74.44,1.31,1.42,2,2l3,13c-.76-1.45-2.11-4.86-3.02-5.48-1.72-1.16-5.98-.96-7.97-3.52l2.99,10c-.56-.14-1.36.1-2,0-1-3.93-2.31-7.46-3-12,1.39-1.24,2.37-3.28,3-5,.63.11,1.48-.16,2,0Z"/>
    <path class="cls-7" d="M102.16,45.34c.01,7.99-.02,16.01,0,24,.01,5.08-.47,11.1,0,16,.04.45.53.9,1,1,.1,1.64-.42,1.33-1,2-1.42-2.13-1.87-3.89-2.05-6.45-.83-11.62.77-24.22,0-35.96.14-1.21,1.68-.37,2.05-.59Z"/>
    <path class="cls-7" d="M101.16,89.34l2.08,23.58c.34,1.91-1.99,1.3-2.08,1.42l-2-1,1.02-25.01c.66-.1.91,1.02.98,1.01Z"/>
    <path class="cls-15" d="M103.16,86.34c-.47-.1-.96-.55-1-1,.74-.11.96.32,1,1Z"/>
    <path class="cls-7" d="M103.16,123.34c-.01-.07-.83-.25-1-1l1,1Z"/>
    <path class="cls-14" d="M16.16,20.34h-1c.32-.78-.6-3.01.5-3.01,1.14.29.2,2.27.5,3.01Z"/>
    <path class="cls-10" d="M16.16,43.34c1.14,1.62,2.51,3.64,2.93,5.58,2.81,12.98,3.58,48.72.21,61.11-.47,1.72.71,2.78-2.13,2.31-.23-7.48.29-15.05,0-22.54-.08-1.93,1.03-4.01-2-3.45-.04-7.65.08-15.35,0-23,1.79-4.2,1.05-10.03,1.07-14.62,0-1.86-1.05-3.1-1.07-3.38-.1-1.46.66-1.44,1-2Z"/>
    <path class="cls-9" d="M19.16,43.34c3.54,12.9,5.1,41.79,4.04,55.54-.64,8.35-4.13,16.18-5.05,24.46l-1.99-4.99c.97-7.6-.95-23.07-1-32,3.03-.56,1.92,1.53,2,3.45.3,7.49-.22,15.06,0,22.54,2.85.47,1.67-.59,2.13-2.31,3.37-12.39,2.6-48.13-.21-61.11-.42-1.94-1.79-3.96-2.93-5.58.44-.72.77-1.49,1.5-2l1.5,2Z"/>
    <path class="cls-9" d="M15.16,63.34c-.07-6.03.47-12.11-1-18h1c.02.29,1.08,1.52,1.07,3.38-.02,4.59.72,10.42-1.07,14.62Z"/>
    <path class="cls-4" d="M41.16,24.34c12.14-2.42,21.77-2.43,33.99.01l-1.99,1.98c2.23.25,4.86-.31,7,.01,5.34.8,10.51,2.83,15.06,5.66-1.48,7.09-3.35,12.97-4.06,20.34-.19,1.95.14,4.03,0,6h-1c.16-3.1,1.07-7.73-2-9,.65-.05,1.33.12,1.98,0l2.92-15.34c-3.87-4.07-9.77-4.62-14.89-5.65-2.06-.42-8.28-2-9.5-2h-22c-1.27,0-7.36,1.59-9.5,2-3.15.6-12.21,2.35-14.41,3.89-2.59,1.81,3.71,13.71,2.42,17.11,4.14-1.57,8.62-2.39,12.99-3,.64-.09,1.35.07,2,0v1c-5.02.65-9.89,2.38-14.9,3.1-.13,2.93-.26,5.97-.1,8.9h-1c-.69-9.26-.37-17.69-4.92-26.4,5.84-5.13,14.42-7.11,21.92-8.6Z"/>
    <path class="cls-14" d="M21.16,124.34c-1.24,6.03-3.52,11.81-4,18-.52-.16-1.37.11-2,0,.46-1.26.62-2.7,1-4,1.43-4.91,1.76-10.98,5-15-.07.32.07.68,0,1Z"/>
    <path class="cls-10" d="M98.16,110.34h-3s-1-34.99-1-34.99c7.58,1.08,1.99,2.18,1.94,2.5-.35,2.35,2.05,3.77,2.05,3.99v28.5Z"/>
    <path class="cls-10" d="M98.16,70.34c-2.27.56-2.36-.88-2.72-2.73-.82-4.14-1.57-12.31,2.72-14.27v17Z"/>
    <path class="cls-10" d="M97.16,40.34l.99,9.99-2.99-4.99c.5-2.41,1.33-3.24,2-5Z"/>
    <path class="cls-15" d="M104.16,42.34c-.48-.14-.89-.52-1-1,.55.12.88.45,1,1Z"/>
    <path class="cls-14" d="M24.16,132.34l-2,8.99c23.46,4.06,46.53,3.81,70,0l-1-9h1c.43,3.28,1.65,6.42,1,10.01h2c-.84.39-1.63,5.08-3,5.99.26-1.85-.17-4.07,0-6-17.5,3.99-35.6,4.51-53.48,2.99-4.76-.41-9.9-1.85-14.73-2.28-3.24-.29-1.71-1.33-1.77,2.29-.69-.58-1.26-1.56-2-2,.39-3.52,2.43-7.76,3-11h1Z"/>
    <path class="cls-11" d="M71.16,157.34c-.03.35.08.75,0,1-6.49,1.16-13.92,1.47-20.54,1.04-2.75-.18-8.65-.46-5.87-4.06,7.18.44,14.85-.52,21.96-.04,1.86.13,3.74-.24,4.45,2.06Z"/>
    <path class="cls-14" d="M89.16,165.35l-4.65,1.83c-18.34,2.2-37.17,3.76-55.35-.34,19.98.41,40.18,1.65,60.01-1.49Z"/>
    <path class="cls-10" d="M71.16,158.34c-.16.48.15,1.37,0,2l-26.35.04-1.71-5.99-4.95-.05,1.99,4.5c-2.41,1.72-4.29-3.18-4-5.5h38.5c.3,0,1.06-1.07,1.89-.93l1.6,3.92c-1.64.43-.46-1.74-1.63-2.02-1.55-.37-3.67.23-5.36.03.63,1.24.07,2.13,0,3-.7-2.3-2.58-1.93-4.45-2.06-7.11-.48-14.78.48-21.96.04-2.78,3.59,3.13,3.88,5.87,4.06,6.62.43,14.05.12,20.54-1.04Z"/>
    <path class="cls-1" d="M25.16,158.34c.73,1.4,2.35,2.16,2,3.99-3.68.54-6.67-2.15-10-2.99l-2.99-10c1.98,2.56,6.25,2.36,7.97,3.52.91.61,2.27,4.03,3.02,5.48Z"/>
    <path class="cls-10" d="M69.16,164.34v1h-24.5c-.88,0-3.63-1.86-5.5-1.01v-.98c2.38-1.11,6.16.99,7.5.99h22.5Z"/>
    <path class="cls-14" d="M72.66,161.34c.8-.23,2.88-3.32,4.01-3.98-1.79,8.18-16.23,4.22-23.03,5.98l-1.48-2c5.4-.98,15.84,1.33,20.5,0Z"/>
    <rect class="cls-10" x="71.17" y="163.35" width="2.99" height=".98"/>
    <path class="cls-14" d="M99.16,140.34h-1c.03-1-.04-2,0-3,.31.97.67,2,1,3Z"/>
    <path class="cls-14" d="M98.16,135.34c-.14.49.03,1.36,0,2-1.9-5.9-2.61-9.1-4-15l4,13Z"/>
    <path class="cls-2" d="M23.16,132.34c-.57,3.24-2.61,7.48-3,11-.14-.08-2.47-.84-3-1,.48-6.19,2.76-11.97,4-18l5-14c-.8,6.83-1.83,15.32-3,22Z"/>
    <path class="cls-10" d="M31.16,106.34v2c2.19-.22,5.6.9,7-1,.33.05.67-.05,1,0v2c2.11.86,3.8-.74,5-1,10.37-2.23,22.27-.53,33-1-.42,3.53,1.18,1.32,2.79,1.3,1.97-.02,4.2-1.03,6.27.14l1.93,10.55c-10.09-1.15-21.35-3.01-31.5-2-9.76.97-19.72,6.26-30.49,4-.79-.79,1.67-8.05,1.81-9.84.12-1.51-.79-1.97-.8-2.15-.1-.98.06-2.01,0-3,1.32.03,2.68-.1,4,0ZM47.16,109.34v1h24v-1h-24Z"/>
    <path class="cls-6" d="M78.16,28.34c5.12,1.03,11.03,1.58,14.89,5.65l-2.92,15.34c-.65.13-1.33-.04-1.98,0-.33.03-.67,0-1,0-3.51-1.95-9.98-3.62-14-4-1.23-6.67,3.04-11.18,5-17Z"/>
    <path class="cls-14" d="M91.16,58.34c-.93,13.15-1.48,26.32-2,39.51-.05,1.35.83,4.16-1.49,3.5-.85-.24-.63-7.09-.55-8.55.6-11.34,2.47-23.4,3.04-34.46h1Z"/>
    <path class="cls-14" d="M25.16,59.34c.67,12.4,3.56,25.74,3,38.51-.06,1.35.84,4.16-1.49,3.5-1.04-13.97-1.47-28.03-2.51-42.01h1Z"/>
    <path class="cls-10" d="M73.16,45.34c4.02.38,10.49,2.05,14,4-6.84-.08-13.62-2.58-20.46-3.04-8.05-.55-18.51,0-26.54,1.04v-1c9.99-1.14,22.81-1.97,33-1Z"/>
    <path class="cls-7" d="M21.16,123.34c.29-1.39-.15-3.38.24-5.23s3.27-13.26,3.77-13.77c2.94-2.97,1.03,4.28.99,5-.02.33.04.67,0,1l-5,14c.07-.32-.07-.68,0-1Z"/>
    <path class="cls-4" d="M87.16,106.34c-.22,4.13,3.81,14.5,4.72,19.79.38,2.22.02,4.28.28,6.21h-1c-21.6,6.2-45.23,5.15-67,0h-1c1.17-6.68,2.2-15.17,3-22,.04-.33-.02-.67,0-1h1c.02.18.92.65.8,2.15-.14,1.8-2.59,9.06-1.81,9.84,10.77,2.26,20.74-3.04,30.49-4,10.15-1.01,21.41.85,31.5,2l-1.93-10.55c-2.07-1.18-4.3-.17-6.27-.14-1.61.02-3.22,2.23-2.79-1.3,3.44-.15,6.58-.99,10-1Z"/>
    <path class="cls-5" d="M38.16,107.34c-1.4,1.89-4.81.78-7.01,1v-2c2.2.15,4.77.66,7.01,1Z"/>
    <path class="cls-5" d="M44.16,108.34c-1.2.26-2.89,1.86-5.01,1v-2c1.65.24,3.27,1.07,5.01,1Z"/>
    <path class="cls-13" d="M78.16,28.34c-1.96,5.82-6.23,10.33-5,17-10.19-.97-23.01-.14-33,1-.65.07-1.36-.09-2,0,1.62-7.29,2.68-11-1-18,2.14-.41,8.23-2,9.5-2h22c1.22,0,7.44,1.58,9.5,2Z"/>
    <path class="cls-15" d="M37.16,28.34c3.68,7,2.62,10.71,1,18-4.37.61-8.85,1.43-12.99,3,1.3-3.41-5.01-15.3-2.42-17.11,2.2-1.53,11.26-3.28,14.41-3.89Z"/>
    <path class="cls-2" d="M91.16,132.34l1,9c-23.48,3.8-46.55,4.05-70,0l2-8.99c21.77,5.15,45.4,6.2,67,0Z"/>
    <rect class="cls-5" x="47.16" y="109.34" width="24" height="1"/>
  </g>
</svg>