<?xml version="1.0" encoding="UTF-8"?>
<svg id="_图层_2" data-name="图层 2" xmlns="http://www.w3.org/2000/svg" viewBox="0 0 122.98 157.33">
  <defs>
    <style>
      .cls-1 {
        fill: #9e281e;
      }

      .cls-2 {
        fill: #77787b;
      }

      .cls-3 {
        fill: #a6a7a8;
      }

      .cls-4 {
        fill: #751e18;
      }

      .cls-5 {
        fill: #2a2a2c;
      }

      .cls-6 {
        fill: #1c1c1d;
      }

      .cls-7 {
        fill: #414045;
      }

      .cls-8 {
        fill: #c8c8c9;
      }

      .cls-9 {
        fill: #c7453b;
      }

      .cls-10 {
        fill: #491917;
      }

      .cls-11 {
        fill: #2d2d30;
      }

      .cls-12 {
        fill: #da554f;
      }

      .cls-13 {
        fill: #252424;
      }

      .cls-14 {
        fill: #d2d2d4;
      }

      .cls-15 {
        fill: #38373a;
      }

      .cls-16 {
        fill: #e6e6e7;
      }

      .cls-17 {
        fill: #959698;
      }

      .cls-18 {
        fill: #616062;
      }

      .cls-19 {
        fill: #545256;
      }

      .cls-20 {
        fill: #dee0e1;
      }
    </style>
  </defs>
  <g id="_图层_1-2" data-name="图层 1">
    <path class="cls-16" d="M51.2,1.25c6.36.19,13.71-.1,20,0,2.71.04,5.26.8,8,1l3.51,4.98c.87-1.18-2.21-3.01,1.01-3.01,2.93,0,11.39,2.08,14.49,3.03,6.93,7.36,4.74,12.72,7.48,20.02.48,1.29,1.6,1.71,1.55-.53-.09-4.02-1.79-8.43-2.02-12.48l5.99,9c.9,4.62,1.42,9.05,1,14-3.66-.89-5.22-.31-8.4-2.97-3.79,2.4-3.09,6.36-3.6,9.97-.09.64.09,1.35,0,2-.04.33.04.67,0,1-.07.65.06,1.34,0,2-.02.23-.96,1.07-1,2-.03.66.01,1.33,0,2-.04,1.66-.04,3.34,0,5,.04,2-.06,4,0,6-1.79,5.22-1.07,10.75,0,16-4.85-2.28-4.15,0-5.27.65-4.71,2.75-2.67-8.03-5.25-10.66-11.86,8.48-29.48,18.19-42.53,6.55-4.74-4.23-8.62-13.56-15.96-12.54-.23-2.25,1.43-7.89-1.99-6.99.89,6.61.52,13.39.99,19.99h-5c.43-5.68-.74-10.55-1-16-.08-1.66.12-3.35,0-5-.28-3.88.4-26.4-8-21l1.99-11.99-4.99,7.99c-.92-3.08.24-11.06,2-14,1.62,1.38,3.19.32,5,0l-1-2.99c4.04-2.23,3.17-3.95,6-7,3.35-1,7.47-2.01,11-2-1.62,5.6-11.77,11.08-3.51,16,.67-.16,6.53-10.84,4.55-12.51l2.96.51-.99-5c1.55,0,2.63.35,3.99,1l-.99-2c-.36-3.87,2.57-1.04,4.61-1.08,1.89-.05,3.65-.97,5.39-.92ZM17.46,21.23c0-.68-.55-1.23-1.23-1.23s-1.23.55-1.23,1.23.55,1.23,1.23,1.23,1.23-.55,1.23-1.23ZM32.2,26.25c-4.43.63-8.66,2.01-13,3l-.98.5.98.5c1.66-.04,3.34.06,5,0l-2.01,1,.02,1.98c2.8-.18,2.74,2.74,2.99,5.01,2.92-.51-1.27-5.8-1.01-5.98,1.58.16,3.51-.27,5,0,.2.04.61.81,1,1-.04.33.02.67,0,1s0,.67,0,1c-.02,2,0,4.01,0,6h2.49c.22-1.88,2.26-1.77,2.51-2l35.54-.04c5.8,1.67,11.65.61,17.46,1.04,1.25.09,2.69.82,4,1,.64.09,1.35-.06,2,0-.31,1.53-1.17,10.14-1.04,11.48.15,1.51.89,3.02,2.03,1.51-.4-4.82.53-9.49,1.31-14.2s3.71-7.76,1.69-12.8c-2.55-1-1.87,1.86-2.48,2.03-3.86,1.02-1.68-2.11-3.09-3.12-2.15-1.54-41.46-1.17-47.42-.91-1.33.06-2.68-.09-4,0-2.82.38-6.95-1.08-9,1ZM28.2,44.24l-1.01-4.99h-.98s0,4.99,0,4.99h1.99ZM30.27,51.18c4.15,3.54,9.32-8.88-1.07-4.91.32.88.88,4.75,1.07,4.91ZM30.46,54.23c0-.68-.55-1.23-1.23-1.23s-1.23.55-1.23,1.23.55,1.23,1.23,1.23,1.23-.55,1.23-1.23ZM93.19,64.25h-1.98s0,3.99,0,3.99h2.99s-1.01-3.99-1.01-3.99Z"/>
    <path class="cls-13" d="M13.2,134.25c.16.32-.34,1.43.14,1.86.66.58,2.46-.1,2.86.14,1.97,1.18,7.2,6.55,8,1h1c.28,2.43,10.56,3.41,10.99,2.99l-1.99-5.99,5,5.51-3.99,2.5,2.99,1.99c-6.2,2.22-13.92-.69-20.49-1.01-.83-.06-.64,1.46-.51,2.01-.14,2.79,2.63,3.37,4.74,3.76,8.03,1.48,21.34,2.07,29.72,2.28,16.84.42,33.74-1.39,50.54-2.03-.28,1.09-1.68,2.38-2.62,2.86-2.67,1.36-6.8-.02-6.38,3.13-.65-.05-1.34-.02-2,0l-4-1v2c-1.34,0-2.33-.91-3-1-.13-.02-.94-.88-2.39-1.06-2.97-.37-6.54.35-9.61.06v2c-14.48.3-29.3.43-43.64-.88-1.94-.18-3.88-1.13-3.35,1.88-3-.66-8.47.22-12,0-.33-.02-.68.05-1,0s-1.23-1.09-2-1c-.62-12.3-.93-24.55-1-37h1c.18,5.9.37,9.63,3,15Z"/>
    <path class="cls-6" d="M111.2,156.25c-.64.2-1.44.93-2,1-2.98.39-10.11-.74-12,0-.83-2.09-2.16-1.86-4-2-.42-3.15,3.7-1.77,6.38-3.13.94-.48,2.34-1.77,2.62-2.86-16.8.64-33.7,2.45-50.54,2.03-8.38-.21-21.69-.8-29.72-2.28-2.11-.39-4.89-.98-4.74-3.76.06.26,1.26,1.89,1.73,2,20.79,1.63,41.9,3.01,62.81,2.05,4.65-.21,11.34-.62,15.84-1.16,7.04-.84,10.65-4.79,11.13-11.86-2.08,5.38-8.42,2.79-9.07,8.05-19.01.44-38.02,1.44-57.06,1-1.28-.03-2.45-.06-3.38-1.07l48.99-1.01-4-2c-1.1-1.16,1.84-7.08,2.95-8.34.89-1.01,1.92-.54,2.06-.66v2l-3.02,4.49c-.94,2.64,8.47.65,9.35.35,2.17-.74,1.72-3.14,1.67-4.84.33-.02.67.02,1,0l.51,5.01,8.53-2.51.82-1.13c.28-.93-.7-1.73-.86-2.37-.15-.55.1-1.37,0-2,.32.06.67-.04,1,0,.06.99-.06,2.01,0,3,1.76-.21,1.56-1.83,1.99-3,.78-2.12.82-2.79,1-5h1c-.12,10.13-.59,20.08-1,30ZM94.2,141.26h-3.99v.98h3.99v-.98Z"/>
    <path class="cls-15" d="M12.2,33.25c.27,1.09-.19,2.76,0,4h1.49c.77-.27,1.13-1.75,1.51-2,8.4-5.4,7.72,17.12,8,21-2.6.47-4.45.33-7,0-.32-2.52.58-6.2.01-8.34-.28-1.06-1.95-.57-2.01-.66-.28-.41.82-4.11-1.48-2.99-1.38.67-1.41,2.14-1.56,3.44-.69,5.9-.2,15.86.05,22.09.08,1.92-1.03,4.01,2,3.45-.52,1.95-1.88,6.8-4,6-1.64-10.22,1.87-22.59,1-33L.2,47.25c-1.25-6.75,3.42-10.62,10-10,.09-1.66-.07-3.34,0-5,.95-.09,1.72-.14,2,1Z"/>
    <path class="cls-15" d="M16.2,56.25c.07.54-.34,1.52.16,1.87l2.65.33.3,2.65,3.9.15c.26,5.45,1.43,10.32,1,16-.06.85-.03,1.73-1,2-.04-.85-2.06-3.93-1-6l-5.99,2.99c-.5-2.74.35-5.42.54-7.97.23-3.16.65-2.01-2.54-2.03.24-3.18,0-6.75,0-10,.66.06,1.35-.08,2,0Z"/>
    <path class="cls-14" d="M17.2,104.25c1.86,1.11,3.92,1.12,6,1,0,.33.01.67,0,1-1.01,3.35-.7,6.7-1,10-.34,3.68-1.06,7.29-1,11-3.28-1.16-4.45-2.25-4.01-6h-.98c.11.87-.66,1.35-1.01,2-5.01.12,1.3-4.39.86-7.25-.16-1.08-1.41-2.24-1.65-3.46-.39-1.97.17-4.13-.19-5.62-.27-1.08-1.95-.56-2.02-.66-.86-1.18-1.64-21.25-2-25-.01-.11-.8-.78-1-2,2.12.8,3.48-4.05,4-6,.08-.3-.07-.68,0-1,4.76,5.62-.63,28,4,32Z"/>
    <path class="cls-14" d="M107.2,81.25c.07-2.99-.05-6.01,0-8.99,3.86-1.05,1.14,4.88,2,5.99l2.99-1.99v3c-3.48-.41-1.39,1.1-1.3,2.79.39,7.07.35,14.13.29,21.2-1.33.31-1.16-1.39-1.99-1.99s-2-.8-3-1c.6-5.34.76-10.63,1-16,.04-1-.02-2,0-3Z"/>
    <path class="cls-11" d="M113.2,37.25c4.33.99,9.03.66,9.72,6.66.78,6.78-6.09,1.72-7.72,1.34l-.49-.98-.51.98c-.58-.14-1.39.13-2,0l-.02-1.34-2.02-2.07c.27-2.1,1.26-3.54,3.03-4.58Z"/>
    <path class="cls-7" d="M112.2,79.25c.85,15.7.18,31.61,0,47h-1c.33-4.14-.07-8.76,0-13,0-.21,1.34-1.07.88-3.27-.32-1.52-1.73-2.3-1.88-2.73-.71-2.05-1.44-3.73-1-6,.83.6.65,2.31,1.99,1.99.06-7.07.1-14.13-.29-21.2-.09-1.69-2.17-3.2,1.3-2.79Z"/>
    <path class="cls-18" d="M12.2,106.25c-3.06,2.84-2.12,8.97-2,13h-1c-.05-10.37-.55-21.73-.04-32.55.09-1.89.48-3.67,1.04-5.45.36,3.75,1.14,23.82,2,25Z"/>
    <path class="cls-16" d="M111.2,45.25c.15,1.27-.22,2.82,0,4-1.61,4.27-1.31,11.2-1,16h-3c-.36-2.78.09-4.21,0-7-.14-4.38.56-9.9,0-14,1.48-.37,2.96.84,4,1Z"/>
    <path class="cls-13" d="M112.2,37.25c.31.08.68-.07,1,0-1.77,1.05-2.76,2.49-3.03,4.58l2.02,2.07.02,1.34c-.32-.07-.67.05-1,0-1.04-.16-2.52-1.37-4-1-.32-2.35-1.25-6.49-4.49-6.01-1.18.17.59,5.48-2.51,6.01.5-3.61-.19-7.57,3.6-9.97,3.18,2.66,4.74,2.08,8.4,2.97Z"/>
    <path class="cls-19" d="M98.2,7.25c8.06,2.47,11.42,7.87,13,16l-5.99-9c.23,4.05,1.94,8.47,2.02,12.48.05,2.24-1.06,1.82-1.55.53-2.75-7.3-.55-12.65-7.48-20.02Z"/>
    <path class="cls-2" d="M71.2,1.25c-6.29-.1-13.64.19-20,0,5.93-1.78,14.11-1.54,20,0Z"/>
    <path class="cls-3" d="M112.2,68.25h-2c-.08-.99.06-2.01,0-3-.31-4.8-.61-11.73,1-16,1.18,6.25,1.21,12.44,1,19Z"/>
    <path class="cls-18" d="M98.2,7.25c-3.1-.95-11.56-3.04-14.49-3.03-3.21,0-.13,1.83-1.01,3.01l-3.51-4.98c5.93.44,14.8.54,19,5Z"/>
    <path class="cls-19" d="M24.2,7.25c-2.83,3.05-1.96,4.77-6,7-1.97,1.09-2.3.16-4,3s-2.92,10.92-2,14c.2.69,4.6,2.01,0,2-.28-1.14-1.05-1.09-2-1,.33-7.49.02-12.28,4.59-18.91,3.03-4.4,4.84-4.71,9.41-6.09Z"/>
    <path class="cls-2" d="M41.2,3.25l.99,2c-1.36-.65-2.44-1-3.99-1-1.17,0-2.15.09-3,1-3.53,0-7.65,1-11,2,3.63-3.9,11.8-5.31,17-4Z"/>
    <path class="cls-14" d="M110.2,65.25c.06.99-.08,2.01,0,3h2s0,3,0,3h-3c-1.45-2.89-1.54-2.44-2-6h3Z"/>
    <path class="cls-13" d="M100.2,49.25c4.03.06,3.49,5.83,4.02,8.5.59,2.94.86.39,2.98.5.09,2.79-.36,4.22,0,7,.46,3.56.55,3.11,2,6,.82,1.64.63,3.56,3,3,0,.67,0,1.33,0,2l-2.99,1.99c-.86-1.11,1.86-7.04-2-5.99-.06,2.99.06,6.01,0,8.99-2.75-6.49-1.27-13.96-4.01-20.49-1-2.38-1.22-2.78-3.99-2.51-.04-1.66-.04-3.34,0-5l3,.99c-.79-1.66-.87-3.57-3-2.99.04-.93.98-1.77,1-2Z"/>
    <path class="cls-3" d="M112.2,71.25c.01,1-.01,2,0,3-2.37.56-2.18-1.36-3-3h3Z"/>
    <path class="cls-13" d="M115.2,45.25c-.32-.07-.69.08-1,0l.51-.98.49.98Z"/>
    <path class="cls-20" d="M30.2,64.25c7.34-1.02,11.22,8.31,15.96,12.54,13.05,11.64,30.67,1.93,42.53-6.55,2.58,2.64.53,13.41,5.25,10.66,1.11-.65.42-2.93,5.27-.65.34,1.68.46,1.68,1,3,.03.66-.04,1.34,0,2,.15,2.6.47,5.7,3,7-.69,1.06.22,9.05,1,11,.45,2.86-2.99,2.26-5,3-.47-2.33-1.54-4.21-2-6-.56-2.16-2.55-13.77-3.61-14.06l-64.73.02c-.73.17-3.24,7.6-3.66,9.04-.16.55.14,1.4,0,2-.53,2.31-1.95,5.74-2,8-2.08.12-4.14.11-6-1,1.44-7.68,6.37-17.26,6-25,.97-.27.94-1.15,1-2h5c.13,1.89-.96,3.52,1.99,2.99.41-5.39-.46-10.68-.99-15.99Z"/>
    <path class="cls-18" d="M45.2,25.25c5.95-.27,45.27-.64,47.42.91,1.41,1.01-.77,4.14,3.09,3.12.62-.16-.07-3.03,2.48-2.03,2.02,5.04-.89,8-1.69,12.8s-1.7,9.38-1.31,14.2c-1.14,1.51-1.88,0-2.03-1.51-.13-1.34.73-9.95,1.04-11.48s3.99-8.07,3-8.99h-5c-.06-.85.02-1.91,0-2.01-.15-.6.14-1.42-.42-2.05l-12.58-.95c-.14.63.16,1.5,0,2-.32.99-.72,2.06-1,3l-.58-5.02h-4.43s0,7.02,0,7.02c-9.91.24-18.91.49-29,0v-1h6.01s.01-5.42.01-5.42l-5.02-.58c.16-.52-.11-1.37,0-2ZM71.2,27.25h-20v6h20v-6Z"/>
    <path class="cls-17" d="M88.2,40.25c-5.8-.43-11.66.63-17.46-1.04l-35.54.04c.43-.41-.43-2.49,2.47-3.02,14.02,1.43,31.52-1.84,45.08-.03,2.88.38,4.06,1.56,5.45,4.05Z"/>
    <path class="cls-15" d="M107.2,81.25c-.02,1,.04,2,0,3h-2c-.36,2.22.54,5.36.01,7.35-.28,1.05-1.96.56-2.02.65-2.53-1.3-2.85-4.4-3-7,1.75-1.22.21-1.48,0-2-.54-1.32-.66-1.32-1-3l.99-.5c-.16-4,.25-8.07.06-12.06-.1-2.23-1.05-3.25-1.05-3.43-.06-2,.04-4,0-6,2.77-.27,3,.13,3.99,2.51,2.74,6.53,1.25,14.01,4.01,20.49Z"/>
    <path class="cls-6" d="M43.2,34.25c.33.02.67-.02,1,0,10.09.49,19.09.24,29,0,1.66-.04,3.34.05,5,0,4.36-.13,9.55,1.16,14,0,.04,2.33-.02,4.67,0,7-1.31-.18-2.75-.91-4-1-1.39-2.49-2.57-3.67-5.45-4.05-13.56-1.81-31.06,1.46-45.08.03-2.9.53-2.04,2.61-2.47,3.02-.25.24-2.29.13-2.51,2.02h-2.49c0-2.01-.03-4.02,0-6.02l1-1c3.98.16,8.03-.22,12,0Z"/>
    <path class="cls-15" d="M107.2,44.25c.56,4.1-.14,9.62,0,14-2.12-.11-2.39,2.44-2.98-.5-.54-2.66,0-8.43-4.02-8.5.06-.66-.07-1.35,0-2l.98-.5-.98-.5c.09-.65-.09-1.36,0-2,3.1-.53,1.33-5.83,2.51-6.01,3.24-.48,4.17,3.66,4.49,6.01Z"/>
    <path class="cls-1" d="M30.2,33.25c.22-2.04.84-3.97,1.01-6.01,4.03,2.33,7.8.06,11.99,0v7c-3.96-.22-8.02.16-12,0h-1c.02-.33-.04-.67,0-1Z"/>
    <path class="cls-14" d="M38.2,4.25l.99,5-2.96-.51c1.98,1.67-3.88,12.34-4.55,12.51-8.26-4.91,1.9-10.39,3.51-16,.85-.91,1.83-1,3-1Z"/>
    <path class="cls-15" d="M45.2,25.25c-.11.63.16,1.48,0,2-.61,2-1.69,3.47-1,6v1c-.33-.02-.67.02-1,0v-7c-4.19.05-7.96,2.33-11.99,0-.17,2.04-.79,3.97-1.01,6.01-.39-.19-.8-.96-1-1l1-3.99c-2.67-1.04-1.57,1.82-2.6,1.98-.17.03-2.39-.02-3.4.01-1.66.06-3.34-.04-5,0v-1c4.34-.99,8.57-2.37,13-3,2.36-.33,6.9-.86,9-1,1.32-.09,2.67.06,4,0Z"/>
    <path class="cls-18" d="M29.2,77.25c-.47-6.6-.11-13.39-.99-19.99,3.43-.89,1.77,4.75,1.99,6.99.54,5.31,1.4,10.61.99,15.99-2.96.53-1.86-1.1-1.99-2.99Z"/>
    <path class="cls-20" d="M92.2,32.25h5c.99.93-2.7,7.54-3,9-.65-.06-1.36.09-2,0-.02-2.33.04-4.67,0-7-.01-.66.04-1.34,0-2Z"/>
    <path class="cls-20" d="M30.27,51.18c-.19-.16-.76-4.03-1.07-4.91,10.39-3.97,5.22,8.45,1.07,4.91Z"/>
    <path class="cls-13" d="M99.2,80.25c-1.07-5.25-1.79-10.78,0-16,0,.18.95,1.2,1.05,3.43.19,3.99-.23,8.06-.06,12.06l-.99.5Z"/>
    <path class="cls-20" d="M15.2,35.25c-.38.24-.74,1.73-1.51,1.99h-1.49c-.2-1.23.27-2.9,0-3.99,4.6,0,.2-1.31,0-2l4.99-7.99-1.99,11.99Z"/>
    <path class="cls-11" d="M14.2,47.25c.06.09,1.73-.4,2.01.66.57,2.14-.33,5.82-.01,8.34-.65-.08-1.34.06-2,0v-9Z"/>
    <path class="cls-11" d="M23.2,56.25c.12,1.65-.08,3.34,0,5l-3.9-.15-.3-2.65-2.65-.33c-.5-.35-.09-1.33-.16-1.87,2.55.33,4.4.47,7,0Z"/>
    <path class="cls-2" d="M24.2,30.25c1.01-.04,3.23.02,3.4-.01,1.03-.16-.07-3.02,2.6-1.98l-1,3.99c-1.49-.26-3.42.17-5,0-.26.18,3.93,5.48,1.01,5.98-.25-2.27-.19-5.19-2.99-5.01l-.02-1.98,2.01-1Z"/>
    <path class="cls-20" d="M18.2,14.25l1,2.99c-1.81.33-3.38,1.39-5,0,1.7-2.84,2.03-1.91,4-3Z"/>
    <polygon class="cls-20" points="93.19 64.25 94.2 68.24 91.21 68.25 91.21 64.25 93.19 64.25"/>
    <path class="cls-18" d="M41.2,25.25c-2.1.14-6.64.67-9,1,2.05-2.08,6.18-.62,9-1Z"/>
    <polygon class="cls-2" points="28.2 44.24 26.21 44.24 26.21 39.25 27.19 39.26 28.2 44.24"/>
    <path class="cls-15" d="M99.2,51.25c2.13-.58,2.21,1.33,3,2.99l-3-.99c.01-.67-.03-1.34,0-2Z"/>
    <circle class="cls-20" cx="29.22" cy="54.23" r="1.23"/>
    <circle class="cls-20" cx="16.22" cy="21.23" r="1.23"/>
    <polygon class="cls-2" points="19.2 30.25 18.22 29.75 19.2 29.25 19.2 30.25"/>
    <path class="cls-15" d="M30.2,35.25c0-.33-.02-.67,0-1h1l-1,1Z"/>
    <path class="cls-13" d="M100.2,47.25c.04-.33-.04-.67,0-1l.98.5-.98.5Z"/>
    <path class="cls-11" d="M100.2,116.25c.05,3.66-.03,7.34,0,11-.3.11-.65.89-1,1-4.36,1.34-3.79-.24-9,3-.24.15-.63.68-1,1-.14.12-1.17-.35-2.06.66-1.11,1.26-4.05,7.18-2.95,8.34l4,2-48.99,1.01h-1l-2.99-1.99,3.99-2.5-5-5.51h-1c.23-2.4-2.18-2.92-4-4-3.75-2.21-4.62-1.8-8-3-.06-3.71.66-7.32,1-11,26.12,3.85,51.9,4.13,78,0ZM54.2,124.24v2.01s13.01,0,13.01,0v-2.01s-13.01,0-13.01,0ZM81.2,133.25h-40c-.17,1.86.32,5.55,1.99,6.51,2.64,1.51,28.52,2.34,31.37,1.36,2.99-1.42.1-7.13,4.63-6.88l.5,3,1.5-4ZM77.7,139.25v1c.65-.33.65-.67,0-1Z"/>
    <path class="cls-5" d="M39.2,144.25c.93,1.02,2.1,1.04,3.38,1.07,19.04.43,38.05-.57,57.06-1,.64-5.26,6.99-2.67,9.07-8.05-.48,7.07-4.08,11.02-11.13,11.86-4.5.54-11.19.94-15.84,1.16-20.91.96-42.02-.42-62.81-2.05-.47-.11-1.66-1.73-1.73-2-.13-.56-.32-2.07.51-2.01,6.57.32,14.29,3.23,20.49,1.01h1Z"/>
    <path class="cls-8" d="M12.2,106.25c.07.09,1.75-.43,2.02.66.37,1.49-.19,3.65.19,5.62.24,1.22,1.49,2.38,1.65,3.46.44,2.87-5.86,7.37-.86,7.25-1.88,3.43-2.29,7.12-2,11-2.63-5.37-2.82-9.1-3-15-.12-4.03-1.06-10.16,2-13Z"/>
    <path class="cls-10" d="M21.2,127.25c3.38,1.2,4.25.79,8,3h-5c-.75,1.81.78,3.07,1,4,.2.83-.13,2.06,0,3h-1c-.2-.64-.93-1.45-1-2-.26-2.11.95-4.81-1.7-5.81-1.64-.62-4.43-.52-6.3-1.19,0,1.66-.03,3.33,0,5,.01.77-.85,1.49,1,3-.41-.24-2.21.44-2.86-.14-.48-.43.02-1.54-.14-1.86-.29-3.88.12-7.57,2-11,.35-.64,1.13-1.12,1.01-1.99h.98c-.44,3.74.73,4.83,4.01,5.99Z"/>
    <path class="cls-1" d="M33.2,134.25h1l1.99,5.99c-.43.41-10.72-.56-10.99-2.99-.13-.94.2-2.17,0-3h8Z"/>
    <path class="cls-4" d="M23.2,135.25c.07.55.8,1.36,1,2-.8,5.55-6.03.18-8-1-1.85-1.51-.99-2.23-1-3,2.06,2.04,5.27,2.08,8,2Z"/>
    <path class="cls-6" d="M84.2,155.25c-4.06,1.1-7.88.91-12,1v-2c3.07.29,6.64-.43,9.61-.06,1.45.18,2.26,1.04,2.39,1.06Z"/>
    <path class="cls-6" d="M91.2,155.25c-1.2.03-2.81,1.01-4,1v-2s4,1,4,1Z"/>
    <path class="cls-14" d="M109.2,107.25v6.01s2,0,2,0c-.07,4.24.33,8.86,0,13-.18,2.21-.22,2.88-1,5-.66-.05-1.35.08-2,0-.29-4.46-1.65-6.42-2-9-.65-4.81.38-10.18,1.08-14.94l1.92-.06Z"/>
    <path class="cls-4" d="M107.2,133.25c.17.63,1.14,1.43.86,2.37l-.82,1.13-8.53,2.51-.51-5.01c.33-.02.67.02,1,0,2.75-.14,5.32-.44,8-1Z"/>
    <path class="cls-8" d="M110.2,131.25c-.43,1.17-.23,2.79-1.99,3-.07-.99.05-2.01,0-3,.65.08,1.34-.05,2,0Z"/>
    <path class="cls-20" d="M13.2,73.25c-3.03.56-1.92-1.53-2-3.45-.25-6.23-.74-16.2-.05-22.09.15-1.3.18-2.77,1.56-3.44,2.31-1.12,1.2,2.58,1.48,2.99v9c0,3.25.24,6.82,0,10-.15,1.96-.6,4.07-1,6-.07.32.08.7,0,1Z"/>
    <path class="cls-11" d="M97.2,100.25c.46,1.79,1.53,3.67,2,6,.22,1.08.91,2.31,1,3,.21,1.54-.11,3.38,0,5-25.34,4.88-51.69,5.24-77.01-.01,2.52-2.63-.03-7.05,0-7.99.01-.33,0-.67,0-1,.66-.04,1.34.07,2,0v-4.02c2.04-2.12,13.85,4.22,16.73,4.77,8.82,1.68,22.41-3.69,31.02-5.52,8.2-1.74,15.91.29,24.25-.25Z"/>
    <path class="cls-11" d="M14.2,66.25c3.19.02,2.77-1.14,2.54,2.03-.19,2.55-1.03,5.23-.54,7.97l5.99-2.99c-1.06,2.06.96,5.14,1,6,.37,7.74-4.56,17.32-6,25-4.63-4,.76-26.38-4-32,.4-1.93.85-4.04,1-6Z"/>
    <path class="cls-6" d="M23.2,106.25c-.03.94,2.52,5.36,0,7.99,25.31,5.25,51.66,4.89,77.01.01.02.33-.01.67,0,1s0,.67,0,1c-26.1,4.13-51.88,3.85-78,0,.3-3.3-.01-6.65,1-10Z"/>
    <path class="cls-20" d="M109.2,101.25c-.44,2.27.29,3.95,1,6h-1l-1.92.06c-.7,4.76-1.73,10.13-1.08,14.94h-1l-3.17-6.79-1.83-.21c-.01-.33.02-.67,0-1-.11-1.62.21-3.46,0-5l4.88-.11c1.64-1.95.09-5.55.12-5.89.15-1.74.97-2.76,1-3,1,.2,2.17.39,3,1Z"/>
    <path class="cls-13" d="M107.2,84.25c-.24,5.37-.4,10.66-1,16-.03.24-.85,1.26-1,3h-1c-.78-1.95-1.69-9.94-1-11,.06-.09,1.74.4,2.02-.65.53-1.99-.37-5.13-.01-7.35h2Z"/>
    <path class="cls-8" d="M111.2,113.25h-2s0-6,0-6h1c.15.44,1.57,1.21,1.88,2.73.46,2.19-.88,3.06-.88,3.27Z"/>
    <path class="cls-15" d="M25.2,95.25c.42-1.45,2.93-8.87,3.66-9.04l64.73-.02c1.06.29,3.05,11.9,3.61,14.06-8.34.54-16.05-1.5-24.25.25-8.6,1.83-22.19,7.2-31.02,5.52-2.88-.55-14.69-6.89-16.73-4.77v4.02c-.66.06-1.33-.04-2,0,.05-2.26,1.47-5.69,2-8h1.99s.01-1.49.01-1.49l-2.01-.51Z"/>
    <path class="cls-14" d="M105.2,103.25c-.03.33,1.52,3.93-.12,5.89l-4.88.11c-.09-.69-.78-1.92-1-3,2.01-.74,5.45-.14,5-3h1Z"/>
    <path class="cls-11" d="M25.2,95.25l2.01.51v1.48s-2.01,0-2.01,0c.14-.6-.16-1.45,0-2Z"/>
    <path class="cls-13" d="M100.2,85.25c-.04-.66.03-1.34,0-2,.21.52,1.75.78,0,2Z"/>
    <rect class="cls-20" x="51.2" y="27.25" width="20" height="6"/>
    <path class="cls-1" d="M92.2,30.25c.02.1-.06,1.16,0,2,.04.66-.01,1.34,0,2-4.45,1.16-9.64-.13-14,0,.1-.63-.16-1.48,0-2,.28-.94.68-2.01,1-3,3.94,1.93,8.72.68,13,1Z"/>
    <path class="cls-9" d="M92.2,30.25c-4.28-.32-9.06.93-13-1,.16-.5-.14-1.37,0-2l12.58.95c.56.63.28,1.44.42,2.05Z"/>
    <path class="cls-14" d="M45.2,27.25l5.02.58v5.43s-6.02,0-6.02,0c-.69-2.53.39-4,1-6Z"/>
    <path class="cls-14" d="M73.2,34.25v-7.01s4.42-.01,4.42-.01l.58,5.02c-.16.52.1,1.37,0,2-1.66.05-3.34-.04-5,0Z"/>
    <path class="cls-6" d="M81.2,133.25l-1.5,4-.5-3c-4.53-.26-1.64,5.45-4.63,6.88-2.86.98-28.73.15-31.37-1.36-1.67-.96-2.17-4.65-1.99-6.51h40Z"/>
    <path class="cls-14" d="M100.2,115.25l1.83.21,3.17,6.79c.34,4.22-2.13,3.97-5,5-.03-3.66.05-7.34,0-11,0-.33.01-.67,0-1Z"/>
    <path class="cls-4" d="M108.2,131.25c-.33-.04-.68.06-1,0-2.59-.49-5-1.68-8-1v-2c.35-.11.7-.89,1-1,2.87-1.03,5.34-.78,5-5h1c.35,2.58,1.71,4.54,2,9Z"/>
    <path class="cls-12" d="M99.2,131.25v3c-.33.02-.67-.02-1,0s-.67-.02-1,0c-2.64.18-5.35-.12-8,0v-2c.37-.32.76-.85,1-1,2.74-1.51,6.26-1.51,9,0Z"/>
    <path class="cls-12" d="M29.2,130.25c1.82,1.08,4.23,1.6,4,4h-8c-.22-.93-1.75-2.19-1-4h5Z"/>
    <rect class="cls-6" x="59.7" y="118.74" width="2.01" height="13.01" transform="translate(-64.56 185.92) rotate(-89.98)"/>
    <path class="cls-6" d="M99.2,128.25v3c-2.74-1.51-6.26-1.51-9,0,5.21-3.24,4.64-1.66,9-3Z"/>
    <path class="cls-6" d="M77.7,139.25c.65.33.65.67,0,1v-1Z"/>
    <path class="cls-9" d="M23.2,135.25c-2.73.08-5.94.04-8-2-.03-1.66,0-3.34,0-5,1.87.67,4.66.57,6.3,1.19,2.64,1,1.43,3.7,1.7,5.81Z"/>
    <path class="cls-9" d="M107.2,131.25c.1.63-.15,1.45,0,2-2.68.56-5.25.86-8,1v-4c3-.68,5.41.51,8,1Z"/>
    <path class="cls-4" d="M97.2,134.25c.05,1.7.51,4.09-1.67,4.84-.88.3-10.29,2.29-9.35-.35l3.02-4.49c2.65-.12,5.36.18,8,0Z"/>
    <rect class="cls-11" x="90.21" y="141.26" width="3.99" height=".98"/>
  </g>
</svg>