<?xml version="1.0" encoding="UTF-8"?>
<svg id="_图层_2" data-name="图层 2" xmlns="http://www.w3.org/2000/svg" viewBox="0 0 123.11 149.66">
  <defs>
    <style>
      .cls-1 {
        fill: #1b1c1b;
      }

      .cls-2 {
        fill: #343b3b;
      }

      .cls-3 {
        fill: #3d4444;
      }

      .cls-4 {
        fill: #242322;
      }

      .cls-5 {
        fill: #542523;
      }

      .cls-6 {
        fill: #aaadb2;
      }

      .cls-7 {
        fill: #282b29;
      }

      .cls-8 {
        fill: #d4d8db;
      }

      .cls-9 {
        fill: #bbbdc1;
      }

      .cls-10 {
        fill: #d8dadc;
      }

      .cls-11 {
        fill: #8e9298;
      }

      .cls-12 {
        fill: #545c5e;
      }

      .cls-13 {
        fill: #393d3e;
      }

      .cls-14 {
        fill: #474e51;
      }

      .cls-15 {
        fill: #dfdfe1;
      }

      .cls-16 {
        fill: #ba3531;
      }

      .cls-17 {
        fill: #cf433c;
      }
    </style>
  </defs>
  <g id="_图层_1-2" data-name="图层 1">
    <path class="cls-7" d="M78.08.18c13.7.38,30.98-.82,33.76,16.74.44,2.78-.37,8.72.7,10.3,1.24,1.83,15.34,4.29,8.9,13.04l-9.36-2.08v26h-2v-27.5c0-.17-1.35-1.57-1.99-1.5-.27,18.64.33,37.36-.01,56-.08,4.45.19,8.62-1,13-2.09-4.03-5.27-17.23-6-22-.51-3.3.37-7.55,0-10.99l-3.99,4.99-2.48-1c3.32.93,3.34-3.9,3.52-6.47.34-4.85.6-9.94.96-14.54.84,3.96-.54,8.39,0,12.52.18,1.38.74,3.13,1.99,1.48.91-14.67-.53-30.19,5.02-43.99l3.98,2.99c-.1-4.21.64-11.87-1.93-15.36-.79-1.07-1.88-.49-2.07-.63-1.32-1.03-2.8-1.82-4-3,1.26.47,2.63.94,3.99,1,2.89-2.59-13.38-7.4-14.99-6.99-.44,2.53.38,1.81,1.99,2.45,2.28.9,4.68,1.66,7,2.55-5.73.5-11.07-3.83-15.74-4.77-2.19-.44-4.28.01-6.26-.23V.18ZM121.08,37.18c-.57-5.31-7.2-8.59-12-8-2,6.79,6.79,7.76,12,8ZM104.08,35.68c-1.69,6.62,1.25,20.06,0,27.5,2.35.14,1.77.33,2.01-1.49.64-4.85-1.53-11.22-1.04-17.04.29-3.52,2.84-6.08,1.02-10.47-.23-.3-1.89,1.11-1.99,1.5ZM106.08,90.18v-20.5c0-.17-1.35-1.58-2-1.5v17.5c0,.74,1.63,2.93,1.01,4.49h.99Z"/>
    <path class="cls-4" d="M104.08,117.18c-.45,4.8,1.35,2.1,2.71,3.26.57.49.17,1.61.29,1.74l-5-1-1,7.99,6.58-.94-.58-6.05c.12.12,1.72-.46,2.02.66.62,2.33-.89,6.07.48,8.35.61,0,1.45-7.72,1.5-9.01h1c-.38,5.25-.36,19.04-4.32,22.68-2.29,2.1-9.84,3.12-13.14,3.36-15.85,1.16-44,2.59-59.06-.05-2.07-.36-2.32-1.96-2.48-1.99l1-1.99c-2.23-.24-4.85.3-7-.01v-2c5.15.51,12.87,2.26,17.5,2.09,1.5-.05,3.77.05,4.49-1.6,1.21-2.8-1.81-2.87-3.76-3.2-4.93-.84-10.93-.67-16.24-1.29v-1c14.22,2.36,29.11.34,43.55.98l1.45,1.02c-4.91.07-17.74-.96-21.33.17-1.32.42-1.94,1.45-1.67,2.82,3.64.15,7.36-.19,10.99,0l.58,5.02c2.07-.25,6.72.76,7.98-.96,2.2-3.02-1.74-3.72-4.56-4.06,1.73-2,5.5-.68,8-1,.09.99-.08,2.01,0,3,6.46-1.24,27.04-.42,31.58-3.92,1.38-1.06,1.61-2.44,1.42-4.07-9.86,3.78-19.74,2.77-29.99,3l21.86-3.14.15-4.86-4-.99c7.83,1.28,4.05-9.27,9-13.01ZM107.07,142.19l-16.99,3.98c3.83.02,8.54-.3,12.23-1.26,1.15-.3,4.61-1.28,4.76-2.72ZM60.09,143.19h-9.01s0,2.99,0,2.99l9,1v-3.99ZM49.08,145.19c-2.82.07-5.68-.12-8.51,0-1.21.05-3.72-.76-3.48.99,3.79-.34,7.03.11,10.73.79,1.93.36,1.21-.08,1.26-1.78ZM86.08,145.19c-2.15.05-4.35-.11-6.51,0-1.22.06-3.71-.76-3.48.99,2.15-.05,4.35.11,6.51,0,1.22-.06,3.71.76,3.48-.99Z"/>
    <path class="cls-7" d="M14.08,14.18c-1.46,3.94-1.94,8.8-1.99,13,2.59.36,2.43-1.3,2.99-3h2c.92,4.19,2.3,6.68,3,12h-1c-.06-.23-2.84-1.82-2.01-3.99h-.98c-.2,2.63.24,5.38-.01,7.99h-2c-.15-1.89,1.14-4.69-1.99-3.99-.04,10.98.03,22.01,0,32.99-.03,8.65.03,17.35,0,26-.01,4.32.05,8.68,0,13h-2c1.46-18.67,2.31-42.76.99-61.49-.21-3.05-1.65-6.19-1-9.51-.78-.91-7.44,5.22-9.55,2.05-.96-1.44-.46-4.32.22-5.86.72-1.62,2.21-1.06,2.33-1.19-.33.32-1.25,4.74-1,4.99,4.59-.31,13.19-1.88,11.99-7.99-.96-.95-10.18,2.21-11,2.99.29-.32.03-1.88,1.56-2.9,1.32-.88,4.24-.91,4.99-2.05.99-1.51.2-5.1.69-7.31.59-2.69,1.84-4.48,2.76-6.74l1,1Z"/>
    <path class="cls-4" d="M47.08.18v2c-10.16,1.01-20.68,1.84-29,8-1.07.79-1.25,1.2-2,2-.13.14-1.3-.27-1.79.21-.51.54-.06,1.4-.21,1.79l-1-1c.76-1.86.1-2.9,2-5.51s4.85-4.19,7.73-5.27C30.72-.57,39.22.33,47.08.18Z"/>
    <path class="cls-3" d="M110.08,91.18c.04-3.65-.04-7.34,0-10.99h1.99s0,27.49,0,27.49c0,5.38.43,8.49,0,14.5h-1c.2-5.41-.93-10.38-1-15-.08-5.31-.06-10.69,0-16Z"/>
    <path class="cls-12" d="M12.08,108.18c-.08,7.48-1.61,11.57,0,20h-1c-1.58-9.58-1.79-9.91-1-20h2Z"/>
    <path class="cls-13" d="M17.08,142.18c3.57.52,6.73,1.53,10,2,2.15.31,4.77-.23,7,.01l-1,1.99c-.33-.05-.68.05-1,0-5.22-.88-12.42.49-16.99-3.51-.27-2.9.92-.64,1.99-.49Z"/>
    <path class="cls-1" d="M78.08.18v2c-1.3-.16-2.69.1-4,0-9.51-.74-14.47-.67-24,0-.99.07-2.02-.1-3,0V.18C57.34-.01,67.83-.1,78.08.18Z"/>
    <path class="cls-9" d="M110.08,91.18c-.06,5.31-.08,10.69,0,16-2.92.24-2.3-1.65-3-3,1.19-4.38.92-8.55,1-13h2Z"/>
    <path class="cls-4" d="M13.08,133.18c.66,2.1,3.36,5.45,4,8v1c-1.07-.16-2.26-2.41-1.99.49,4.57,4,11.78,2.64,16.99,3.51.59,2.88-1.62,2.14-3.49,2.04-2.85-.16-9.85-1.16-12.17-2.4-4.93-2.62-4.55-12.85-5.34-17.64h1c.28,1.47.61,3.75,1,5Z"/>
    <path class="cls-8" d="M19.08,21.18c.33,1.01.77,1.44,1,2,1.55,3.73,2.87,3.75,3,4,.23.45-.45,2.4.1,2.84.2.16,3.45.71,4.9,1.16l-5.87,2.63.88,14.36c1.74.24.94-2.27.99-3.48.14-3.82-.12-7.69,0-11.5l6.99-1.01c.22.34-.25,1.79,0,2,.46.37,2.99-.95,4-1,17.45-.9,37.4-.37,55,0,.67.01,1.34-.03,2,0,1.99.08,4.01-.07,6.01,0,.12,4.5-.18,9.05,0,13.55.08,1.92-1.03,4.01,2,3.45-.08.89-.87,2.34-1,4-.36,4.6-.62,9.69-.96,14.54-.18,2.56-.19,7.39-3.52,6.47l2.48,1v4c-6.55-.34-16.95,2.56-23.29,1.02-1-.24-1.65-3.11-3.13-4.09-2.14-1.42-14.03-1.35-16.86-.71-3.64.82-3.46,4.28-6.2,4.8-6.96,1.33-16.74-.97-23.9-1.07-1.11.31-2.27,10-2.61,12.06h-1c1.77-9.87,0-19.6,0-29,0-.33,0-.67,0-1-.01-3.77,1.18-8.3,1-13-.1-2.58-.91-4.68-1-6-.15-2.26.28-4.84,0-7-.7-5.32-2.08-7.81-3-12-.25-1.13.16-2.75.01-4l1.99,1ZM24.07,53.18v-1.99h-.98v1.99h.98ZM25.08,72.68c-.95-5.29.69-12.91,0-18.5l-2.08,14.5c-.28,12.26,14.79,10,15.09,8.99.68-2.36-2.17-1.39-3.5-1.48-3.07-.21-8.74.75-9.5-3.51Z"/>
    <path class="cls-8" d="M47.08,2.18c.98-.1,2.01.07,3,0,1.16,4.54-4.45,2.76-7.79,3.73-2.36.69-1.82,1.41.3,1.3,3.95-.2,8.17-1.78,12-2.02,5.46-.34,11.84.64,17.02.06,2.17-.24,1.68-1.58,2.46-3.08,1.31.1,2.7-.16,4,0,1.97.24,4.07-.21,6.26.23,4.67.94,10.01,5.27,15.74,4.77.48.18,1.11.67,2,1,1.2,1.18,2.68,1.97,4,3l-1,4h1.99c.61,3.06-2.56,3.05-1.99,0l-3,1c-.16-.15-3.17-1.58-4-2,3.22-3.55-3.16-5.62-5.59-5.93-3.27-.42-2.43.27-2.41,2.93-22.13-6.4-51.74-5.56-71,8-.36-1.27-1.26-2.46-1.01-4-4.43,1.76-1.74,5.23-2.99,9-.56,1.7-.41,3.36-2.99,3,.05-4.2.54-9.06,1.99-13,.14-.39-.31-1.25.21-1.79.49-.48,1.67-.08,1.79-.21l.51.99h1.48s0-2.99,0-2.99c8.32-6.16,18.84-6.99,29-8Z"/>
    <path class="cls-15" d="M106.08,11.18c.19.15,1.28-.44,2.07.63,2.57,3.49,1.83,11.15,1.93,15.36l-3.98-2.99c-5.55,13.8-4.11,29.32-5.02,43.99-1.26,1.66-1.82-.1-1.99-1.48-.54-4.13.84-8.56,0-12.52.13-1.66.92-3.11,1-4,.55-6.22.7-14.45-2-20,1.39-.31,1.98-.08,2.91-1.57,1.81-2.9,3.97-9.78,1.09-12.43l3-1c-.57,3.05,2.6,3.06,1.99,0h-1.99s1-4,1-4Z"/>
    <path class="cls-8" d="M107.08,104.18c.7,1.35.08,3.24,3,3,.07,4.62,1.2,9.59,1,15-.05,1.29-.89,9-1.5,9.01-1.38-2.27.13-6.02-.48-8.35-.3-1.12-1.9-.54-2.02-.66-.12-.13.28-1.25-.29-1.74-1.36-1.16-3.16,1.53-2.71-3.26.01-.11,1.43-.79,1.01-1.99h-3.02c1.38-1.48-.18-4.39.01-5.01.04-.12,1.46-.49,1.82-1.68.76-2.53-2.98-22.01-3.82-26.32h1c.73,4.77,3.91,17.97,6,22ZM106.34,113.16c0-.68-.55-1.23-1.23-1.23s-1.23.55-1.23,1.23.55,1.23,1.23,1.23,1.23-.55,1.23-1.23Z"/>
    <path class="cls-9" d="M121.08,37.18c-5.21-.24-14-1.21-12-8,4.8-.59,11.42,2.68,12,8Z"/>
    <path class="cls-14" d="M104.08,35.68c.1-.39,1.76-1.8,1.99-1.5,1.81,4.4-.73,6.95-1.02,10.47-.48,5.82,1.69,12.19,1.04,17.04-.24,1.82.34,1.63-2.01,1.49,1.25-7.44-1.69-20.88,0-27.5Z"/>
    <path class="cls-14" d="M106.08,90.18h-.99c.62-1.57-1.01-3.76-1.01-4.5v-17.5c.65-.08,2,1.33,2,1.5v20.5Z"/>
    <path class="cls-5" d="M100.08,7.18c-2.32-.89-4.73-1.65-7-2.55-1.62-.64-2.44.09-1.99-2.45,1.61-.41,17.88,4.4,14.99,6.99-1.36-.06-2.73-.52-3.99-1-.89-.33-1.52-.82-2-1Z"/>
    <path class="cls-15" d="M97.08,76.18l3.99-4.99c.38,3.45-.5,7.69,0,10.99h-1c-.1-.52.26-1.24-.19-1.8-.6-.56-1.96-.15-2.81-.2v-4Z"/>
    <path class="cls-9" d="M21.08,92.18c-.9,5.34-1.72,10.9-2.05,16.33.26,1.05,3.03,1.54,4.05,1.67.33.04.67-.04,1,0,1.26,1.41,3.24,1.68,5,2,.62.11,1.36-.09,2,0,15.4,2.25,28.84,1.91,44,1,2.31-.14,4.71.21,7,0,6.51-.6,10.79-1.31,17-3,.79-.22,2.08.15,3,0-.19.62,1.37,3.52-.01,4.99h3.02c.42,1.21-.99,1.89-1.01,2.01-4.94,3.74-1.17,14.29-9,13.01l4,.99-.15,4.86-21.86,3.14c-1,.02-2-.01-3,0l-1.45-1.02c-14.44-.63-29.33,1.38-43.55-.98-1.54-.26-4.45.67-5.56-.94l-.44-5.06,4-.99c-6.95.08-5.44-10.06-8.01-15.01h-1.98s1.06,4.29,1.06,4.29c-.14.85-1.53,1.11-2.06,1.71-2.61,2.96-2.69,7-2,11l-1,1c-.39-1.25-.72-3.53-1-5-1.61-8.43-.08-12.52,0-20,.05-4.32-.01-8.68,0-13h3c.21,3.27-.58,6.82.5,9.99,2.2-3.03,2.18-7.43,2.99-11.05.22-1,1.49-1.78,1.52-1.94h1ZM51.07,117.19l-30.99-3c-.16,1.54,2.65,1.41,3.81,1.67,6.72,1.47,16.88,2.61,23.7,2.32,1.22-.05,3.71.76,3.48-.98Z"/>
    <path class="cls-12" d="M14.08,132.18c1,5.78,10.68,5.5,15,6,5.3.62,11.31.45,16.24,1.29,1.94.33,4.97.4,3.76,3.2-.72,1.65-2.99,1.55-4.49,1.6-4.63.17-12.35-1.58-17.5-2.09l-10-1c-.64-2.55-3.34-5.9-4-8l1-1Z"/>
    <path class="cls-12" d="M77.08,139.18c10.26-.23,20.13.78,29.99-3,.19,1.63-.04,3.01-1.42,4.07-4.54,3.51-25.12,2.69-31.58,3.92-.08-.99.09-2.01,0-3-.06-.66.04-1.34,0-2,1-.01,2,.02,3,0Z"/>
    <path class="cls-1" d="M16.08,121.18c.53-.6,1.92-.86,2.06-1.71l-1.06-4.28h1.98c2.57,4.94,1.06,15.09,8.01,15l-4,.99.44,5.06c1.12,1.6,4.02.68,5.56.94v1c-4.32-.5-14-.22-15-6-.69-4-.61-8.04,2-11l-1,8h6s-1.52-6.98-1.52-6.98l-3.48-1.02Z"/>
    <path class="cls-2" d="M74.08,139.18c.04.66-.06,1.34,0,2-2.5.32-6.27-1-8,1-1.3-.15-2.69.07-4,0-3.64-.2-7.35.15-10.99,0-.27-1.37.35-2.41,1.67-2.82,3.59-1.13,16.42-.1,21.33-.17Z"/>
    <polygon class="cls-16" points="107.08 122.18 107.66 128.23 101.08 129.17 102.09 121.18 107.08 122.18"/>
    <path class="cls-3" d="M66.08,142.18c2.82.33,6.75,1.04,4.56,4.06-1.26,1.73-5.91.72-7.98.96l-.58-5.02c1.31.07,2.7-.15,4,0Z"/>
    <polygon class="cls-13" points="60.09 143.19 60.08 147.18 51.07 146.18 51.08 143.19 60.09 143.19"/>
    <path class="cls-3" d="M107.07,142.19c-.15,1.44-3.61,2.43-4.76,2.72-3.68.95-8.4,1.28-12.23,1.26l16.99-3.98Z"/>
    <path class="cls-13" d="M49.08,145.19c-.04,1.69.68,2.13-1.26,1.78-3.7-.68-6.95-1.13-10.73-.79-.23-1.74,2.27-.94,3.48-.99,2.83-.12,5.69.07,8.51,0Z"/>
    <path class="cls-2" d="M86.08,145.19c.23,1.75-2.26.93-3.48.99-2.16.1-4.35-.06-6.51,0-.23-1.75,2.26-.93,3.48-.99,2.16-.1,4.35.06,6.51,0Z"/>
    <path class="cls-1" d="M27.08,142.18v2c-3.27-.47-6.43-1.48-10-2v-1l10,1Z"/>
    <path class="cls-14" d="M19.08,36.18c.36,1.39.06,5.2,0,7-.08,2.52-.03,3.73,0,6,.06,4.32-.04,8.68,0,13l-2,2c-.02-4.04-.81-10.68-1-15.55-.08-1.92,1.03-4.01-2-3.45-.02-1,.03-2,0-3h2c.09-.66-.06-1.35,0-2,.25-2.61-.19-5.37.01-8h.98c-.83,2.17,1.95,3.77,2.01,4Z"/>
    <path class="cls-9" d="M12.08,69.18c.04-10.98-.03-22.01,0-32.99,3.13-.69,1.85,2.1,1.99,3.99.05.66-.02,1.34,0,2,.03,1-.02,2,0,3,.11,6.97-.77,14.24,1,21-1.37,1.33-.81,1.54-1,3h-2Z"/>
    <path class="cls-9" d="M3.08,32.18c.81-.78,10.04-3.94,11-2.99,1.2,6.11-7.4,7.68-11.99,7.99-.26-.25.67-4.68,1-4.99Z"/>
    <path class="cls-15" d="M14.08,69.18c-.08.64.04,1.34,0,2-.46,8.3.47,15.88,1,24h-3c.03-8.65-.03-17.35,0-26h2Z"/>
    <path class="cls-6" d="M19.08,19.18c.16.56-.17,1.47,0,2l-1.99-1c.15,1.25-.26,2.87-.01,4h-2c1.25-3.77-1.44-7.24,2.99-9-.25,1.54.65,2.73,1.01,4Z"/>
    <path class="cls-4" d="M20.08,43.18h-1c.06-1.8.36-5.61,0-7h1c.28,2.16-.15,4.74,0,7Z"/>
    <path class="cls-4" d="M16.08,40.18c-.06.65.09,1.34,0,2h-2c-.02-.66.05-1.34,0-2h2Z"/>
    <path class="cls-6" d="M18.08,10.18v2.99s-1.49,0-1.49,0l-.51-.99c.75-.8.93-1.21,2-2Z"/>
    <path class="cls-12" d="M74.08,2.18c-.78,1.49-.29,2.83-2.46,3.08-5.18.58-11.56-.39-17.02-.06-3.83.24-8.05,1.82-12,2.02-2.12.11-2.66-.61-.3-1.3,3.33-.97,8.94.81,7.79-3.73,9.53-.67,14.49-.74,24,0Z"/>
    <path class="cls-7" d="M90.08,11.18c1.5.43,6.78,2.38,8,3,.83.42,3.84,1.85,4,2,2.88,2.65.72,9.53-1.09,12.43-.93,1.49-1.52,1.26-2.91,1.57-2.35.53-6.02-1.29-6,3-.66-.03-1.33.01-2,0v-1l-.61-2.02h-55.89c-1.42.55.47.97.5,1.02.4.61.64,1.36,1,2-1,.05-3.53,1.37-4,1-.26-.21.22-1.66,0-2-1.05-1.59-2.02-.7-3-1-1.45-.45-4.71-1-4.9-1.16-.55-.44.13-2.39-.1-2.84v-6c-2.19-.52-1.94.54-3,2-.23-.56-.67-.99-1-2-.17-.53.16-1.44,0-2,19.26-13.56,48.87-14.4,71-8ZM63.08,10.18c-1.09-.02-2.96-1.08-5.44-1.03-2.62.05-23.72,3.12-24.56,4.04l1.62,5.05c5.64-.14,11.29,0,16.93-.05,1.46-.01,2.94-1,3.45-1.01,8.29-.05,17.42.84,26,1,3.47.06,7.03.12,10.51,0,1.21-.04,3.72.75,3.48-.99-4.65-3.98-8.95-5.06-14.99-6.01s-10.83-.86-17-1ZM50.08,26.18c.12.31-.14.8,0,1l1,1h22l1.01-9.01-23.36.15c-3.06,1.73-1.58,4.45-.64,6.86ZM33.09,20.18c-2.01.19-6.42-.73-7.57.94l-.44,7.07h8.01s0-8.01,0-8.01ZM41.09,20.15h-6.02s.01,8.05.01,8.05h6.02s-.01-8.05-.01-8.05ZM48.09,20.15h-6.02s.01,8.05.01,8.05h6.02s-.01-8.05-.01-8.05ZM81.09,20.16h-5.02s.01,8.05.01,8.05h5.02s-.01-8.05-.01-8.05ZM89.09,20.18h-7.01c.25,2.16-.81,7.31.96,8.59l5.93-.7.12-7.89ZM97.97,20.3l-7.45.81-.32,6.95c2.65.47,5.91,2.29,7.98-.3l-.21-7.46Z"/>
    <path class="cls-4" d="M21.08,92.18c.35-2.06,1.51-11.75,2.61-12.06,7.16.1,16.94,2.4,23.9,1.07,2.74-.52,2.56-3.97,6.2-4.8,2.83-.64,14.72-.71,16.86.71,1.48.98,2.13,3.85,3.13,4.09,6.34,1.54,16.75-1.36,23.29-1.02.85.04,2.21-.36,2.81.2.45.56.09,1.28.19,1.8.83,4.31,4.58,23.79,3.82,26.32-.36,1.19-1.78,1.56-1.82,1.68-.92.15-2.21-.22-3,0l3.03-3.49-4.17-24.38c-9.8.24-20.12,1.61-29.87,1.86-11.21.29-21.87-.2-33-1-2.68-.19-9.33-1.87-10.56-.05-.54.8-3.21,16.8-3.44,19.05s.15,4.72,0,7.01h2s0,.99,0,.99c-1.01-.13-3.79-.62-4.05-1.67.32-5.43,1.15-10.99,2.05-16.33ZM51.08,82.18h21c.72-2.38-1.77-2.68-3.58-2.9-1.38-.16-21.88-.98-17.42,2.9Z"/>
    <path class="cls-4" d="M14.08,45.18c3.03-.56,1.92,1.53,2,3.45.19,4.86.98,11.5,1,15.55,0,.33.02.67,0,1-.59.33-1.67.68-2,1-1.77-6.76-.89-14.03-1-21Z"/>
    <path class="cls-4" d="M20.08,92.18c-.03.17-1.3.95-1.52,1.94-.81,3.62-.79,8.02-2.99,11.05-1.07-3.17-.28-6.72-.5-9.99-.53-8.12-1.46-15.7-1-24h2c0,5.65-.01,11.34,0,16.99,2.86.47,1.66-.6,2.13-2.31,1.54-5.61.65-11.45.87-17.18l-3,1.5c0-2.46.88-3.02,1-5,.72-.4,2.41.06,3-2,0,9.4,1.77,19.13,0,29Z"/>
    <path class="cls-3" d="M90.08,32.18v1c-17.6-.37-37.55-.9-55,0-.36-.64-.6-1.39-1-2l56,1Z"/>
    <path class="cls-12" d="M25.08,72.68c.76,4.26,6.43,3.3,9.5,3.51,1.33.09,4.18-.88,3.5,1.48-.29,1.01-15.37,3.27-15.09-8.99l2.08-14.5c.69,5.59-.95,13.21,0,18.5Z"/>
    <path class="cls-12" d="M98.08,30.18c2.7,5.55,2.55,13.78,2,20-3.03.56-1.92-1.53-2-3.45-.18-4.5.13-9.05,0-13.55-1.99-.06-4.01.09-6.01,0-.02-4.29,3.65-2.47,6-3Z"/>
    <path class="cls-3" d="M31.08,32.18l-6.99,1.01c-.12,3.82.14,7.68,0,11.5-.05,1.21.75,3.72-.99,3.48l-.88-14.36,5.87-2.63c.98.3,1.95-.59,3,1Z"/>
    <path class="cls-4" d="M21.08,49.18c.18,4.7-1.01,9.23-1,13h-1c-.04-4.32.06-8.68,0-13h2Z"/>
    <path class="cls-7" d="M20.08,43.18c.09,1.32.9,3.42,1,6h-2c-.03-2.27-.08-3.48,0-6h1Z"/>
    <path class="cls-6" d="M20.08,23.18c1.06-1.46.81-2.52,2.99-2v6c-.12-.25-1.44-.27-2.99-4Z"/>
    <rect class="cls-12" x="23.09" y="51.19" width=".98" height="1.99"/>
    <path class="cls-7" d="M16.08,70.18c0,.33,0,.67,0,1h-2c.04-.66-.08-1.36,0-2,.19-1.46-.37-1.67,1-3,.33-.32,1.41-.67,2-1-.12,1.98-1.01,2.54-1,5Z"/>
    <path class="cls-7" d="M20.08,63.18c-.59,2.06-2.28,1.6-3,2,.02-.33,0-.67,0-1l2-2h1c0,.33,0,.67,0,1Z"/>
    <path class="cls-9" d="M98.08,14.18c-1.22-.62-6.5-2.57-8-3-.01-2.66-.86-3.35,2.41-2.93,2.42.31,8.81,2.38,5.59,5.93Z"/>
    <circle class="cls-9" cx="105.1" cy="113.16" r="1.23"/>
    <path class="cls-2" d="M68.08,84.18c9.74-.25,20.07-1.63,29.87-1.86l4.17,24.38-3.03,3.49c-6.21,1.69-10.49,2.4-17,3,1.62-4.39-8.41-19.32-11.45-21.05-4.01-2.28-11.8-.3-16.55-.95.12-.11-.27-1.37.25-1.71,1.86-1.24,8.54-1.94,11.01-2.58,1.69-.44,3.22-.33,2.74-2.71Z"/>
    <path class="cls-14" d="M54.08,91.18c4.75.64,12.54-1.34,16.55.95,3.04,1.73,13.07,16.66,11.45,21.05-2.29.21-4.69-.14-7,0-2.97-3-8.41,1.18-11.01-.45-1.78-1.12-3.83-9.64-7.99-10.55.52-5.75-3.35-3.74-3.99-8.63-.46-3.51,1.64-2.04,1.99-2.37Z"/>
    <path class="cls-2" d="M23.08,109.18c-.01-1.64.94-2.46,1.94-3.55,1.79-1.94,18.39-15.24,20.06-13.45l-5.99,18.99c-2.54-.19-5.98-.56-8,1-.64-.09-1.38.11-2,0v-2c-1.63-.17-3.38.21-5,0-.33-.04-.67.04-1,0v-1Z"/>
    <path class="cls-4" d="M75.08,113.18c-15.16.91-28.6,1.25-44-1,2.02-1.56,5.46-1.19,8-1,.18.01,1.11.98,2.42,1.04,4.5.22,9.08-.24,13.58-.04.07-2.83-.17-5.69.02-8.52.11-1.6.96-1.39.97-1.48,4.16.91,6.22,9.43,7.99,10.55,2.59,1.64,8.04-2.55,11.01.45Z"/>
    <path class="cls-3" d="M51.07,117.19c.23,1.75-2.26.93-3.48.98-6.82.29-16.97-.84-23.7-2.32-1.16-.26-3.98-.12-3.81-1.67l30.99,3Z"/>
    <path class="cls-4" d="M24.08,110.18c1.62.21,3.37-.17,5.01,0v2c-1.77-.32-3.75-.59-5.01-2Z"/>
    <polygon class="cls-16" points="16.08 121.18 19.56 122.21 21.08 129.18 15.08 129.18 16.08 121.18"/>
    <path class="cls-3" d="M63.08,10.18l-8,7c-.51,0-1.99.99-3.45,1.01-5.64.05-11.29-.09-16.93.05l-1.62-5.05c.84-.92,21.95-3.99,24.56-4.04s4.36,1.01,5.44,1.03Z"/>
    <path class="cls-10" d="M50.08,26.18c-.94-2.41-2.42-5.13.64-6.86l23.36-.15-1.01,9.01c.59-2.89-1.45-1.9-3.33-2.17-6.23-.9-13.15.87-19.67.17Z"/>
    <path class="cls-14" d="M80.08,11.18l1,7c-8.58-.16-17.71-1.05-26-1l8-7c6.17.14,10.82.03,17,1Z"/>
    <path class="cls-11" d="M34.08,31.18s-1.92-.47-.5-1h55.89s.61,2,.61,2l-56-1Z"/>
    <path class="cls-16" d="M97.97,20.3l.21,7.46c-2.07,2.6-5.33.78-7.98.3l.32-6.95,7.45-.81Z"/>
    <path class="cls-3" d="M80.08,11.18c6.04.95,10.34,2.03,14.99,6.01.24,1.74-2.27.95-3.48.99-3.48.12-7.04.06-10.51,0l-1-7Z"/>
    <path class="cls-16" d="M33.09,20.18v8.01s-8.01,0-8.01,0l.44-7.07c1.15-1.67,5.56-.75,7.57-.94Z"/>
    <path class="cls-9" d="M89.09,20.18l-.12,7.89-5.93.7c-1.77-1.28-.71-6.43-.96-8.59h7.01Z"/>
    <rect class="cls-8" x="35.07" y="20.16" width="6.02" height="8.04" transform="translate(-.04 .06) rotate(-.09)"/>
    <rect class="cls-16" x="42.07" y="20.16" width="6.02" height="8.04" transform="translate(-.04 .07) rotate(-.09)"/>
    <path class="cls-8" d="M50.08,26.18c6.52.7,13.44-1.07,19.67-.17,1.88.27,3.92-.72,3.33,2.17h-22l-1-1c-.14-.2.12-.69,0-1Z"/>
    <rect class="cls-16" x="76.07" y="20.16" width="5.02" height="8.04" transform="translate(-.04 .13) rotate(-.1)"/>
    <path class="cls-10" d="M51.08,28.18l-1-1,1,1Z"/>
    <path class="cls-3" d="M68.08,84.18c.48,2.38-1.05,2.27-2.74,2.71-2.47.65-9.15,1.34-11.01,2.58-.51.34-.13,1.6-.25,1.71-.34.33-2.45-1.14-1.99,2.37.64,4.88,4.5,2.88,3.99,8.63,0,.09-.86-.12-.97,1.48-.19,2.84.05,5.69-.02,8.52-4.5-.21-9.08.26-13.58.04-1.31-.06-2.24-1.03-2.42-1.04l5.99-18.99c-1.67-1.79-18.27,11.51-20.06,13.45-1,1.08-1.95,1.91-1.94,3.55h-2c.14-2.28-.24-4.74,0-7,2.88.64,2.44-.39,3.64-1.84,3.76-4.54,7.27-11.95,10.36-17.16,11.13.8,21.79,1.29,33,1Z"/>
    <path class="cls-2" d="M35.08,83.18c-3.09,5.21-6.6,12.61-10.36,17.16-1.2,1.45-.76,2.48-3.64,1.84.23-2.25,2.9-18.25,3.44-19.05,1.23-1.82,7.88-.14,10.56.05Z"/>
    <path class="cls-17" d="M51.08,82.18c-4.46-3.87,16.04-3.06,17.42-2.9,1.81.21,4.3.51,3.58,2.9h-21Z"/>
    <path class="cls-14" d="M16.08,70.18l3-1.5c-.22,5.73.67,11.57-.87,17.18-.47,1.71.73,2.79-2.13,2.31-.02-5.65,0-11.34,0-16.99,0-.33,0-.67,0-1Z"/>
  </g>
</svg>