<?xml version="1.0" encoding="UTF-8"?>
<svg id="_图层_2" data-name="图层 2" xmlns="http://www.w3.org/2000/svg" viewBox="0 0 113.21 152.5">
  <defs>
    <style>
      .cls-1 {
        fill: #232324;
      }

      .cls-2 {
        fill: #ab1e1b;
      }

      .cls-3 {
        fill: #939190;
      }

      .cls-4 {
        fill: #393739;
      }

      .cls-5 {
        fill: #5f5d5c;
      }

      .cls-6 {
        fill: #dbdad7;
      }

      .cls-7 {
        fill: #ebebe7;
      }

      .cls-8 {
        fill: #aeadab;
      }

      .cls-9 {
        fill: #e2e2df;
      }

      .cls-10 {
        fill: #c4c4c1;
      }

      .cls-11 {
        fill: #1e1e1d;
      }

      .cls-12 {
        fill: #b8b8b8;
      }

      .cls-13 {
        fill: #333133;
      }

      .cls-14 {
        fill: #d1cfce;
      }

      .cls-15 {
        fill: #9e9e9c;
      }

      .cls-16 {
        fill: #98201e;
      }

      .cls-17 {
        fill: #2a2a2a;
      }

      .cls-18 {
        fill: #cc3131;
      }

      .cls-19 {
        fill: #464446;
      }

      .cls-20 {
        fill: #878685;
      }

      .cls-21 {
        fill: #797776;
      }
    </style>
  </defs>
  <g id="_图层_1-2" data-name="图层 1">
    <path class="cls-20" d="M71.01,1.25c-12.25-.59-24.59,1.54-37,2,.7-2.47,2.73-1.72,4.48-2.02,10.09-1.73,22.46-1.55,32.52.02Z"/>
    <path class="cls-9" d="M71.01,1.25c4.84.23,9.6,2.87,14.38.94l2.62,3.06c-2.9.76-8.94,5.2-9,9-14.44-2.32-42.16-2.2-55.38,4.12-1.44.69-2.95,1.25-3.62,2.88-1.38-2.5,1.08-3.84-.99-3.99-2.08,1.94-1.57,4.97-2.01,5.99-.09.22-3.33,1.2-3.68,2.98l-1.32.02c.13-3.31-.02-7.13,2-10,2.19-3.11,9.19-6.35,10-11,.94-.46.58-2.36,1.99-2l1,2.99c.8-6.38,2.37-2.82,7.01-2.99,12.41-.46,24.75-2.59,37-2ZM22.52,12.27c-.83.82-2.38,2.75-2.02,3.96.83-.82,2.38-2.75,2.02-3.96Z"/>
    <path class="cls-1" d="M11.01,123.25c.89,6.37,2.65,19.43,9.26,22.24,2.37,1.01,4.1.35,5.74.76.8.2,1.38.76,3,1-.32.67-.69,1.32-1,2-.42.92.18,2.28-1.63,2.85l-13.37.15c-3.99-5.78-3.58-17.62-4-25-.08-1.33.07-2.67,0-4h2Z"/>
    <path class="cls-7" d="M91.01,6.25c-2,.42,1.04,2.54,1.5,3,1.74,1.75,5.31,4.51,6.5,6,3.24,4.06,3.2,8.05,3,13-3.95-2.08-4.18-7.54-8-10-.17-1.34-1.06-5.32-2.01-3.48.02.94.84,1.77,1.01,2.48-5.06,1.46-9.99-2.35-14-3,.06-3.8,6.1-8.24,9-9,5.09-1.33,2.03.17,3,1ZM91.27,11.23c0-.68-.55-1.23-1.23-1.23s-1.23.55-1.23,1.23.55,1.23,1.23,1.23,1.23-.55,1.23-1.23Z"/>
    <path class="cls-7" d="M94.01,20.25c-1.03-.32-.81-1.23-1-2h1c.08.62.03,1.37,0,2Z"/>
    <path class="cls-12" d="M16.01,119.25c-2.73,3.26-1.78,4.82-1,8,.08.32-.09.7,0,1,.2.67.82,1.34,1,2,.17.62.76,1.31,1,2,.04.1-.84,1.13-.5,2.06,1.02,2.8,2.7,5.91,5.5,6.94h-3c1.32,3.04,4.98,3.82,8,4-.27.09-.62.79-1,1-1.64-.41-3.37.25-5.74-.76-6.61-2.81-8.37-15.88-9.26-22.24-.77-5.52-.74-10.52-1-16-.02-.33.01-.67,0-1l1-2,2-1,3,16Z"/>
    <path class="cls-12" d="M102.01,97.25c.14.1-.43,2.78,2,2-.04,1.66.05,3.34,0,5-.19,5.89-.13,12.64-1,19-1.02,7.48-1.95,13.27-7,19-.41-.57-1.91-1.58-2-2-.3-1.41.21-3.46,0-5,2.22-.7,5.42-5.53,5.82-7.76.53-2.94-.94-4.83-.82-7.24.39-7.74-.06-15.34,0-23,.83.18,2.66-.24,3,0Z"/>
    <path class="cls-6" d="M17.01,23.25c.48,2.09,3.16,1.48,4.08,2.66.27.35,2.76,7.55,2.92,8.34,1.83,9.45,1.45,26.09,1,36-.39,8.55-1.94,16.59-3,25-.08.65.08,1.35,0,2s.05,1.34,0,2l-2,10.99c20.95,5.8,42.87,8.46,64.21,2.72,13.96-3.76,8.27-9.69,6.79-20.71-.29-2.14-.65-3.94-1-6-.5-2.95-.32-6.86-1-10-.29-1.34-.04-2.81-1-4l-1-1c.05-.6.96-1.5,1-2,1.66-1.04,1-3.8,1.02-5.49.13-12.04-1.04-24.82,1.98-36.51,1.51-2.17,3.12-3.27,5.96-2.97.71,1.47.58,3.65,1.04,4.97l-3.03-1.53c-8.36,21.98-2.34,47.15,2.1,69.48.62.28,1.38-.07,1.93.05.04-4.71,1.02-9.38,1.04-13.46.07-13.84-.14-27.71-.04-41.54.5,2.62,3.11,13.92,3,15-.26,2.66-1.92,6.5-1,10.01h2c0,.66,0,1.33,0,1.99-3.02-.56-1.94,1.53-2,3.45-.27,8.16.2,16.39,0,24.55-.34-.24-2.17.18-3,0-.06,7.66.39,15.26,0,23h-1c-.33-.03-.67.04-1,0l-2.5-10.01c-1.08,0-.21,5.9-.52,7.32-.18.84-2.68.68-1.98,2.69-.33-.02-.67.01-1,0-7.18-.25-16.53-1.13-23.55-.87-2.08.08-6.59,2.82-9.01,2.76-.71-.02-.35-2.41-2.91-2.92-6.9-1.37-20.65-1.09-28.08-1.02-2.22.02-4.56,1.05-5.45,1.04-2.38,0-3.21-3.33-6,0l-3-16c-.06-.99.09-2.01,0-3l2.99-1.49,2,5.48c-.01-1.89.43-5.64-.99-7,2.04-7.62,2.95-15.28,4-23,.68-5,1.9-10.71,2-16,.2-10.15-.61-21.47-4.01-31-2.41-1.75-4.79,5.51-4.99,7h-2c.06-2.65-.1-5.34,0-8l1.32-.02c.34-1.78,3.58-2.76,3.68-2.98Z"/>
    <path class="cls-10" d="M100.01,35.25c4.85.67,12.05,1.45,10.99,8-3.78,1,.5-2.82-2.5-2.01-1.59.43-2.44.62-3.49,2.01-1.91,2.5-.92,10.28-1,14h-1c.11-1.08-2.5-12.38-3-15s-.91-4.15-2.05-6.48l2.05-.52Z"/>
    <path class="cls-3" d="M14.01,40.25c-.02.33.01.67,0,1-2.3.7-1.93,2.58-2.06,4.45-.27,4.05-.57,16.81,1.06,19.55.2.34.75.62,1,1v1h-2c-.08,1.32.06,2.67,0,4-.1,1.99.03,4.01,0,6h-2c-.04-11.32.02-22.68,0-34.01-1.32.07-2.69-.11-4,0l.06-1.92,7.94-1.08Z"/>
    <path class="cls-10" d="M14.01,35.25c-.03.27.07,3.45,0,5l-7.94,1.08-.06,1.92c-1.08.1-2.23.88-3.37.99l-2.64-2.49,1.83-.61-.42-2.93c.23-.3,3.77-1.71,4.61-1.97,2.31-.71,5.54-.99,8-1Z"/>
    <path class="cls-15" d="M104.01,69.25c-.04,10.11.24,19.9,0,30-2.43.78-1.86-1.9-2-2,.2-8.16-.27-16.38,0-24.55.06-1.93-1.02-4.01,2-3.45Z"/>
    <path class="cls-21" d="M12.01,77.25c-.1,6.61-.52,14.56,0,21,.04.54.95,1.45,1,2,.09.99-.06,2.01,0,3l-2,1h-1c-.29-9.13.03-18.01,0-27h2Z"/>
    <path class="cls-21" d="M101.01,15.25c1.37,2.97,2.45,5.24,2.89,8.61.34,2.59-.49,8.82.32,10.19.95,1.62,13.61,5.79,7.17,11.13l-6.37-1.93c1.06-1.39,1.9-1.58,3.49-2.01,3-.82-1.28,3.01,2.5,2.01,1.05-6.54-6.15-7.33-10.99-8v-1c2.73-.89,1.91-3.77,2-6,.2-4.95.24-8.94-3-13h2Z"/>
    <path class="cls-2" d="M24.01,5.25c-.81,4.65-7.81,7.89-10,11l-1-1c3.8-8,4.11-6.58,11-10Z"/>
    <path class="cls-20" d="M14.01,16.25c-2.02,2.87-1.87,6.69-2,10-.1,2.66.06,5.35,0,8.01h2c-.04.32.04.66,0,.99-2.46.01-5.69.29-8,1,6.39-2.05,3.4-7.93,4.09-13.41.36-2.86,1.73-5.09,2.91-7.59l1,1Z"/>
    <path class="cls-2" d="M101.01,15.25h-2c-1.19-1.49-4.75-4.25-6.5-6-.46-.47-3.5-2.58-1.5-3,.21.18,2.09-.08,2.99.47,4.29,2.61,4.96,4.07,7.01,8.53Z"/>
    <path class="cls-5" d="M10.01,107.25c.26,5.48.23,10.48,1,16h-2c-.24-4.3-.5-8.35-.88-12.65-.17-1.94-1.13-3.88,1.88-3.35Z"/>
    <path class="cls-21" d="M105.01,125.25h-1c-.06-.85-.03-1.73-1-2,.87-6.36.81-13.11,1-19,2.14,6.74.13,14.36,1,21Z"/>
    <path class="cls-15" d="M104.01,57.25c-.07,3.32.01,6.68,0,10h-2c-.92-3.5.74-7.34,1-10h1Z"/>
    <path class="cls-5" d="M10.01,106.25c-.03-.66.02-1.33,0-2h1l-1,2Z"/>
    <path class="cls-4" d="M79.01,14.25c4.01.65,8.94,4.46,14,3,.08.31-.08.69,0,1,.19.77-.03,1.68,1,2-.22,4.76-1.58,2.42-2,3-15.27-3.04-29.83-5.03-45.55-4.05-8.36.52-16.18,3.27-24.45,4.05-.05-.13-1.36-.84-2-2,.67-1.63,2.18-2.19,3.62-2.88,13.22-6.32,40.94-6.45,55.38-4.12Z"/>
    <path class="cls-8" d="M20.01,21.25c.64,1.16,1.95,1.87,2,2,1.04,2.7,2.35,8.01,3,11h-1c-.15-.79-2.65-7.99-2.92-8.34-.92-1.18-3.6-.57-4.08-2.66.44-1.02-.07-4.05,2.01-5.99,2.07.15-.39,1.49.99,3.99Z"/>
    <path class="cls-8" d="M22.52,12.27c.36,1.21-1.19,3.14-2.02,3.96-.36-1.21,1.19-3.14,2.02-3.96Z"/>
    <path class="cls-11" d="M104.01,125.25c.54,7,.87,20.96-2,27-4.08-.54-9.71.76-13.51.02-2.27-.44-2.62-2.76-3.49-3.02v-2c3.31-.55,6.86-.76,9.77-2.68,1.82-1.21,1.04-2.11,1.23-2.32,5.05-5.73,5.98-11.52,7-19,.97.27.94,1.15,1,2Z"/>
    <path class="cls-19" d="M51.01,148.25c9.39.28,16.08,1,26,0,2.73-.28,5.3-.55,8-1v2c-1.64-.49-5.23.99-7.46,1.04-16.48.37-33.17.25-49.54-1.04.31-.68.68-1.33,1-2,7.85,1.18,14.22.77,22,1Z"/>
    <path class="cls-3" d="M34.01,144.25h1.48s.52,1,.52,1l-.49,1,15.49,2c-7.78-.23-14.15.18-22-1-1.62-.24-2.2-.8-3-1,.38-.21.73-.91,1-1,.75-.25,2.57-.91,3-1,1.07-.23,2.74.07,4,0Z"/>
    <path class="cls-8" d="M102.01,28.25c-.09,2.23.73,5.11-2,6-.33-1.78-1.45-3.45-2-5-.47-1.32-.33-3.5-1.04-4.97-2.84-.29-4.45.8-5.96,2.97.24-.91.72-3.62,1-4,.42-.58,1.78,1.76,2-3,.03-.63.08-1.38,0-2,3.82,2.46,4.05,7.92,8,10Z"/>
    <path class="cls-8" d="M94.01,18.25h-1c-.08-.31.08-.69,0-1-.18-.71-.99-1.53-1.01-2.48.95-1.84,1.85,2.14,2.01,3.48Z"/>
    <circle class="cls-9" cx="90.03" cy="11.23" r="1.23"/>
    <path class="cls-6" d="M20.01,134.25c3.27,1.31,5.77,1.29,9,2,5.67,1.24,9.73,1.85,15,2,8.4.23,17.63.32,26,0,5.15-.2,11.6-2.32,16-3,1.09-.17,3.99.36,6,0,.63-.11,1.49.16,2,0,.21,1.54-.3,3.59,0,5l-4.56,2.97-.45-1.95-1.98-.02v2c-1.85-1.12-3.93-1.15-6-1-1.92.14-2.66.95-3,1-16.59-.3-33.49.71-50-1-2.13-.22-3.91-.23-6-1-2.79-1.03-4.47-4.13-5.5-6.94-.34-.94.53-1.96.5-2.06,1.02.48,2.03,1.61,3,2Z"/>
    <path class="cls-16" d="M22.01,119.25c.8,1.22,1,2.56,1,4s-1.26,3.96,0,5l-2.99,1.99-.02-4.99c-1.66-.42-.61,1.33-1.17,1.83s-2.8-.95-3.82.17c-.78-3.18-1.73-4.74,1-8s3.62,0,6,0Z"/>
    <path class="cls-2" d="M15.01,127.25c1.02-1.11,3.27.32,3.82-.17s-.5-2.24,1.17-1.83l.02,4.99,2.99-1.99c.28.23,1.76-.11,2.48.98.8,1.22.57,3.55,1.52,5.01h-7c-.97-.38-1.98-1.51-3-1.99-.24-.69-.83-1.38-1-2l.99-.51v-1.48s-1.99,0-1.99,0c-.09-.3.08-.68,0-1Z"/>
    <path class="cls-16" d="M22.01,141.25c2.09.77,3.87.78,6,1l2,2c-.43.09-2.25.75-3,1-3.02-.18-6.68-.96-8-3.99h3Z"/>
    <path class="cls-16" d="M15.01,128.25h1.99s0,1.49,0,1.49l-.99.51c-.18-.66-.8-1.33-1-2Z"/>
    <path class="cls-15" d="M96.01,142.25c-.18.21.59,1.11-1.23,2.32-2.91,1.93-6.47,2.13-9.77,2.68-2.7.45-5.27.72-8,1,1.78-2.71.98-1.9-1.49-2-13.18-.53-26.41.78-39.51-1l-.52-.99h-1.48c14.24-.84,29.75,1.22,44-1.01.34-.05,1.08-.86,3-1l5.49,2,.51-1v-2s1.99.02,1.99.02l.45,1.95,4.56-2.97c.09.42,1.59,1.43,2,2Z"/>
    <path class="cls-19" d="M94.01,135.25c-.51.16-1.37-.11-2,0l5.04-3.67-.04-4.32c-4.69,1.17-3.77-1.84-3.99-2h5.01s0-5,0-5h1c-.12,2.42,1.35,4.31.82,7.24-.41,2.23-3.6,7.06-5.82,7.76Z"/>
    <path class="cls-13" d="M99.01,97.25c-.54-.12-1.3.23-1.93-.05-4.44-22.33-10.46-47.5-2.1-69.48l3.03,1.53c.55,1.55,1.67,3.22,2,5v1l-2.05.52c1.14,2.33,1.57,3.96,2.05,6.48-.09,13.83.11,27.7.04,41.54-.02,4.08-1,8.74-1.04,13.46Z"/>
    <path class="cls-13" d="M14.01,34.25c.2-1.49,2.58-8.75,4.99-7,3.41,9.53,4.22,20.85,4.01,31-5.13-.52-5.64,6.39-9,8-.25-.38-.8-.66-1-1,2.02-7.56.7-16.12,1-24,.01-.33-.02-.67,0-1,.07-1.55-.03-4.73,0-5,.04-.33-.04-.67,0-1Z"/>
    <path class="cls-17" d="M23.01,58.25c-.1,5.29-1.32,11-2,16l-4.42,1.03-1.23-2.01h-1.35c.02-.67-.06-1.36,0-2.01.13-1.31-.09-2.68,0-4v-1c3.36-1.61,3.87-8.52,9-8Z"/>
    <path class="cls-9" d="M14.01,71.25c-.06.65.02,1.34,0,2-.28,7.37.31,14.67,1,22-2.05-.3-2.04,1.64-3,3-.52-6.44-.1-14.39,0-21,.03-1.99-.1-4.01,0-6h2Z"/>
    <path class="cls-14" d="M13.01,65.25c-1.63-2.74-1.33-15.51-1.06-19.55.13-1.86-.24-3.74,2.06-4.45-.3,7.88,1.02,16.44-1,24Z"/>
    <path class="cls-14" d="M14.01,67.25c-.09,1.32.13,2.69,0,4h-2c.07-1.33-.08-2.68,0-4.01h2Z"/>
    <path class="cls-12" d="M15.01,95.25c.32,3.38,1.46,1.49,2,2,1.42,1.36.97,5.1.99,7l-2-5.48-2.99,1.49c-.05-.55-.96-1.46-1-2,.96-1.36.95-3.3,3-3Z"/>
    <path class="cls-1" d="M91.01,92.25c1.47,11.02,7.16,16.95-6.79,20.71-21.33,5.75-43.26,3.08-64.21-2.72l2-10.99c3.26,2.49,4.78-2.02,7.07-3.43,10.93-6.77,32.53-8.66,45.42-7.55,6.17.53,10.68,3.14,16.52,3.98Z"/>
    <path class="cls-13" d="M27.01,70.25c19.13,5.78,40.54,3.8,60,1-.05.61.32,1.14,1,1,.96,1.19.71,2.66,1,4-2.17,2.48-1.02,7.68,1,10,.35,2.06.71,3.86,1,6-5.83-.85-10.34-3.45-16.52-3.98-12.89-1.11-34.49.78-45.42,7.55-2.29,1.42-3.8,5.92-7.07,3.43.05-.66-.08-1.35,0-2h1.99s.01-1.49.01-1.49l-2.01-.51c1.06-8.41,2.61-16.45,3-25h1c.32.07.7-.09,1,0Z"/>
    <path class="cls-10" d="M88.01,64.25c.06,1.58.14,3.45,0,5-.04.5-.95,1.4-1,2-19.46,2.8-40.87,4.78-60-1l-1-1v-2c10.3-1.61,20.22,2.07,30.53,2.05,3.88,0,13.22-.58,16.91-1.11,4.18-.6,9.77-4.09,14.56-3.94Z"/>
    <path class="cls-14" d="M22.01,119.25c.88,0,3.23-1.02,5.45-1.04,7.44-.07,21.19-.35,28.08,1.02,2.56.51,2.2,2.9,2.91,2.92,2.42.06,6.93-2.68,9.01-2.76,7.02-.26,16.38.62,23.55.87-.31,1.34-.68,2.66-1,4-.09.37-.92.75-1,1-1.38-1.2-2.56-1.84-4.45-2.05-18.68-2.04-41.73,1.38-60.55.05h-1c0-1.44-.2-2.78-1-4Z"/>
    <path class="cls-1" d="M14.01,73.25h1.35s1.23,2.03,1.23,2.03l4.42-1.03c-1.05,7.72-1.96,15.38-4,23-.54-.51-1.68,1.38-2-2-.69-7.33-1.28-14.63-1-22Z"/>
    <path class="cls-3" d="M88.01,69.25c.14-1.55.06-3.42,0-5-.09-2.21-1-5.07-1-6,.03-5.71.36-13.39,1-19,.49-4.3.61-8.57,3-12-3.02,11.69-1.86,24.47-1.98,36.51-.02,1.69.64,4.45-1.02,5.49Z"/>
    <path class="cls-3" d="M26.01,38.25c.47,5.25,0,11.58,0,17,0,3.99,0,8.01,0,12v3h-1c.45-9.91.83-26.55-1-36h1c.28,1.29.89,2.77,1,4Z"/>
    <path class="cls-18" d="M97.01,120.25c.33.04.67-.03,1,0v5.01s-5,0-5,0c-.43-.32-2.3-.28-3-1,.32-1.34.69-2.66,1-4,.33.01.67-.02,1,0,1.55.09,2.68-.3,5,0Z"/>
    <path class="cls-19" d="M97.01,120.25c-2.32-.3-3.45.09-5,0-.7-2.01,1.8-1.85,1.98-2.69.31-1.42-.56-7.33.52-7.32l2.5,10.01Z"/>
    <path class="cls-1" d="M90.01,86.25c-2.02-2.32-3.17-7.52-1-10,.68,3.14.5,7.05,1,10Z"/>
    <path class="cls-1" d="M22.01,95.25l2.01.51v1.48s-2.01,0-2.01,0c.08-.65-.08-1.35,0-2Z"/>
    <path class="cls-1" d="M88.01,72.25c-.68.14-1.05-.39-1-1l1,1Z"/>
    <path class="cls-7" d="M92.01,23.25c-.28.38-.76,3.09-1,4-2.39,3.43-2.51,7.7-3,12-3.28.5-3.93,4.02-6.51,5.99-7.37,5.64-28.91,8.1-37.71,4.72-7.19-2.76-10.51-9.87-17.78-11.72-.11-1.23-.72-2.71-1-4-.65-2.99-1.96-8.3-3-11,8.28-.77,16.09-3.53,24.45-4.05,15.72-.98,30.27,1.01,45.55,4.05Z"/>
    <path class="cls-21" d="M36.01,145.25c13.1,1.78,26.33.47,39.51,1,2.47.1,3.26-.71,1.49,2-9.92,1-16.61.28-26,0l-15.49-2,.49-1Z"/>
    <path class="cls-21" d="M78.01,143.25c-14.25,2.23-29.76.17-44,1-1.26.07-2.93-.23-4,0l-2-2c16.51,1.71,33.41.7,50,1Z"/>
    <path class="cls-8" d="M87.01,129.25c-.47,1.43-.02,4.29-1,6-4.4.68-10.85,2.8-16,3l-.58-6.02h-25.43s0,6.02,0,6.02c-5.27-.15-9.33-.76-15-2-.45-1.6-.44-4.72-1-6,.7-2.3,2.58-1.93,4.45-2.06,14.48-.97,34.47-.67,49.1.02,1.89.09,3.67.48,5.45,1.04Z"/>
    <path class="cls-2" d="M93.01,125.25c.23.17-.7,3.17,3.99,2l.04,4.32-5.04,3.67c-2.01.36-4.91-.17-6,0,.98-1.71.53-4.57,1-6,.59-1.81,2.52-1.68,2.86-2.16.32-.45-.92-1.64-.86-1.84.08-.25.91-.63,1-1,.7.72,2.57.68,3,1Z"/>
    <path class="cls-19" d="M44.01,138.25v-6.01s25.42-.01,25.42-.01l.58,6.02c-8.37.32-17.6.23-26,0ZM69.01,133.25h-24v4h24v-4Z"/>
    <path class="cls-13" d="M28.01,130.25c.56,1.28.55,4.4,1,6-3.23-.71-5.73-.69-9-2h7c-.96-1.47-.73-3.8-1.52-5.02-.72-1.09-2.2-.75-2.48-.98-1.26-1.04,0-3.64,0-5h1c-.08,2.82,3.55,5.97,4,7Z"/>
    <path class="cls-21" d="M87.01,143.25l-.51,1-5.49-2c2.07-.15,4.16-.12,6,1Z"/>
    <path class="cls-6" d="M27.01,70.25c-.3-.09-.68.07-1,0v-1l1,1Z"/>
    <path class="cls-6" d="M87.01,58.25c0,.93.91,3.79,1,6-4.79-.15-10.38,3.33-14.56,3.94-3.69.53-13.03,1.11-16.91,1.11-10.31.02-20.23-3.66-30.53-2.05,0-3.99,0-8.01,0-12,2.84.25,3.94,3.18,6.71,3.79,7.13,1.59,20.57,3.64,27.78,3.19,8.72-.54,17.55-4.57,26.51-3.99Z"/>
    <path class="cls-12" d="M89.01,125.25c-.06.2,1.18,1.39.86,1.84-.34.48-2.27.35-2.86,2.16-1.78-.56-3.56-.95-5.45-1.04-14.63-.69-34.62-.99-49.1-.02-1.86.13-3.74-.24-4.45,2.06-.45-1.03-4.08-4.18-4-7,18.82,1.34,41.87-2.09,60.55-.05,1.88.21,3.07.84,4.45,2.05Z"/>
    <path class="cls-9" d="M88.01,39.25c-.64,5.61-.97,13.29-1,19-8.97-.58-17.79,3.45-26.51,3.99-7.21.45-20.65-1.6-27.78-3.19-2.77-.62-3.86-3.54-6.71-3.79,0-5.42.47-11.75,0-17,7.27,1.84,10.59,8.96,17.78,11.72,8.8,3.38,30.34.92,37.71-4.72,2.58-1.97,3.23-5.49,6.51-5.99Z"/>
    <rect class="cls-15" x="45.01" y="133.25" width="24" height="4"/>
  </g>
</svg>