<?xml version="1.0" encoding="UTF-8"?>
<svg id="_图层_2" data-name="图层 2" xmlns="http://www.w3.org/2000/svg" viewBox="0 0 151.48 167.58">
  <defs>
    <style>
      .cls-1 {
        fill: #cdcdd0;
      }

      .cls-2 {
        fill: #cd423e;
      }

      .cls-3 {
        fill: #1b1915;
      }

      .cls-4 {
        fill: #26211e;
      }

      .cls-5 {
        fill: #bf7e2f;
      }

      .cls-6 {
        fill: #5c6d76;
      }

      .cls-7 {
        fill: #5c5c60;
      }

      .cls-8 {
        fill: #b63532;
      }

      .cls-9 {
        fill: #2a2b2d;
      }

      .cls-10 {
        fill: #141514;
      }

      .cls-11 {
        fill: #e5a044;
      }

      .cls-12 {
        fill: #3d3e42;
      }

      .cls-13 {
        fill: #5f6f78;
      }

      .cls-14 {
        fill: #333334;
      }
    </style>
  </defs>
  <g id="_图层_1-2" data-name="图层 1">
    <path class="cls-3" d="M33.37,27.3c.2,2.97-.09,6.02,0,9-1.16-.04-2.41-.44-3,1-3.27,7.96-5.97,17.99-6.99,26.52-.1.81-.36,3.61.99,1.96.39-3.33,2.04-5.91,4.01-8.48-2.9,11.28-7.29,22.05-3.99,33.99l6.97-25.51v-11.48c-.9.22-2.37,2.2-2.98,2.99,1.78-6.92,3.34-9.29,3-17l2-2c.12,5.29.14,10.71,0,16v1c-.12,3.22.36,6.93,0,10-.41,3.47-6.78,30.42-7.98,31.52-.71.65-1.13.58-2.01.48l-2.02-15.99c-2.45,1.21-3.68,2.77-4.04,5.45-.93,6.98,1.26,41.97,4.97,46.95l3.08.6c-.18-16.18,2.59-32.51,7-48.01l1,1c-.95,8.02-4.99,16.85-4.06,25.39,3.24,1.03,3.8,1.54,6.06,3.61-2.82-3.01-8.17-.75-7,3.99h7.99c.21-.2-.75-3.74-1-3.99,6.14,5.62,6.75,14.6,12.91,19.57,8.27-.37,52.92,2.42,56.83-.83,3.14-2.61,5.99-14.55,9.82-18.68,1.96-2.11,3.37-2.91,6.33-3.16.83-2.55-.31-4.62-.89-6.9h2c1.92,9.31,3.79,18.55,5,28,.08.64-.09,1.36,0,2l-28.45,2.05-76.54-1.56c3.33,6.03.37,11.44,8.73,13.27,16.96,3.72,68.3,2.32,86.77.24,4.28-.48,9.17-1.97,9.51-7,1.1-.18.94.95.99,1s-.18,1.12,1,1c7.68-9.17,6.88-23.58,7-35l-3-1c-.06-.66.03-1.34,0-2,1.58-.66,1.58-4.34,0-5-.03-2.66.04-5.34,0-8h2c.54,10.28,3.02,16.74,3.38,27.67.28,8.36,2.47,35.08-1.07,41.06-3.21,5.42-20.06,5.57-24.73,2.16-1.61-1.18-1.11-1.57-1.58-2.89-1.04-2.9-1.16-5.95-1-9H40.37v10c-1.53.36-3.09,3.19-5.71,3.79-4.22.97-16.95.64-20.26-2.32-4.46-3.97-3.27-27.24-3.07-34.02.34-11.39,2.92-19.74,4.05-29.95.64-5.78-.55-37.14.99-39.51.06-.09,1.73.39,2.02-.65v-9.76s-2.03-1.09-2.03-1.09c2.38-.85,1.52-1.16,2.01-2.5.19-.52.82-.93,1-2,.59-.13,1.63.19,2,0-.09.99.1,2.02,0,3-.62,6.38-1.53,13.45-2.01,20.49-.26,3.83-4.45,9.76,1.51,9.52,1.5-.2.98-26.4,2.51-30.01.14-.32.85-.64,1-1,3.19-7.51,6.67-11.41,7-20h2ZM23.36,146.3l-7.98-36.99c-2.07,11.37-1.58,29.02,7.98,36.99ZM122.36,115.3c-3.7-.29-7.07.74-6.99,5h7s0-5,0-5ZM123.37,121.29l-9.85.15-1.15,4.85h11s0-5,0-5ZM38.21,122.45l-10.84-.15v3.99s12,0,12,0l-1.15-3.84ZM44.37,135.3c-3.6-9.3-8.37-6.93-17.01-7.01v7.01h17.01ZM124.37,128.3h-14l-3,7h15.5c2.26-1.62,1.43-4.57,1.5-7ZM38.37,153.3c-7.47-.93-15.48-3.04-20.55-8.96-1.48-1.73-1.33-4.23-3.45-5.04.28,7.58-4.19,23.76,6.47,25.02,10.84,1.27,17.88,1.75,17.52-11.01ZM136.37,158.8c.95-5.66-.7-13.56,0-19.5-2.47,1.47-2.57,4.69-4.6,6.9-4.68,5.13-12.39,5.5-18.46,7.71.32,4.27-1.63,9,3.78,10.16s18.12,1.58,19.28-5.28Z"/>
    <path class="cls-4" d="M90.37.3c10.02.6,32.1,3.78,38.44,12.06,1.11,1.44,2.32,4.2,3.04,5.96,1.39,3.43,3.52,11.09,3.52,14.48v16.5c7.54-1.21,16.58-3.07,16.1,7.52-.54,12.05-14.88,3.2-16.09,4.48.42,10.94-.58,22.07,0,33h-2c-.08-4.78.02-9.6.07-14.39l-4.06-1.61c-.18,6.46-.86,13.15-2.05,19.48-.3,1.62.68,1.74-1.95,1.51l-8.01-32c.08-6.99-.11-14.02,0-21,0-.07.99-.3,1-1,.12-6.38-1.26-24.83.16-29.34.47-1.51,1.7-2.06,3.19-1.53,2.08.99,2.69,3.05,3.65,4.87-.6-.28-1.74-1.25-1.99-1v2c-.18-.25-2.89-2.14-3-2,1.05,3.58-1.18,10.65-.73,13.36.19,1.14,2.03,2.77,2.61,4.26,1.72,4.45,3.66,8.84,5.13,13.37,1.9.01.83-3.63.99-4.99.06-.48-.08-.99,0-1.48.19-.48.52-.58.99-.52.15.02.48.92.98,1.01-.18-7.9-1.26-16.94-4.98-24.01.69.33,1.15.04,2,1,1.15,1.3,4,8.99,4,10.5v14.5c3.23,1.02,2.11-5.5,1.99-7.49-.39-6.61-1.45-12.44-3.99-18.51-2.18-5.2-1.99-6.16-7-9-1.42-.8-2.47-1.37-4-2-8.68-3.6-19.6-5.45-29-6l1-2ZM119.37,36.3v14.5c0,.95,6.97,16.7,7.49,17.51.31.48,1.28,1.3,1.5.99l-1.29-15.2-7.7-17.8ZM129.37,47.3v23.5c0,.93,1.07,2.6.12,4.33l3.87,2.17-1.16-28.33-2.83-1.67ZM135.36,56.31c-3,3,13.18,7.15,14.05,1.46.8-5.22-4.37-8.92-9.13-7.05-1.59,1.18.11,6.53-4.93,5.59ZM126.36,92.29l.75-17.24-7.73-19.75c.52,10.57,2.43,23.98,5.3,34.19.29,1.03.24,3.03,1.68,2.8Z"/>
    <path class="cls-4" d="M65.37.3l1,2c-9.47.41-18.14,1.5-27.22,4.28-6.92,2.12-12.02,3.35-15.78,9.72-5.46,9.25-5.12,20.54-5,31-.5,1.34.37,1.65-2.01,2.5l2.02,1.09v9.76c-.27,1.05-1.95.56-2,.65-10.81,4.93-18.14,3.82-15.99-10l1.99,1,.93,8.56c4.2,1.59,8.11-.59,12.06-1.57,1.09-2.43-2.02-1.78-2.09-2.58-.09-1.11,1.09-2.41.85-3.24-.59-2.05-8.45-3.25-10.77-2.17.21-.46-.59-1.88.56-2.05l10.98.81,1.46-1.26v-20c0-1.57,2.9-10.29,3.82-12.18C26.65,3.34,52.23.85,65.37.3Z"/>
    <path class="cls-5" d="M3.37,51.3c2.32-1.08,10.17.12,10.77,2.17.24.82-.94,2.13-.85,3.24.06.8,3.18.15,2.09,2.58-3.95.98-7.86,3.17-12.06,1.57l-.93-8.56c1.12.12.82-.61,1-1Z"/>
    <path class="cls-14" d="M90.37.3l-1,2c-7.1-.42-15.86-.31-23,0l-1-2c7.75-.33,17.31-.46,25,0Z"/>
    <path class="cls-11" d="M66.37,2.3c7.14-.31,15.9-.42,23,0,9.4.55,20.32,2.4,29,6,.52,1.84,2.26,2.17,4,2,5.01,2.84,4.82,3.8,7,9l-2,1c-.85-.96-1.31-.67-2-1-.96-1.82-1.57-3.89-3.65-4.87-1.49-.53-2.72.03-3.19,1.53-1.42,4.51-.04,22.96-.16,29.34l-1,1c-.11,6.98.08,14.01,0,21-9.37-.94-22.2-2.09-31.55-1.05-2.27.25-3.47.34-3.45,3.05-2.56-.15-5.43-.1-8,0,.34-3.96.12-2.45-2.43-3.04-9.01-2.09-25.02,1.99-35.17,1.11-2-.17-2.45-.13-3.4-2.07.36-3.07-.12-6.78,0-10,.01-.4,0-.7,0-1,.14-5.29.12-10.71,0-16-.02-.67.02-1.33,0-2-.09-2.98.2-6.03,0-9-.18-2.65-.46-9.43-2-11-2.31-2.36-5.82-.89-7,2-.05-.32-1.09-1.23-1-2,3.76-6.37,8.86-7.6,15.78-9.72,9.08-2.78,17.74-3.87,27.22-4.28ZM50.37,7.3c-2.6.34-15.56,2.7-16.56,3.96l-.31,1.36c.36,1.5,2.87,5.15,2.87,6.19v43.5l1.99-15.51-2.06-33.88c.21-1.36,6.63-2.22,8.07-2.61v1c-1.14.7-1.85,1-2.06,2.48-.38,2.57.89,18.28,1.8,20.28,2.8,6.14,18.18,2.28,23.71,2.19,6.99-.11,14.1-.14,21.09,0,6.54.14,17.43,4.82,19.22-4.7.63-3.36,1.84-14.8,1.03-17.57-.38-1.32-1.62-2.15-2.79-2.69v-2c1.17.16,2.22.88,3,1,1.97.31,2.31.1,1.99-1.99-.65-.07-1.35.08-1.99,0-5.34-.72-10.6-1.71-16-2-13.03-.7-30.17-.67-43,1ZM117.35,14.3l.58-4.03-5.56-.96,4.99,4.99ZM115.37,17.3l-.99,30.99c1.75.23.94-2.27.99-3.48.12-2.83-.02-5.69,0-8.51,0-.33,0-.69,0-1,.11-6-.69-12.2,1-18l-.5-.98-.5.98ZM110.37,64.3c.08-.65-1.33-2-1.5-2H42.37v2h68Z"/>
    <path class="cls-5" d="M33.37,65.3c.96,1.94,1.4,1.89,3.4,2.07,10.15.88,26.17-3.2,35.17-1.11,2.55.59,2.77-.92,2.43,3.04-7.18.29-9.52,2.84-11.45,3.07-5.01.6-11.28-.42-16.55-.07-1.67.11-7.39.56-8.11,1.61-.74,6.94-8.26,26.93-6.47,32.44,1.14,3.49,5.73,4.69,9.03,5,22.59,2.16,48.6-1.71,71.55-.05,3.41-.49,6.8-2.83,7.01-6.48,1.39-1.68.83.87.99,1.48.58,2.28,1.72,4.35.89,6.9-2.96.25-4.37,1.05-6.33,3.16-3.83,4.13-6.68,16.07-9.82,18.68-3.92,3.25-48.56.46-56.83.83-6.16-4.97-6.77-13.94-12.91-19.57-2.26-2.07-2.82-2.58-6.06-3.61-.93-8.54,3.11-17.37,4.06-25.39.15-1.3-.09-2.69-.01-4h-.98c-.17.93.21,2.22-.01,3-4.41,15.49-7.18,31.83-7,48.01l-3.08-.6c-3.7-4.99-5.9-39.97-4.97-46.95.36-2.67,1.59-4.23,4.04-5.45l2.02,15.99c.88.1,1.3.17,2.01-.48,1.2-1.1,7.57-28.05,7.98-31.52ZM37.37,72.31c-2.32-2.57-4.41,8.95-3.99,9.99l3.99-9.99ZM98.36,122.29c4.36-5.51-14.73-3.89-16.49-4-2.88-.2-5.73-1.85-8.14-2.01-1.85-.12-.76,1.84-2.79,2.1-2.77.36-16.96-.71-17.58-.09l.02,5,.99-3h2.99c-.05,3.91-.41,8.15,1.96,11.55,8.14.51,23.6,3.44,31.09,1.01,5.12-1.66,2.28-8.58,2.95-12.55,2.02-1.93,3.71,3.62,4.99,2Z"/>
    <path class="cls-5" d="M117.37,67.3l8.01,32c2.63.23,1.65.11,1.95-1.51,1.18-6.34,1.87-13.03,2.05-19.48l4.06,1.61c-.05,4.79-.15,9.61-.07,14.39.04,2.66-.03,5.34,0,8,.02,1.66-.06,3.34,0,5,.03.66-.06,1.34,0,2,.09.98-.07,2.01,0,2.99,2.18.52,1.93-.54,2.99-1.99-.12,11.42.68,25.83-7,35l-1-1c-.05-.05.12-1.17-.99-1-.34,5.03-5.23,6.52-9.51,7-18.47,2.08-69.81,3.48-86.77-.24-8.36-1.84-5.4-7.25-8.73-13.27l76.54,1.56,28.45-2.05c.02.13.78.54.87,1.44.19,1.79-2.78,5.23,1.12,4.56,1.22-8.49,5.21-17.85,5.05-26.47-.04-2.05.62-2.94-2.04-2.52-.04,5.93-1.08,12.29-2.53,18.02-.42,1.68.13,3.54-2.47,2.98-1.21-9.45-3.08-18.69-5-28-2.33-11.28-5.34-22.7-8.1-33.9l-27.35-.03-.62-2.95c-.43-.44-2.88-.05-3.93-.12-.02-2.71,1.19-2.8,3.45-3.05,9.35-1.03,22.18.12,31.55,1.05ZM33.52,148.15c3.04,5.14,29.14-5.11-.15-3.85l.15,3.85ZM104.36,144.25v4.05h14.01v-4.05h-14.01ZM84.87,147.3c-6.05.41-12.84,0-19,0-.97,0-4.12-3.02-3.5,1,8.42.44,20.36,3.53,27-1.99-1.7-.7-3.54.92-4.5.99Z"/>
    <path class="cls-9" d="M38.37,153.3c.36,12.77-6.69,12.29-17.52,11.01-10.67-1.25-6.2-17.43-6.47-25.02,2.12.81,1.97,3.32,3.45,5.04,5.07,5.92,13.08,8.03,20.55,8.96Z"/>
    <path class="cls-9" d="M136.37,158.8c-1.16,6.86-13.87,6.44-19.28,5.28s-3.46-5.89-3.78-10.16c6.08-2.21,13.78-2.57,18.46-7.71,2.02-2.22,2.13-5.44,4.6-6.9-.7,5.94.95,13.84,0,19.5Z"/>
    <path class="cls-4" d="M74.37,69.3c2.57-.1,5.44-.15,8,0,1.05.06,3.5-.33,3.93.12l.62,2.95,27.35.03c2.76,11.2,5.77,22.62,8.1,33.9h-2c-.16-.62.4-3.16-.99-1.48-.21,3.65-3.6,5.99-7.01,6.48v-2c5.53-1.04,5.32-5.98,5.03-10.54-.2-3.25-4.26-22.93-6.01-23.98-20.61-.5-41.41-.99-62.02-.48l-3-2c5.27-.35,11.54.67,16.55.07,1.93-.23,4.27-2.78,11.45-3.07Z"/>
    <path class="cls-7" d="M28.37,57.3c.61-.8,2.08-2.78,2.99-2.99v11.48s-6.98,25.51-6.98,25.51c-3.3-11.94,1.08-22.71,3.99-33.99Z"/>
    <path class="cls-5" d="M23.36,146.3c-9.55-7.97-10.05-25.62-7.98-36.99l7.98,36.99Z"/>
    <path class="cls-6" d="M29.37,19.3h2c-.06,2.65.1,5.35,0,8-.33,8.59-3.81,12.49-7,20,1.11-9.31-.61-20.09,5-28Z"/>
    <path class="cls-8" d="M124.37,128.3c-.07,2.43.76,5.38-1.5,7h-15.5l3-7h14Z"/>
    <path class="cls-8" d="M44.37,135.3h-17v-7.01c8.63.08,13.4-2.3,17,7.01Z"/>
    <path class="cls-5" d="M23.37,48.3c-1.52,3.61-1.01,29.81-2.51,30.01-5.96.25-1.77-5.69-1.51-9.52.49-7.04,1.39-14.11,2.01-20.49h2Z"/>
    <path class="cls-6" d="M31.37,40.3c.34,7.71-1.22,10.08-3,17-1.97,2.57-3.62,5.15-4.01,8.48-1.35,1.65-1.08-1.15-.99-1.96,1.02-8.54,3.73-18.56,6.99-26.52,1.31.48.95,1.9,1,3Z"/>
    <path class="cls-4" d="M127.37,134.3c2.6.56,2.05-1.3,2.47-2.98,1.45-5.73,2.49-12.09,2.53-18.02,2.66-.41,2,.47,2.04,2.52.16,8.62-3.84,17.98-5.05,26.47-3.89.67-.93-2.77-1.12-4.56-.09-.9-.85-1.31-.87-1.44-.09-.64.08-1.36,0-2Z"/>
    <path class="cls-9" d="M29.37,19.3c-5.61,7.91-3.89,18.69-5,28-.15.36-.86.68-1,1h-2c.1-.98-.09-2.01,0-3,.27-.14.82.14.9-.57,1.21-8.76.69-19.09,6.1-26.43.3-.13.82.15,1,0v1Z"/>
    <polygon class="cls-1" points="123.37 121.29 123.37 126.3 112.37 126.29 113.52 121.45 123.37 121.29"/>
    <path class="cls-5" d="M24.37,18.3c.05.31,0,.68,0,1-4.36,2.78-4.09,20.7-5,26-.18,1.07-.81,1.48-1,2-.12-10.46-.46-21.75,5-31-.09.77.95,1.68,1,2Z"/>
    <path class="cls-5" d="M28.37,18.3c-5.42,7.33-4.89,17.67-6.1,26.43-.08.71-.62.43-.9.57.72-7.95,2.84-18.98,3-26,.77-.49,2.92-.51,4-1Z"/>
    <polygon class="cls-1" points="38.21 122.45 39.36 126.29 27.36 126.29 27.36 122.3 38.21 122.45"/>
    <path class="cls-14" d="M21.37,45.3c-.37.19-1.41-.13-2,0,.91-5.3.64-23.22,5-26-.16,7.02-2.28,18.05-3,26Z"/>
    <path class="cls-14" d="M31.37,16.3c-2.57-.78-1.81,1.84-2,2s-.7-.13-1,0c-1.08.49-3.23.51-4,1,0-.32.05-.69,0-1,1.18-2.89,4.69-4.36,7-2Z"/>
    <path class="cls-2" d="M35.37,116.3c.24.26,1.21,3.8,1,3.99h-7.99c-1.17-4.74,4.17-7,7-3.99Z"/>
    <path class="cls-8" d="M122.36,115.3v5.01s-6.99-.01-6.99-.01c-.08-4.26,3.3-5.29,6.99-5Z"/>
    <path class="cls-4" d="M136.37,110.3c-1.06,1.46-.81,2.52-2.99,1.99-.08-.98.09-2.01,0-2.99l3,1Z"/>
    <path class="cls-4" d="M33.37,36.3c.02.67-.02,1.33,0,2l-2,2c-.05-1.1.31-2.52-1-3,.59-1.44,1.84-1.04,3-1Z"/>
    <path class="cls-4" d="M133.37,107.3c-.06-1.66.02-3.34,0-5,1.58.66,1.58,4.34,0,5Z"/>
    <path class="cls-4" d="M33.37,87.3l-1-1c.22-.78-.16-2.07.01-2.99h.98c-.08,1.3.16,2.7.01,3.99Z"/>
    <path class="cls-5" d="M33.37,55.3v-1c0,.3.01.6,0,1Z"/>
    <path class="cls-4" d="M129.37,145.3c-1.18.12-.95-.95-1-1l1,1Z"/>
    <path class="cls-13" d="M119.37,36.3l7.7,17.8,1.29,15.2c-.23.31-1.19-.51-1.5-.99-.52-.81-7.49-16.56-7.49-17.51v-14.5Z"/>
    <path class="cls-6" d="M126.36,92.29c-1.44.23-1.39-1.76-1.68-2.8-2.87-10.22-4.78-23.63-5.3-34.19l7.73,19.75-.75,17.24Z"/>
    <path class="cls-13" d="M123.37,20.3c.27.4,2.7,5.18,3,6l2,18c-.16,1.37.91,5-.99,4.99-1.47-4.54-3.41-8.92-5.13-13.37-.58-1.5-2.42-3.12-2.61-4.26-.45-2.71,1.78-9.77.73-13.36.11-.14,2.82,1.75,2.99,2Z"/>
    <path class="cls-5" d="M135.36,56.31c5.04.95,3.33-4.4,4.93-5.59,4.75-1.87,9.93,1.83,9.13,7.05-.87,5.68-17.05,1.53-14.05-1.46Z"/>
    <path class="cls-5" d="M129.37,47.3l2.83,1.67,1.16,28.33-3.87-2.17c.96-1.73-.12-3.4-.12-4.33v-23.5Z"/>
    <path class="cls-5" d="M129.37,19.3c2.54,6.07,3.6,11.89,3.99,18.51.12,1.99,1.24,8.52-1.99,7.49v-14.5c0-1.51-2.85-9.2-4-10.5l2-1Z"/>
    <path class="cls-5" d="M125.37,19.3c3.72,7.08,4.8,16.12,4.98,24.01-.5-.1-.83-.99-.98-1.01-1.07-5.32-1.09-10.84-3-16-.3-.82-2.73-5.6-3-6v-2c.26-.26,1.4.72,2,1Z"/>
    <path class="cls-14" d="M129.37,42.3c-.47-.06-.8.04-.99.52-.09.49.05,1,0,1.48l-2-18c1.91,5.16,1.93,10.68,3,16Z"/>
    <path class="cls-5" d="M122.37,10.3c-1.74.17-3.48-.16-4-2,1.53.63,2.58,1.2,4,2Z"/>
    <path class="cls-5" d="M117.37,46.3l1-1c-.01.7-1,.93-1,1Z"/>
    <path class="cls-4" d="M106.37,11.3c1.17.54,2.41,1.38,2.79,2.69.81,2.78-.4,14.21-1.03,17.57-1.79,9.52-12.68,4.83-19.22,4.7-6.99-.15-14.1-.12-21.09,0-5.53.09-20.91,3.94-23.71-2.19-.91-2-2.18-17.71-1.8-20.28.22-1.48.93-1.79,2.06-2.48l41.55-2.05c5.92,1.95,15.29-.31,20.45,2.05ZM68.08,11.75c-3.53.16-21.99.68-23.28,2.48-.56,3.55.06,19.11,2.55,20.58,15.15-.19,30.37-.89,45.56-.55,4.1.09,8.97,3.16,11.91-1.01,1.65-2.35,3.58-17.73,1.56-19.46-12.38-2.75-25.61-2.6-38.3-2.04Z"/>
    <path class="cls-5" d="M93.37,7.3l1.59.92c3.86-.09,7.63.57,11.41,1.08v2c-5.16-2.36-14.53-.1-20.45-2.05l-41.55,2.05v-1c1.59-.43,4.53-1.77,6-2,13.77-2.17,29.03-.39,43-1Z"/>
    <path class="cls-12" d="M110.37,64.3H42.37v-2h66.5c.17,0,1.58,1.35,1.5,2Z"/>
    <path class="cls-14" d="M50.37,7.3v1c-1.47.23-4.41,1.57-6,2-1.44.39-7.86,1.26-8.07,2.61l2.06,33.88-1.99,15.51V18.8c0-1.04-2.51-4.69-2.87-6.19l.31-1.36c1-1.25,13.96-3.62,16.56-3.96Z"/>
    <path class="cls-4" d="M93.37,6.3v1c-13.97.61-29.23-1.17-43,1v-1c12.83-1.67,29.97-1.7,43-1Z"/>
    <path class="cls-4" d="M116.37,17.3c-1.69,5.8-.89,12-1,18v1c-.02,2.82.12,5.69,0,8.51-.05,1.22.76,3.71-.99,3.48l.99-30.99h1Z"/>
    <path class="cls-12" d="M109.37,8.3v2c-.78-.12-1.83-.84-3-1-3.78-.51-7.55-1.17-11.41-1.08l-1.59-.92v-1c5.4.29,10.66,1.28,16,2Z"/>
    <path class="cls-4" d="M31.37,16.3c1.54,1.57,1.82,8.35,2,11h-2c.1-2.65-.06-5.35,0-8.01h-2s0-.99,0-.99c.19-.16-.57-2.78,2-2Z"/>
    <polygon class="cls-5" points="117.35 14.3 112.37 9.31 117.93 10.27 117.35 14.3"/>
    <path class="cls-5" d="M109.37,8.3c.64.09,1.34-.06,1.99,0,.32,2.09-.02,2.31-1.99,1.99v-2Z"/>
    <polygon class="cls-5" points="116.37 17.3 115.37 17.3 115.87 16.32 116.37 17.3"/>
    <path class="cls-5" d="M115.37,36.3v-1c0,.31,0,.67,0,1Z"/>
    <path class="cls-3" d="M98.36,122.29c-1.28,1.62-2.97-3.93-4.99-2-.68,3.97,2.17,10.89-2.95,12.55-7.49,2.44-22.95-.5-31.09-1.01-2.37-3.4-2.02-7.64-1.96-11.55h-2.99s-.99,3-.99,3l-.02-5c.62-.62,14.81.44,17.58.09,2.04-.26.94-2.22,2.79-2.1,2.42.16,5.27,1.81,8.14,2.01,1.76.12,20.85-1.51,16.49,4ZM59.37,120.3c.37,3.29-1.24,7.62,1.5,10h30c2.36-2.15,2.36-7.85,0-10h-31.5Z"/>
    <path class="cls-10" d="M46.37,72.3l3,2c-2.78.07-5.59-.23-8.37.13-2.75.93-5.79,24.38-7.58,28.49l2.12,6.21,76.83.17v2c-22.95-1.66-48.97,2.21-71.55.05-3.3-.32-7.9-1.51-9.03-5-1.79-5.51,5.73-25.5,6.47-32.44.71-1.04,6.44-1.5,8.11-1.61Z"/>
    <path class="cls-4" d="M37.37,72.31l-3.99,9.99c-.43-1.03,1.67-12.56,3.99-9.99Z"/>
    <path class="cls-3" d="M33.52,148.15l-.15-3.85c29.3-1.26,3.19,8.98.15,3.85Z"/>
    <rect class="cls-10" x="104.36" y="144.25" width="14.01" height="4.05"/>
    <path class="cls-4" d="M84.87,147.3c.96-.07,2.8-1.69,4.5-.99-6.65,5.51-18.59,2.42-27,1.99-.62-4.02,2.54-1,3.5-1,6.16,0,12.95.41,19,0Z"/>
    <path class="cls-6" d="M49.37,74.3c20.61-.51,41.4-.02,62.02.48,1.76,1.05,5.81,20.72,6.01,23.98.29,4.56.5,9.5-5.03,10.54l-76.83-.17-2.12-6.21c1.78-4.11,4.82-27.56,7.58-28.49,2.78-.36,5.59-.06,8.37-.13Z"/>
    <path class="cls-13" d="M68.08,11.75c12.69-.57,25.92-.72,38.3,2.04,2.02,1.73.09,17.11-1.56,19.46-2.93,4.17-7.81,1.1-11.91,1.01-15.19-.34-30.41.35-45.56.55-2.49-1.47-3.11-17.03-2.55-20.58,1.29-1.8,19.74-2.32,23.28-2.48Z"/>
    <path class="cls-1" d="M59.37,120.3h31.5c2.36,2.15,2.36,7.85,0,10h-30c-2.74-2.38-1.13-6.71-1.5-10Z"/>
  </g>
</svg>