<?xml version="1.0" encoding="UTF-8"?>
<svg id="_图层_2" xmlns="http://www.w3.org/2000/svg" version="1.1" viewBox="0 0 148.9 193.8">
  <!-- Generator: Adobe Illustrator 29.3.0, SVG Export Plug-In . SVG Version: 2.1.0 Build 146)  -->
  <defs>
    <style>
      .st0 {
        fill: #838286;
      }

      .st1 {
        fill: #2c2a31;
      }

      .st2 {
        fill: #434146;
      }

      .st3 {
        fill: #2d2c2d;
      }

      .st4 {
        fill: #6e6e75;
      }

      .st5 {
        fill: #191818;
      }

      .st6 {
        fill: #1e1c1d;
      }

      .st7 {
        fill: #c3c4c4;
      }

      .st8 {
        fill: #ab221d;
      }

      .st9 {
        fill: #252324;
      }

      .st10 {
        fill: #c0302c;
      }

      .st11 {
        fill: #d1d1cf;
      }

      .st12 {
        fill: #67120b;
      }

      .st13 {
        fill: #5b5a5f;
      }

      .st14 {
        fill: #acaba8;
      }

      .st15 {
        fill: #363337;
      }

      .st16 {
        fill: #cf3e39;
      }

      .st17 {
        fill: #4f4e52;
      }

      .st18 {
        fill: #931a14;
      }

      .st19 {
        fill: #d55652;
      }
    </style>
  </defs>
  <g id="_图层_1-2">
    <g>
      <path class="st10" d="M140.8,133.1v4c-1.6.9-.9,3.4-1,5-5.3.3-3.6,5.2-4.5,6.9-1.9,3.8-3.7.1-4.5,7.1-5.4,0-10.6,3.1-16,3-2.4,0-8.9-3.4-11,1h-55l1-2c-4.9,1.4-7.3,1.1-12,0v-1.3c2.4-1.1,2.3-2.1,2-4.7-.3-3.3-2.2-7.3-4-10-.3-.4-.7-.6-1-1l-1-2c4-1.3,8,.3,12,0-1.4.2-4.7,2.6-7,2,1.3,1,2.7,5.4,3.2,5.8.8.6,2.3,0,2.8.2,2.7,1.1,1.5,8.6,10.5,9.1,3,.1,5.8-1,8.9-1.1,9.1-.1,20.9,1.7,29,1,4.9-.4,7-1.8,10.5-5,3.1-2.8,8.4-9.2,3-12,3.6-.4,3.8-.7,5.5-4l-1.5,5,6-1c-2.6,1.7-5.6,7.1-6,10-.1.8-.3,4.1.5,4,5.1-1.4,10.5-2.3,15.5-4,8.4-2.9,7.1-3.7,7-13,4.1,1.1,2.9-4,7-3h0Z"/>
      <path class="st10" d="M106.8,139.1c-18.7,2.2-42.5-2.4-61,0,2.8-.2,9.7-2,12.5-2h31c.3,0,1.7,1,3,1,4.7.3,10.6-1.1,14.5,1Z"/>
      <path class="st5" d="M140.8,146.1c0,9.3,1.5,28.4-.2,36.3-1.1,4.7-5.9,4.6-9.8,4.7-8.9.3-10.6-.5-10-10v-1c17.4-3.5,18.1-18.7,19-34,.1-1.6-.6-4.1,1-5v9Z"/>
      <path class="st8" d="M17.8,103.1c-.4,1.5-1.5,8.3-1,9h2c-.8,3.1-.2,12.9,1,16-.4.8.2,3.8-1,5-.1.1-1.3-.3-1.8.1-2.8,2.8-1.9,9.4-1.2,12.9,0,.3,0,.7,0,1l-6-3c0-.6,0-1.4,0-2,0-.1,1.4-.9,1-2h-2v-12c.7-2.3.9-2.2,2-4,2.9-4.7,1-2.5.9-7.5,0-5.5.1-11,0-16.5.1,0,.6-1.3,2.7-.3,1.4.7,2.3,2.2,3.3,3.3Z"/>
      <path class="st8" d="M30.8,40.1c-2.3-.5-2.2,1.1-2.8,2.6-4.9,10.6-7.9,19.7-8.2,31.4h-1c0-1.3,0-2.7,0-4h-1c-.2,1.8-.2,4.8-1,6.3-.6,1.2-1.7.4-2,.7-2.7,1.5-.3,3.7,0,5,.2.8.7,1.9,1,3h-2l1,3h-2c0,0-1.9-1-2-1,1.2-9.8.2-19.4,5-28.3.4-.7,1.6-.8,2.2-2,3.6-7.1,6.6-17.8,12.7-22.7,0,2,0,4,0,6h0Z"/>
      <path class="st6" d="M121.8,44.1c1.1,5.8,5.7,12.5,7,17,2.8,9.6,1.5,24.4,2,34.4,0,1.2,1.4.4,2,.6,4.8,1.5,9.5,1.3,14.3,0,.3-.2,1.6-3.8,1.7-4.1.9,7.8-5.8,5.8-10,7-.3,0-.7,0-1,0-2.4.7-4.1,3.4-7,3-3-8.8-4.7-18-7-27,0,.2,2.6,3.4,3.5,3,2-1.4,1.6-3.3,1.4-5.4-.7-7.8-5.8-21.8-9.9-28.6h-1c0-1.7,0-3.3,0-5l4,5h0Z"/>
      <path class="st10" d="M112.8,33.1c1.4.4,2.8,0,4.3,1,.4.3,1.9,2.2,2.7,3,.5.5,1.8,1.7,2,2,1.1,1.3,0,4.8,0,5l-4-5c0,1.7,0,3.3,0,5-.3,12.4,3.1,19.5,6,31,2.3,9,4,18.2,7,27-.5.9-1,1.9-1,3h-1l-8-27c0-.3,0-.7,0-1-.9-4.4-2.2-8.6-3-13-1.1-6.4-2.4-25.5-4-29-.2-.5-1.2-1.1-1-2h0Z"/>
      <path class="st16" d="M129.8,131.1l2.8-8.8.3-7.2c3.1-.8,1.5,2.1,2.5,3.9.7,1.3,1.7,2,2.4,3.1s1.7,1.5,2,2c2.9,3.8.9,4.4,1,9-4.1-1-2.9,4.1-7,3-.4-1.3-2.8-2-4-2-.3,0-.7,0-1,0-.8-2.3,1-2.8,1-3h0Z"/>
      <path class="st18" d="M132.8,96.1c-.8-3.3,2.4-5.5,2.5-8.5.3-4.9-3.4-9.7-3.5-14.5l4,3c.3,2,0,11.3,2,12-.3,1.3-2.6,2.1-2,4,2.5,0,5-.7,7.5-1,1.9-.3,4.1,1.3,3.5-2,1.4.8,2.1,1.2,2,3,0,.2-1.4,3.9-1.7,4.1-4.8,1.3-9.5,1.5-14.3,0h0Z"/>
      <path class="st5" d="M19.8,74.1c0,4.3,0,8.7,0,13l3-2c-1.6,6.2-3.3,12.1-5,18-1-1.1-1.9-2.6-3.3-3.3-2-1-2.6.3-2.7.3-.3,0-.7,0-1,0-4.2-1.1-8.6-1.7-10-6,4.5,5.5,12.6,1.3,18,3,0-1.7,0-3.3,0-5,.2-5.9.2-12.1,0-18h1Z"/>
      <path class="st18" d="M15.8,85.1c.6,2.3-.3,7.8,3,7,0,1.7,0,3.3,0,5-5.4-1.7-13.5,2.5-18-3,0-.2-.9-.4-.8-1.3.1-1.2,1.1-1.9,1.8-2.7.6,5.5,9.4,2.1,13,3,.8-.7-1.1-4.2-2-5h2l-1-3h2,0Z"/>
      <path class="st2" d="M65.8,29.1l7-1c.2-8.1-.3-16.4,0-24.5,0-1.3-.8-4.2,1.5-3.5l1.5,28,7,1c-2.2,0-5.6-.7-7,1h-3c-1.4-1.7-4.8-1-7-1h0Z"/>
      <path class="st18" d="M131.8,59.1v1l-3,1c-1.3-4.5-5.9-11.2-7-17,0-.2,1.1-3.7,0-5,4.4,6,6.7,13.4,10,20Z"/>
      <path class="st16" d="M12.8,88.1c.9.8,2.8,4.3,2,5-3.6-.9-12.4,2.5-13-3,1.7-1.8,6.6-3.1,9-3,.1,0,1.9.9,2,1Z"/>
      <path class="st18" d="M82.8,29.1c8.7,0,27.2-.6,34.3,4.2,1.5,1,2.6,1.8,2.7,3.8-.8-.8-2.3-2.8-2.7-3-1.5-.9-2.9-.6-4.3-1-12-3.2-24.7-2.9-37-3,1.4-1.7,4.8-1,7-1Z"/>
      <path class="st12" d="M139.8,124.1c-.3-.5-1.3-1-2-2v-23c.3,0,.7,0,1,0,2.2,7.9.4,16.8,1,25Z"/>
      <path class="st18" d="M65.8,29.1c2.2,0,5.6-.7,7,1-13,0-26.2,0-39,3l-1,1h-2c.4-.3.5-1.2,1.7-1.8,7.6-3.7,24.6-3.3,33.3-3.2Z"/>
      <path class="st2" d="M137.8,88.1c-2-.7-1.7-10-2-12-.7-5.5-.7-11.6-4-16v-1c.2.5,2.2,1.8,3,3.5,2.2,4.5,4,20.7,3,25.5Z"/>
      <path class="st19" d="M146.8,89.1c.6,3.2-1.6,1.7-3.5,2-2.5.4-5,1-7.5,1-.6-1.9,1.7-2.7,2-4,3,0,6.1-.6,9,1h0Z"/>
      <path class="st12" d="M10.8,124.1v-24c.3,0,.7,0,1,0,0,5.5,0,11,0,16.5,0,4.9,1.9,2.8-.9,7.5Z"/>
      <path class="st5" d="M9.8,144.1c.2,4.9,2.3,15.2,4,20,2.9,8.2,6.8,8.5,14.3,11.2,1,.4,1.6,1.7,1.7,1.8.8,9.8-3.7,10.3-12,10-4.1-.2-7.5.6-9-4.5,0-13.5,0-27,0-40.5h1c0,.6,0,1.4,0,2Z"/>
      <path class="st18" d="M8.8,140.1h2c.4,1.1-1,1.9-1,2h-1v-2Z"/>
      <path class="st19" d="M32.8,128.1c.3.5-.2,2.1,0,3h1c.6-1.5-.8-2.3-1-3-.2-.5.1-1.4,0-2,1.3,1.3,1.4,2.4,3.7,2.8,3.1.6,11.6,1.1,14.9,1.1,16.3.2,41.2.6,56.9-.9,7.1-.7,14.1-6,21.5-6-.2,2.6.4,5.6,0,8,0,.2-1.8.7-1,3-2,.2-5.2,2.2-7,3-1.3.6-4.4,1.6-5,2l-6,1,1.5-5c-1.7,3.4-1.9,3.6-5.5,4-3.9-2.1-9.8-.7-14.5-1-1.3,0-2.6-1-3-1h-31c-2.8,0-9.7,1.8-12.5,2-4,.3-8-1.3-12,0h-1c-.3-.3-.6-.8-1-1-4-2.6-7.4-3.4-12-4-.7-.1-1.1-.1-1-1,1.2-1.2.6-4.2,1-5,.9-2,6.7-4.6,9-5,.8,1.5,3.7,4.3,4,5h0Z"/>
      <path class="st19" d="M106.8,139.1c5.4,2.8,0,9.2-3,12l.9-6.4c-1-2-3.3-2.4-5.4-2.7-10.3-1.2-38.7-1.2-49,0-3.1.4-5.9,1.1-5.5,5-.5-.2-2,.4-2.8-.2-.5-.4-1.9-4.8-3.2-5.8,2.3.6,5.6-1.8,7-2,18.5-2.4,42.3,2.2,61,0Z"/>
      <path class="st5" d="M48.8,160.1h55c2.6,4.5-.7,12.7-5.7,13.8-14.1-.6-30,1.5-43.8.3-7.3-.7-10.6-6.8-7.9-13.1l2.5-1h0Z"/>
      <path class="st6" d="M103.8,151.1c-3.5,3.2-5.6,4.6-10.5,5-8.2.7-19.9-1.2-29-1-3.2,0-5.9,1.2-8.9,1.1-9-.4-7.8-7.9-10.5-9.1-.4-3.9,2.4-4.7,5.5-5,10.4-1.2,38.7-1.2,49,0,2,.2,4.3.6,5.4,2.7l-.9,6.4h0ZM102.8,146.1h-4v2c1.9.3,3.5,0,4-2ZM48.8,147.1v1h48v-1s-48,0-48,0Z"/>
      <path class="st18" d="M139.8,142.1c-.9,15.3-1.6,30.5-19,34-10.3,2.1-24,.1-34.5,0s-23.3,1.2-33,0c-5.3-.6-9.3-4.2-13.5-5,0-4.8.3-10.3-5-12v-1c.7.2,2.1-.2,3,0,4.7,1.1,7.1,1.4,12,0l-1,2-2.5,1c-2.7,6.3.7,12.4,7.9,13.1,13.8,1.2,29.8-.9,43.8-.3,5-1.1,8.3-9.3,5.7-13.8,2.1-4.4,8.6-1,11-1-4.1,2.5-4.8,7.5-5,12,7.1.8,19-1.7,20.8-9.8.4-1.9,0-3.6.2-5.2.8-6.9,2.6-3.3,4.5-7.1.9-1.8-.8-6.7,4.5-6.9h0ZM137.3,146.1v1c.6-.3.6-.7,0-1Z"/>
      <path class="st5" d="M130.8,156.1c-.2,1.7.2,3.4-.2,5.2-1.8,8.1-13.6,10.5-20.8,9.8.2-4.5.9-9.5,5-12,5.4,0,10.6-3.1,16-3Z"/>
      <path class="st14" d="M129.8,134.1c4.3,4,3,13.1-3,15-5,1.7-10.4,2.6-15.5,4-.8,0-.6-3.2-.5-4,1.6,1.2,5.9.7,7.3,0,1.2-.6.1-2.4,1.3-3.1,1.8-1,7,.6,7.3-1.5.6-3.4-5.2-4.6-5-7.5,1.8-.8,5-2.8,7-3,.3,0,.7,0,1,0h0Z"/>
      <path class="st7" d="M121.8,137.1c-.1,2.9,5.6,4.1,5,7.5-.4,2.1-5.6.4-7.3,1.5-1.2.7,0,2.5-1.3,3.1-1.4.6-5.8,1.2-7.3,0,.4-2.9,3.4-8.3,6-10,.6-.4,3.7-1.4,5-2h0Z"/>
      <path class="st11" d="M19.8,136.1l2.5,3.1,9.5-1.1c.4.2.7.7,1,1,.2.1,1.8,1.7,2,2,.3.4.7.6,1,1l-3,5.6c-2.2,1.1-3.1-.5-4-.6l4-4-2-2c-1,5.6-4.8,3.7-9,3-.4,1.4.5,2,1,3-4.5,0-3-7.5-3-11Z"/>
      <path class="st19" d="M23.8,149.1c.5.1,1.1.8,2,1,4.3,1.2,9.6,2.9,14,2,.3,2.5.4,3.6-2,4.7v1.3c-.9-.2-2.4.2-3,0-1.1-.4-4.8-3.6-7-4.5s-4.5-1.7-7-1.5c0-.3,0-.7,0-1v-2c.7.3,2.2-.2,3,0Z"/>
      <path class="st14" d="M39.8,152.1c-4.4.9-9.7-.8-14-2-.2-1.8,1.2-3.1,3-3,.9,0,1.8,1.7,4,.6l3-5.6c1.8,2.7,3.7,6.7,4,10Z"/>
      <path class="st15" d="M133.8,136.1c.1,9.3,1.4,10.1-7,13,6-1.9,7.3-11,3-15,1.2,0,3.6.7,4,2Z"/>
      <path class="st14" d="M34.8,141.1c-.2-.3-1.8-1.9-2-2h1l1,2Z"/>
      <path class="st12" d="M13.8,164.1l3-5,1.2,5.8c.7.6,2.4,0,2.8.2,10.3,5.9,8,4,19,6,4.2.8,8.2,4.4,13.5,5,9.8,1.1,22.8-.2,33,0s24.1,2.1,34.5,0v1c-3-.6-8.2,2-10.5,2H41.3c-.8,0-10.4-1.6-11.5-2-.1,0-.7-1.4-1.7-1.8-7.5-2.7-11.4-3-14.3-11.2Z"/>
      <path class="st10" d="M32.8,34.1c.3,8.8,0,17.3-1,26-.7,5.5-1.6,9.2-3,14.5-.4,1.3-2,3.6,0,4.5-.2.7-.8,1.3-1,2-.8,2.7-.8,6.2-1,7,0,.1-1.3.4-1.6,1.6-.7,3-1.8,7.4-1.4,10.4-.5.2-1.4-.2-2,0,0,1.9-.2,4.4,1,6,.8,1.1,2.4,1.5,3.7,1.8,6.2,1.2,16.3,2,22.7,2.3,25.3,1.2,52.5.3,77.5-3-.3,1.1.3,3.2-.5,5-1.7,4.1-4.5,7.7-5.6,12-28.7-2.9-57.7-1.8-86.5,0-2.7.3-2.8-1.3-3.9-3.1-1.4,1.4,1.5,4,2.5,5,.1.6-.2,1.5,0,2-.3-.7-3.2-3.5-4-5-2.4-4.2-5.2-9.3-6-14-.9-1-3.9,2.8-4,3h-2c-.5-.7.6-7.5,1-9,1.7-5.9,3.4-11.8,5-18,0-.3,0-.7,0-1,0-.1.7-.7,1-2,1.8-7.5,3.7-13.1,5-21s1.8-12.6,2-21c0-2,0-4,0-6h2Z"/>
      <path class="st10" d="M32.8,128.1c.2.7,1.5,1.5,1,3h-1c-.2-.9.2-2.5,0-3Z"/>
      <path class="st16" d="M18.8,112.1c0-.2,3.1-4,4-3,.8,4.7,3.7,9.8,6,14-2.3.4-8.1,3-9,5-1.2-3.1-1.8-12.9-1-16Z"/>
      <path class="st18" d="M15.8,147.1c.4,1.5,1.8,3.2,2,4,.3,1,.9,2.3,1,3,.1.6-.1,1.4,0,2,.5,3-1,6.4,2,9-.4-.2-2.1.5-2.8-.2l-1.2-5.8-3,5c-1.7-4.8-3.8-15.1-4-20,0,0,6,3,6,3Z"/>
      <path class="st18" d="M18.8,133.1c0,.9.3.9,1,1v2c0,3.5-1.5,11,3,11,.3.7.7,1.3,1,2-.8-.2-2.3.3-3,0-1-.4-3.2-2.8-5-3-.8-3.5-1.6-10.1,1.2-12.9.5-.5,1.7,0,1.8-.1Z"/>
      <path class="st10" d="M20.8,149.1v2h-3c-.2-.8-1.6-2.5-2-4,0-.3,0-.7,0-1,1.8.2,4,2.6,5,3Z"/>
      <path class="st9" d="M30.8,40.1c-.2,8.4-.7,12.8-2,21,1-4.5.7-12.2,1-17l-5.3,10.2c-.5,4-2.2,8.5-2.6,12.4-.4,3.2,4,0,4.7-.8.2-.3,2.2-4.5,2.3-4.7-1.3,7.9-3.2,13.5-5,21l-1,2c0,.3,0,.7,0,1l-3,2c0-4.3-.1-8.7,0-13,.3-11.7,3.2-20.8,8.2-31.4.7-1.5.5-3.1,2.8-2.6h0Z"/>
      <path class="st10" d="M18.8,74.1c.2,5.9.2,12.1,0,18-3.3.8-2.4-4.7-3-7-.3-1.1-.8-2.2-1-3v-5c.4-.2,1.4.6,2-.7.8-1.5.8-4.6,1-6.3h1c0,1.3,0,2.7,0,4h0Z"/>
      <path class="st18" d="M14.8,82.1c-.3-1.3-2.7-3.5,0-5v5Z"/>
      <path class="st8" d="M137.8,122.1c-.7-1-1.7-1.7-2.4-3.1-1-1.8.6-4.7-2.5-3.9l-.3,7.2-2.8,8.7c.4-2.4-.2-5.4,0-8,0-.3,1-1.5,1.1-3.4.2-5.1-1.2-10.4-1.1-14.6,0-1.1.5-2.1,1-3,2.9.4,4.6-2.3,7-3v23h0Z"/>
      <path class="st10" d="M131.8,60.1c3.3,4.4,3.3,10.5,4,16l-4-3c.2,4.8,3.8,9.6,3.5,14.5-.2,3-3.3,5.1-2.5,8.5-.6-.2-2,.6-2-.6-.5-10.1.8-24.9-2-34.4l3-1h0Z"/>
      <path class="st15" d="M118.8,44.1c4.1,6.9,9.2,20.8,9.9,28.6.2,2,.6,3.9-1.4,5.4-.9.4-3.4-2.8-3.5-3-.3-1.2.2-3.4-.3-5.2-2.2-8.5-5.3-16.9-4.7-25.8Z"/>
      <path class="st9" d="M123.8,75.1c-2.9-11.5-6.3-18.6-6-31h1c-.6,8.9,2.5,17.3,4.7,25.8.5,1.8,0,4,.3,5.2Z"/>
      <path class="st16" d="M72.8,30.1h3c12.3,0,25-.2,37,3-.2.9.8,1.5,1,2,.2,9.7-1,19.9,3,29-4.1,4.5-13.7,1.1-19.4.9-21.5-.4-43.1-.1-64.6,1.1.1-2-.2-4.1,0-6,.3-3,1.8-7,2-10.5.3-5.1.4-11.8-1-16.5,12.8-3,26-2.9,39-3h0ZM43.8,45.1c-1,.3-2.5-.4-3.5,1-1.5,2.1-2.9,11,1.2,11.8,22.4-1.2,45.1-.8,67.4-.2l.8-1.2c3.2-14.6-8.4-12.5-18.9-12.4-1-1.7-3.8-1-5.5-1-11.1-.1-31.7-.9-41.5,2Z"/>
      <path class="st16" d="M129.8,123.1c-7.3,0-14.4,5.4-21.5,6-15.7,1.5-40.7,1-56.9.9-3.4,0-11.8-.6-14.9-1.1-2.3-.4-2.4-1.5-3.7-2.8-1-1-3.9-3.7-2.5-5,1.2,1.7,1.2,3.4,3.9,3.1,28.8-1.9,57.8-2.9,86.5,0,1.1-4.3,3.9-7.9,5.6-12,.8-1.8.1-3.9.5-5,0-.1,2-1,2-2h1c0,4.2,1.2,9.5,1.1,14.6,0,1.8-1,3.1-1.1,3.4h0Z"/>
      <path class="st12" d="M117.8,64.1h-1c-4-9.1-2.8-19.3-3-29,1.6,3.5,2.9,22.6,4,29Z"/>
      <path class="st8" d="M32.8,60.1h-1c1.1-8.7,1.3-17.2,1-26l1-1c1.5,4.8,1.4,11.5,1,16.5-.2,3.5-1.7,7.4-2,10.5Z"/>
      <path class="st14" d="M31.8,138.1l-9.5,1.1-2.5-3.1v-2c4.6.6,8,1.4,12,4Z"/>
      <rect class="st3" x="48.8" y="147.1" width="48" height="1"/>
      <path class="st3" d="M102.8,146.1c-.5,2-2.1,2.2-4,2v-2h4Z"/>
      <path class="st5" d="M34.8,159.1c5.3,1.7,4.9,7.2,5,12-11-2-8.7,0-19-6-3-2.6-1.5-6-2-9,4.7.2,11.5,1.6,16,3Z"/>
      <path class="st10" d="M34.8,158.1v1c-4.5-1.4-11.3-2.8-16-3-.1-.6.1-1.4,0-2h2c.1-.6-.1-1.4,0-2,2.5-.2,4.7.6,7,1.5s5.9,4.1,7,4.5Z"/>
      <path class="st10" d="M137.3,146.1c.6.3.6.7,0,1v-1Z"/>
      <path class="st0" d="M22.8,147.1c-.5-1-1.4-1.6-1-3,4.2.7,8,2.6,9-3l2,2-4,4c-1.8-.1-3.2,1.2-3,3-.9-.2-1.5-.9-2-1-.3-.7-.7-1.3-1-2Z"/>
      <path class="st8" d="M20.8,151.1c0,.3,0,.7,0,1-.1.6.1,1.4,0,2h-2c-.1-.7-.7-2-1-3h3Z"/>
      <path class="st5" d="M22.8,84.1l1-2c-.3,1.3-1,1.9-1,2Z"/>
      <path class="st2" d="M28.8,61.1c0,.3-2.1,4.4-2.3,4.7-.7.8-5.1,4-4.7.8.5-3.9,2.1-8.3,2.6-12.4l5.3-10.2c-.3,4.8,0,12.5-1,17h0Z"/>
      <g>
        <path class="st1" d="M120.8,77.1c0,.3,0,.7,0,1,.3,1.3,0,3.2.4,5,.8,3.5,7.1,20.7,5,22.1l-31.9,2.9c-16.9.3-33.8-.1-50.5-1,.7-3.7,2.5-7.7,5-10.5,6.2-6.8,31.3-15.3,40.8-17.2,10-2.1,20.2-1.7,30.2-3.2.2.4.7.7,1,1h0Z"/>
        <path class="st5" d="M128.8,105.1c0,1-2,1.9-2,2-25.1,3.3-52.2,4.2-77.5,3-6.5-.3-16.5-1.1-22.7-2.3-1.3-.3-2.9-.6-3.7-1.8,3.8-.7,7.5.8,11,1,3.3.2,6.7-.2,10,0,16.8.9,33.6,1.4,50.5,1l31.9-2.9c2.1-1.4-4.2-18.5-5-22.1-.4-1.8-.2-3.7-.4-5l8,27h0Z"/>
        <path class="st3" d="M32.8,60.1c-.2,1.9.1,4.1,0,6,21.4-1.2,43-1.4,64.5-1.1,5.8,0,15.3,3.5,19.4-.9h1c.8,4.4,2.1,8.6,3,13-.3-.3-.8-.6-1-1-1.3-2.7-1.8-5.9-2-8.9-4-.1-8,0-12,0-5.3,0-10.7-.2-16,0-2.3,0-4.7-.2-7,0-4.6.3-9.5-.4-14,0h-36.4c-.6.1-3,10.1-3.6,12-2-.9-.4-3.2,0-4.5,1.4-5.3,2.3-9,3-14.5h1Z"/>
        <path class="st2" d="M105.8,67.1c.1,2.6-1.4,2.6-3.2,3.3-10.2,4.2-23,6-33.9,10.1-12.2,4.5-33.2,12-34.9,26.6-3.5-.2-7.2-1.7-11-1-1.2-1.6-1.1-4.1-1-6,.6-.2,1.5.2,2,0,5.1-1.8,6.7-5.1,11.3-8.2,8.1-5.5,18.6-10.7,27.8-14.2s19.1-4.7,27-10.5c5.3-.2,10.7,0,16,0Z"/>
        <path class="st17" d="M89.8,67.1c-7.8,5.8-18,7-27,10.5s-19.7,8.7-27.8,14.2c-4.6,3.1-6.2,6.5-11.3,8.2-.4-3,.7-7.4,1.4-10.4.3-1.2,1.6-1.5,1.6-1.6.9,2,3.1.5,4.4-.1,14.1-6.7,26.1-11.6,40.4-17.6,1.2-.5,1.2-2.1,1.9-2.3,1.7-.4,7.3-.9,9.3-1,2.3-.2,4.7,0,7,0h0Z"/>
        <path class="st13" d="M82.8,67.1c-2,.2-7.6.7-9.3,1-.8.2-.7,1.8-1.9,2.3-14.2,6-26.3,10.9-40.4,17.6-1.3.6-3.5,2.1-4.4.1.2-.8.2-4.3,1-7,9.3-2.9,18-7.1,27.3-10.2,5-1.6,7.8-3.3,13.7-3.8,4.5-.4,9.4.3,14,0h0Z"/>
        <path class="st4" d="M68.8,67.1c-5.9.5-8.7,2.2-13.7,3.8-9.3,3.1-18,7.3-27.3,10.2.2-.7.8-1.3,1-2,.6-1.9,3-11.9,3.6-12.1h36.4Z"/>
        <path class="st15" d="M105.8,67.1c4,0,8,0,12,0,.2,3,.7,6.2,2,8.9-10,1.6-20.3,1.2-30.2,3.2-9.4,2-34.5,10.5-40.8,17.2-2.5,2.8-4.3,6.8-5,10.5-3.3-.2-6.7.2-10,0,1.7-14.7,22.7-22.2,34.9-26.6,10.9-4,23.7-5.9,33.9-10.1,1.8-.7,3.3-.7,3.2-3.3h0Z"/>
      </g>
      <path class="st3" d="M90.8,44.1c10.4-.2,22.1-2.2,18.9,12.4l-.8,1.2c-22.3-.6-44.9-1-67.4.2-4.1-.9-2.7-9.7-1.2-11.8,1-1.4,2.5-.7,3.5-1v1c-5.3,2-2.3,5.9-3,11h2l65-8v-3c-7-1-13.9-1.2-21-1h-2c1.1-1.7,4.1-1,6-1Z"/>
      <path class="st15" d="M90.8,44.1c-1.9,0-4.9-.7-6,1-8.8,0-34.4-1.5-41,1v-1c9.8-2.9,30.5-2.1,41.5-2,1.7,0,4.4-.6,5.5,1Z"/>
      <path class="st2" d="M86.8,45.1c7.1-.2,14,0,21,1v3l-65,8c-.5-2.2,2.3-3.1,3.8-3.7,4.8-1.7,10.3-1.6,15-3,10-3,13.8-5,25.2-5.3Z"/>
      <path class="st17" d="M84.8,45.1h2c-11.4.4-15.2,2.3-25.2,5.3-4.7,1.4-10.2,1.3-15,3-1.5.5-4.3,1.5-3.8,3.7h-2c.6-5.1-2.3-9,3-11,6.6-2.5,32.1-1,41-1Z"/>
    </g>
  </g>
</svg>