<svg xmlns="http://www.w3.org/2000/svg" viewBox="0 0 512 512" style="height: 512px; width: 512px;"><defs><filter id="shadow-1" height="300%" width="300%" x="-100%" y="-100%"><feFlood flood-color="rgba(201, 201, 201, 1)" result="flood"></feFlood><feComposite in="flood" in2="SourceGraphic" operator="atop" result="composite"></feComposite><feGaussianBlur in="composite" stdDeviation="15" result="blur"></feGaussianBlur><feOffset dx="0" dy="0" result="offset"></feOffset><feComposite in="SourceGraphic" in2="offset" operator="over"></feComposite></filter></defs><circle cx="256" cy="256" r="246" fill="#4a4a4a" fill-opacity="1" stroke="#000000" stroke-opacity="1" stroke-width="10"></circle><g class="" transform="translate(10,10)" style=""><path d="M18.465 20.182v192.9c38.45 80.782 55.772 134.822 150.726 221.098l.167.15.16.158c3.06 3.06 5.89 3.828 10.14 3.455 4.247-.373 9.65-2.494 14.738-5.912 9.313-6.256 16.457-17.503 17.67-22.266l-56.06-56.065 13.214-13.216 62.94 62.944c1.316 1.316 2.67 1.804 6.508 1.115 3.838-.69 9.267-3.1 14.61-6.78 10.098-6.954 19.75-18.663 22.835-26.454l-56.02-56.02 13.216-13.216 63.667 63.67c19.495-3.225 35.412-16.64 41.65-32.52l.756.296-71.514-71.516 13.214-13.215L447.81 415.52c7.58 7.58 14.7 9.95 21.032 9.853 6.33-.096 12.216-2.88 16.62-7.41 8.805-9.06 12.096-23.49-2.255-37.84L259.97 156.88l13.214-13.214 33.08 33.08c46.988-3.724 84.773-17.932 102.148-33.6 8.914-8.04 12.147-15.414 11.424-22.306-.644-6.142-5.172-13.675-15.865-21.79-52.33 22.22-109.035 19.23-162.685 2.538-54.338-16.908-105.852-47.735-148.47-81.406h-74.35z" fill="#ffffff" fill-opacity="1" stroke="#000000" stroke-opacity="1" stroke-width="10" transform="translate(102.4, 102.4) scale(0.6, 0.6) rotate(0, 256, 256) skewX(0) skewY(0)" filter="url(#shadow-1)"></path></g></svg>