<svg xmlns="http://www.w3.org/2000/svg" viewBox="0 0 512 512" style="height: 512px; width: 512px;"><defs><filter id="shadow-1" height="300%" width="300%" x="-100%" y="-100%"><feFlood flood-color="rgba(255, 255, 255, 1)" result="flood"></feFlood><feComposite in="flood" in2="SourceGraphic" operator="atop" result="composite"></feComposite><feGaussianBlur in="composite" stdDeviation="15" result="blur"></feGaussianBlur><feOffset dx="0" dy="0" result="offset"></feOffset><feComposite in="SourceGraphic" in2="offset" operator="over"></feComposite></filter></defs><circle cx="256" cy="256" r="244" fill="#4a4a4a" fill-opacity="1" stroke="#000000" stroke-opacity="1" stroke-width="12"></circle><g class="" transform="translate(0,0)" style=""><path d="M228.576 26.213v207.32h54.848V26.214h-54.848zm-28.518 45.744C108.44 96.58 41 180.215 41 279.605c0 118.74 96.258 215 215 215 118.74 0 215-96.26 215-215 0-99.39-67.44-183.025-159.057-207.647v50.47c64.6 22.994 110.85 84.684 110.85 157.177 0 92.117-74.676 166.794-166.793 166.794-92.118 0-166.794-74.678-166.794-166.795 0-72.494 46.25-134.183 110.852-157.178v-50.47z" fill="#ffffff" fill-opacity="1" stroke="#000000" stroke-opacity="1" stroke-width="10" transform="translate(76.8, 76.8) scale(0.7, 0.7) rotate(0, 256, 256) skewX(0) skewY(0)" filter="url(#shadow-1)"></path></g></svg>